999
"DXF R12 Output" (www.mydxf.blogspot.com)
 0 
SECTION
 2 
HEADER
 9 
$ACADVER
 1 
AC1009
 9 
$EXTMIN
 10 
 0 
 20 
 0 
 9 
$EXTMAX
 10 
 8.5 
 20 
 11 
 0 
ENDSEC
 0 
SECTION
 2 
ENTITIES
0
POLYLINE
8
cut outs
62
7
70
0
10
0.000000
20
0.000000
66
1
0
VERTEX
8
cut outs
10
61.978741
20
37.513392
70
0
0
VERTEX
8
cut outs
10
69.978741
20
37.513392
70
0
0
VERTEX
8
cut outs
10
69.978741
20
34.431669
70
0
0
VERTEX
8
cut outs
10
61.978741
20
34.431669
70
0
0
VERTEX
8
cut outs
10
61.978741
20
37.513392
70
0
0
SEQEND
8
cut outs
0
POLYLINE
8
cut outs
62
7
70
0
10
0.000000
20
0.000000
66
1
0
VERTEX
8
cut outs
10
49.450333
20
50.000000
70
0
0
VERTEX
8
cut outs
10
57.450333
20
50.000000
70
0
0
VERTEX
8
cut outs
10
57.450333
20
46.918277
70
0
0
VERTEX
8
cut outs
10
49.450333
20
46.918277
70
0
0
VERTEX
8
cut outs
10
49.450333
20
50.000000
70
0
0
SEQEND
8
cut outs
0
POLYLINE
8
cut outs
62
255
70
1
10
0.000000
20
0.000000
66
1
0
VERTEX
8
cut outs
10
49.650333
20
47.114507
70
0
0
VERTEX
8
cut outs
10
61.250001
20
47.114507
70
0
0
VERTEX
8
cut outs
10
61.250001
20
38.704545
70
0
0
VERTEX
8
cut outs
10
49.650333
20
38.704545
70
0
0
VERTEX
8
cut outs
10
49.650333
20
47.114507
70
0
0
SEQEND
8
cut outs
0
POLYLINE
8
cut outs
62
255
70
1
10
0.000000
20
0.000000
66
1
0
VERTEX
8
cut outs
10
58.179073
20
34.631999
70
0
0
VERTEX
8
cut outs
10
69.778741
20
34.631999
70
0
0
VERTEX
8
cut outs
10
69.778741
20
22.483400
70
0
0
VERTEX
8
cut outs
10
58.179073
20
22.483400
70
0
0
VERTEX
8
cut outs
10
58.179073
20
34.631999
70
0
0
SEQEND
8
cut outs
0
POLYLINE
8
cut outs
62
7
70
1
10
0.000000
20
0.000000
66
1
0
VERTEX
8
cut outs
10
0.000000
20
36.845780
70
0
0
VERTEX
8
cut outs
10
8.000000
20
36.845780
70
0
0
VERTEX
8
cut outs
10
8.000000
20
33.764057
70
0
0
VERTEX
8
cut outs
10
0.000000
20
33.764057
70
0
0
VERTEX
8
cut outs
10
0.000000
20
36.845780
70
0
0
SEQEND
8
cut outs
0
POLYLINE
8
cut outs
62
255
70
1
10
0.000000
20
0.000000
66
1
0
VERTEX
8
cut outs
10
0.200001
20
33.960287
70
0
0
VERTEX
8
cut outs
10
7.799999
20
33.960287
70
0
0
VERTEX
8
cut outs
10
7.799999
20
20.600577
70
0
0
VERTEX
8
cut outs
10
0.200001
20
20.600577
70
0
0
VERTEX
8
cut outs
10
0.200001
20
33.960287
70
0
0
SEQEND
8
cut outs
0
POLYLINE
8
cut outs
62
7
70
0
10
0.000000
20
0.000000
66
1
0
VERTEX
8
cut outs
10
66.918274
20
10.115623
70
0
0
VERTEX
8
cut outs
10
66.918274
20
18.115623
70
0
0
VERTEX
8
cut outs
10
69.999997
20
18.115623
70
0
0
VERTEX
8
cut outs
10
69.999997
20
10.115623
70
0
0
VERTEX
8
cut outs
10
66.918274
20
10.115623
70
0
0
SEQEND
8
cut outs
0
POLYLINE
8
cut outs
62
7
70
1
10
0.000000
20
0.000000
66
1
0
VERTEX
8
cut outs
10
0.000000
20
17.386364
70
0
0
VERTEX
8
cut outs
10
19.678341
20
17.442609
70
0
0
VERTEX
8
cut outs
10
23.853540
20
13.403382
70
0
0
VERTEX
8
cut outs
10
23.797290
20
0.000000
70
0
0
VERTEX
8
cut outs
10
0.000000
20
0.000005
70
0
0
VERTEX
8
cut outs
10
0.000000
20
17.386364
70
0
0
SEQEND
8
cut outs
0
POLYLINE
8
originals
62
7
70
0
10
0.000000
20
0.000000
66
1
0
VERTEX
8
originals
10
61.978741
20
37.513392
70
0
0
VERTEX
8
originals
10
69.978741
20
37.513392
70
0
0
VERTEX
8
originals
10
69.978741
20
34.431669
70
0
0
VERTEX
8
originals
10
61.978741
20
34.431669
70
0
0
VERTEX
8
originals
10
61.978741
20
37.513392
70
0
0
SEQEND
8
originals
0
POLYLINE
8
originals
62
255
70
0
10
0.000000
20
0.000000
66
1
0
VERTEX
8
originals
10
60.045742
20
34.631999
70
0
0
VERTEX
8
originals
10
69.778743
20
34.631999
70
0
0
VERTEX
8
originals
10
69.778743
20
23.115623
70
0
0
VERTEX
8
originals
10
60.045742
20
23.115623
70
0
0
VERTEX
8
originals
10
60.045742
20
34.631999
70
0
0
SEQEND
8
originals
0
POLYLINE
8
originals
62
7
70
1
10
0.000000
20
0.000000
66
1
0
VERTEX
8
originals
10
0.000000
20
36.845780
70
0
0
VERTEX
8
originals
10
8.000000
20
36.845780
70
0
0
VERTEX
8
originals
10
8.000000
20
33.764057
70
0
0
VERTEX
8
originals
10
0.000000
20
33.764057
70
0
0
VERTEX
8
originals
10
0.000000
20
36.845780
70
0
0
SEQEND
8
originals
0
POLYLINE
8
originals
62
255
70
0
10
0.000000
20
0.000000
66
1
0
VERTEX
8
originals
10
0.200001
20
33.960287
70
0
0
VERTEX
8
originals
10
7.799999
20
33.960287
70
0
0
VERTEX
8
originals
10
7.799999
20
20.600577
70
0
0
VERTEX
8
originals
10
0.200001
20
20.600577
70
0
0
VERTEX
8
originals
10
0.200001
20
33.960287
70
0
0
SEQEND
8
originals
0
POLYLINE
8
originals
62
7
70
0
10
0.000000
20
0.000000
66
1
0
VERTEX
8
originals
10
66.918274
20
10.115623
70
0
0
VERTEX
8
originals
10
66.918274
20
18.115623
70
0
0
VERTEX
8
originals
10
69.999997
20
18.115623
70
0
0
VERTEX
8
originals
10
69.999997
20
10.115623
70
0
0
VERTEX
8
originals
10
66.918274
20
10.115623
70
0
0
SEQEND
8
originals
0
POLYLINE
8
originals
62
7
70
1
10
0.000000
20
0.000000
66
1
0
VERTEX
8
originals
10
0.000000
20
17.386364
70
0
0
VERTEX
8
originals
10
19.678341
20
17.442609
70
0
0
VERTEX
8
originals
10
23.853540
20
13.403382
70
0
0
VERTEX
8
originals
10
23.797290
20
0.000000
70
0
0
VERTEX
8
originals
10
0.000000
20
0.000005
70
0
0
VERTEX
8
originals
10
0.000000
20
17.386364
70
0
0
SEQEND
8
originals
 0 
ENDSEC
 0 
EOF