999
"DXF R12 Output" (www.mydxf.blogspot.com)
 0 
SECTION
 2 
HEADER
 9 
$ACADVER
 1 
AC1009
 9 
$EXTMIN
 10 
 0 
 20 
 0 
 9 
$EXTMAX
 10 
 8.5 
 20 
 11 
 0 
ENDSEC
 0 
SECTION
 2 
ENTITIES
0
POLYLINE
8
Layer 1
62
7
70
1
10
0.000000
20
0.000000
66
1
0
VERTEX
8
Layer 1
10
0.000916
20
8.698211
70
0
0
VERTEX
8
Layer 1
10
0.000916
20
17.394256
70
0
0
VERTEX
8
Layer 1
10
5.964624
20
17.408427
70
0
0
VERTEX
8
Layer 1
10
11.928333
20
17.422597
70
0
0
VERTEX
8
Layer 1
10
15.854749
20
17.433247
70
0
0
VERTEX
8
Layer 1
10
19.781166
20
17.443897
70
0
0
VERTEX
8
Layer 1
10
19.747956
20
17.427817
70
0
0
VERTEX
8
Layer 1
10
19.714746
20
17.411737
70
0
0
VERTEX
8
Layer 1
10
21.786770
20
15.411487
70
0
0
VERTEX
8
Layer 1
10
23.858794
20
13.411237
70
0
0
VERTEX
8
Layer 1
10
23.846734
20
11.008820
70
0
0
VERTEX
8
Layer 1
10
23.834674
20
8.606403
70
0
0
VERTEX
8
Layer 1
10
23.823564
20
4.754070
70
0
0
VERTEX
8
Layer 1
10
23.812454
20
0.901736
70
0
0
VERTEX
8
Layer 1
10
23.800004
20
0.451945
70
0
0
VERTEX
8
Layer 1
10
23.787564
20
0.002153
70
0
0
VERTEX
8
Layer 1
10
11.894240
20
0.002153
70
0
0
VERTEX
8
Layer 1
10
0.000916
20
0.002153
70
0
0
VERTEX
8
Layer 1
10
0.000916
20
8.698211
70
0
0
SEQEND
8
Layer 1
0
POLYLINE
8
Layer 1
62
7
70
0
10
0.000000
20
0.000000
66
1
0
VERTEX
8
Layer 1
10
2.511289
20
2.367864
70
0
0
VERTEX
8
Layer 1
10
2.534578
20
2.383414
70
0
0
VERTEX
8
Layer 1
10
2.558917
20
2.429654
70
0
0
VERTEX
8
Layer 1
10
2.583255
20
2.475894
70
0
0
VERTEX
8
Layer 1
10
2.563099
20
2.528914
70
0
0
VERTEX
8
Layer 1
10
2.542941
20
2.581934
70
0
0
VERTEX
8
Layer 1
10
2.500986
20
2.604384
70
0
0
VERTEX
8
Layer 1
10
2.459031
20
2.626834
70
0
0
VERTEX
8
Layer 1
10
2.161060
20
2.626834
70
0
0
VERTEX
8
Layer 1
10
1.863088
20
2.626834
70
0
0
VERTEX
8
Layer 1
10
2.192061
20
3.064996
70
0
0
VERTEX
8
Layer 1
10
2.521035
20
3.503159
70
0
0
VERTEX
8
Layer 1
10
2.554672
20
3.618865
70
0
0
VERTEX
8
Layer 1
10
2.588309
20
3.734571
70
0
0
VERTEX
8
Layer 1
10
2.576365
20
3.835421
70
0
0
VERTEX
8
Layer 1
10
2.564421
20
3.936272
70
0
0
VERTEX
8
Layer 1
10
2.522703
20
4.018042
70
0
0
VERTEX
8
Layer 1
10
2.480985
20
4.099812
70
0
0
VERTEX
8
Layer 1
10
2.385579
20
4.187752
70
0
0
VERTEX
8
Layer 1
10
2.290173
20
4.275692
70
0
0
VERTEX
8
Layer 1
10
2.168594
20
4.311032
70
0
0
VERTEX
8
Layer 1
10
2.047014
20
4.346372
70
0
0
VERTEX
8
Layer 1
10
1.946163
20
4.334432
70
0
0
VERTEX
8
Layer 1
10
1.845313
20
4.322492
70
0
0
VERTEX
8
Layer 1
10
1.760390
20
4.279172
70
0
0
VERTEX
8
Layer 1
10
1.675467
20
4.235852
70
0
0
VERTEX
8
Layer 1
10
1.603460
20
4.161712
70
0
0
VERTEX
8
Layer 1
10
1.531453
20
4.087572
70
0
0
VERTEX
8
Layer 1
10
1.492731
20
4.001702
70
0
0
VERTEX
8
Layer 1
10
1.454009
20
3.915832
70
0
0
VERTEX
8
Layer 1
10
1.474081
20
3.858762
70
0
0
VERTEX
8
Layer 1
10
1.494153
20
3.801692
70
0
0
VERTEX
8
Layer 1
10
1.552997
20
3.773492
70
0
0
VERTEX
8
Layer 1
10
1.611841
20
3.745292
70
0
0
VERTEX
8
Layer 1
10
1.662525
20
3.778502
70
0
0
VERTEX
8
Layer 1
10
1.713209
20
3.811712
70
0
0
VERTEX
8
Layer 1
10
1.748674
20
3.886452
70
0
0
VERTEX
8
Layer 1
10
1.784139
20
3.961192
70
0
0
VERTEX
8
Layer 1
10
1.839738
20
4.000472
70
0
0
VERTEX
8
Layer 1
10
1.895337
20
4.039752
70
0
0
VERTEX
8
Layer 1
10
1.963084
20
4.054422
70
0
0
VERTEX
8
Layer 1
10
2.030831
20
4.069092
70
0
0
VERTEX
8
Layer 1
10
2.127951
20
4.026132
70
0
0
VERTEX
8
Layer 1
10
2.225070
20
3.983172
70
0
0
VERTEX
8
Layer 1
10
2.269849
20
3.881941
70
0
0
VERTEX
8
Layer 1
10
2.314628
20
3.780711
70
0
0
VERTEX
8
Layer 1
10
2.283962
20
3.695911
70
0
0
VERTEX
8
Layer 1
10
2.253296
20
3.611111
70
0
0
VERTEX
8
Layer 1
10
1.846774
20
3.069560
70
0
0
VERTEX
8
Layer 1
10
1.440252
20
2.528008
70
0
0
VERTEX
8
Layer 1
10
1.440252
20
2.482188
70
0
0
VERTEX
8
Layer 1
10
1.440252
20
2.436368
70
0
0
VERTEX
8
Layer 1
10
1.482585
20
2.394038
70
0
0
VERTEX
8
Layer 1
10
1.524918
20
2.351708
70
0
0
VERTEX
8
Layer 1
10
2.006460
20
2.352032
70
0
0
VERTEX
8
Layer 1
10
2.488001
20
2.352356
70
0
0
VERTEX
8
Layer 1
10
2.511289
20
2.367864
70
0
0
SEQEND
8
Layer 1
0
POLYLINE
8
Layer 1
62
7
70
0
10
0.000000
20
0.000000
66
1
0
VERTEX
8
Layer 1
10
3.717841
20
2.395054
70
0
0
VERTEX
8
Layer 1
10
3.807465
20
2.438444
70
0
0
VERTEX
8
Layer 1
10
3.895666
20
2.534134
70
0
0
VERTEX
8
Layer 1
10
3.983867
20
2.629824
70
0
0
VERTEX
8
Layer 1
10
4.045903
20
2.762391
70
0
0
VERTEX
8
Layer 1
10
4.107939
20
2.894959
70
0
0
VERTEX
8
Layer 1
10
4.139344
20
3.059097
70
0
0
VERTEX
8
Layer 1
10
4.170749
20
3.223234
70
0
0
VERTEX
8
Layer 1
10
4.170749
20
3.349265
70
0
0
VERTEX
8
Layer 1
10
4.170749
20
3.475295
70
0
0
VERTEX
8
Layer 1
10
4.137282
20
3.638444
70
0
0
VERTEX
8
Layer 1
10
4.103815
20
3.801594
70
0
0
VERTEX
8
Layer 1
10
4.041730
20
3.932254
70
0
0
VERTEX
8
Layer 1
10
3.979645
20
4.062915
70
0
0
VERTEX
8
Layer 1
10
3.889989
20
4.154985
70
0
0
VERTEX
8
Layer 1
10
3.800333
20
4.247055
70
0
0
VERTEX
8
Layer 1
10
3.715666
20
4.288915
70
0
0
VERTEX
8
Layer 1
10
3.630999
20
4.330775
70
0
0
VERTEX
8
Layer 1
10
3.503743
20
4.330446
70
0
0
VERTEX
8
Layer 1
10
3.376488
20
4.330117
70
0
0
VERTEX
8
Layer 1
10
3.277522
20
4.272117
70
0
0
VERTEX
8
Layer 1
10
3.178556
20
4.214117
70
0
0
VERTEX
8
Layer 1
10
3.103612
20
4.122657
70
0
0
VERTEX
8
Layer 1
10
3.028668
20
4.031197
70
0
0
VERTEX
8
Layer 1
10
2.976665
20
3.913609
70
0
0
VERTEX
8
Layer 1
10
2.924662
20
3.796022
70
0
0
VERTEX
8
Layer 1
10
2.891539
20
3.635663
70
0
0
VERTEX
8
Layer 1
10
2.858416
20
3.475304
70
0
0
VERTEX
8
Layer 1
10
2.858783
20
3.331537
70
0
0
VERTEX
8
Layer 1
10
2.859151
20
3.187769
70
0
0
VERTEX
8
Layer 1
10
2.890147
20
3.041456
70
0
0
VERTEX
8
Layer 1
10
2.921143
20
2.895143
70
0
0
VERTEX
8
Layer 1
10
2.983220
20
2.762488
70
0
0
VERTEX
8
Layer 1
10
3.045297
20
2.629833
70
0
0
VERTEX
8
Layer 1
10
3.132981
20
2.534703
70
0
0
VERTEX
8
Layer 1
10
3.220665
20
2.439573
70
0
0
VERTEX
8
Layer 1
10
3.309416
20
2.395643
70
0
0
VERTEX
8
Layer 1
10
3.398167
20
2.351713
70
0
0
VERTEX
8
Layer 1
10
3.513192
20
2.351697
70
0
0
VERTEX
8
Layer 1
10
3.628218
20
2.351680
70
0
0
VERTEX
8
Layer 1
10
3.717841
20
2.395054
70
0
0
SEQEND
8
Layer 1
0
POLYLINE
8
Layer 1
62
7
70
0
10
0.000000
20
0.000000
66
1
0
VERTEX
8
Layer 1
10
3.394544
20
2.667921
70
0
0
VERTEX
8
Layer 1
10
3.327422
20
2.708851
70
0
0
VERTEX
8
Layer 1
10
3.274645
20
2.800141
70
0
0
VERTEX
8
Layer 1
10
3.221868
20
2.891421
70
0
0
VERTEX
8
Layer 1
10
3.188608
20
3.005381
70
0
0
VERTEX
8
Layer 1
10
3.155348
20
3.119341
70
0
0
VERTEX
8
Layer 1
10
3.141924
20
3.250362
70
0
0
VERTEX
8
Layer 1
10
3.128500
20
3.381383
70
0
0
VERTEX
8
Layer 1
10
3.153773
20
3.531215
70
0
0
VERTEX
8
Layer 1
10
3.179045
20
3.681048
70
0
0
VERTEX
8
Layer 1
10
3.238009
20
3.805728
70
0
0
VERTEX
8
Layer 1
10
3.296973
20
3.930408
70
0
0
VERTEX
8
Layer 1
10
3.365075
20
3.987708
70
0
0
VERTEX
8
Layer 1
10
3.433177
20
4.045008
70
0
0
VERTEX
8
Layer 1
10
3.482182
20
4.057308
70
0
0
VERTEX
8
Layer 1
10
3.531188
20
4.069608
70
0
0
VERTEX
8
Layer 1
10
3.591676
20
4.038148
70
0
0
VERTEX
8
Layer 1
10
3.652164
20
4.006688
70
0
0
VERTEX
8
Layer 1
10
3.698566
20
3.956988
70
0
0
VERTEX
8
Layer 1
10
3.744968
20
3.907288
70
0
0
VERTEX
8
Layer 1
10
3.798160
20
3.790934
70
0
0
VERTEX
8
Layer 1
10
3.851352
20
3.674580
70
0
0
VERTEX
8
Layer 1
10
3.875735
20
3.517007
70
0
0
VERTEX
8
Layer 1
10
3.900118
20
3.359435
70
0
0
VERTEX
8
Layer 1
10
3.886386
20
3.231257
70
0
0
VERTEX
8
Layer 1
10
3.872654
20
3.103080
70
0
0
VERTEX
8
Layer 1
10
3.828149
20
2.965496
70
0
0
VERTEX
8
Layer 1
10
3.783644
20
2.827913
70
0
0
VERTEX
8
Layer 1
10
3.683886
20
2.727371
70
0
0
VERTEX
8
Layer 1
10
3.584128
20
2.626830
70
0
0
VERTEX
8
Layer 1
10
3.522896
20
2.626909
70
0
0
VERTEX
8
Layer 1
10
3.461664
20
2.626988
70
0
0
VERTEX
8
Layer 1
10
3.394544
20
2.667921
70
0
0
SEQEND
8
Layer 1
0
POLYLINE
8
Layer 1
62
7
70
0
10
0.000000
20
0.000000
66
1
0
VERTEX
8
Layer 1
10
5.516955
20
2.367867
70
0
0
VERTEX
8
Layer 1
10
5.540245
20
2.383417
70
0
0
VERTEX
8
Layer 1
10
5.564583
20
2.429657
70
0
0
VERTEX
8
Layer 1
10
5.588921
20
2.475897
70
0
0
VERTEX
8
Layer 1
10
5.568765
20
2.528917
70
0
0
VERTEX
8
Layer 1
10
5.548609
20
2.581937
70
0
0
VERTEX
8
Layer 1
10
5.506654
20
2.604387
70
0
0
VERTEX
8
Layer 1
10
5.464699
20
2.626837
70
0
0
VERTEX
8
Layer 1
10
5.166727
20
2.626837
70
0
0
VERTEX
8
Layer 1
10
4.868754
20
2.626837
70
0
0
VERTEX
8
Layer 1
10
5.197728
20
3.064999
70
0
0
VERTEX
8
Layer 1
10
5.526702
20
3.503162
70
0
0
VERTEX
8
Layer 1
10
5.560339
20
3.618868
70
0
0
VERTEX
8
Layer 1
10
5.593976
20
3.734574
70
0
0
VERTEX
8
Layer 1
10
5.582032
20
3.835424
70
0
0
VERTEX
8
Layer 1
10
5.570088
20
3.936275
70
0
0
VERTEX
8
Layer 1
10
5.528370
20
4.018045
70
0
0
VERTEX
8
Layer 1
10
5.486652
20
4.099815
70
0
0
VERTEX
8
Layer 1
10
5.391246
20
4.187755
70
0
0
VERTEX
8
Layer 1
10
5.295840
20
4.275695
70
0
0
VERTEX
8
Layer 1
10
5.174260
20
4.311035
70
0
0
VERTEX
8
Layer 1
10
5.052681
20
4.346375
70
0
0
VERTEX
8
Layer 1
10
4.951830
20
4.334435
70
0
0
VERTEX
8
Layer 1
10
4.850979
20
4.322495
70
0
0
VERTEX
8
Layer 1
10
4.766056
20
4.279175
70
0
0
VERTEX
8
Layer 1
10
4.681133
20
4.235855
70
0
0
VERTEX
8
Layer 1
10
4.609126
20
4.161715
70
0
0
VERTEX
8
Layer 1
10
4.537119
20
4.087575
70
0
0
VERTEX
8
Layer 1
10
4.498397
20
4.001705
70
0
0
VERTEX
8
Layer 1
10
4.459675
20
3.915835
70
0
0
VERTEX
8
Layer 1
10
4.479747
20
3.858765
70
0
0
VERTEX
8
Layer 1
10
4.499819
20
3.801695
70
0
0
VERTEX
8
Layer 1
10
4.558663
20
3.773495
70
0
0
VERTEX
8
Layer 1
10
4.617507
20
3.745295
70
0
0
VERTEX
8
Layer 1
10
4.669186
20
3.779155
70
0
0
VERTEX
8
Layer 1
10
4.720864
20
3.813015
70
0
0
VERTEX
8
Layer 1
10
4.750330
20
3.883535
70
0
0
VERTEX
8
Layer 1
10
4.779796
20
3.954055
70
0
0
VERTEX
8
Layer 1
10
4.840399
20
3.996905
70
0
0
VERTEX
8
Layer 1
10
4.901002
20
4.039755
70
0
0
VERTEX
8
Layer 1
10
4.968749
20
4.054425
70
0
0
VERTEX
8
Layer 1
10
5.036496
20
4.069095
70
0
0
VERTEX
8
Layer 1
10
5.131287
20
4.027165
70
0
0
VERTEX
8
Layer 1
10
5.226079
20
3.985235
70
0
0
VERTEX
8
Layer 1
10
5.256361
20
3.925175
70
0
0
VERTEX
8
Layer 1
10
5.286643
20
3.865115
70
0
0
VERTEX
8
Layer 1
10
5.300555
20
3.807085
70
0
0
VERTEX
8
Layer 1
10
5.314467
20
3.749055
70
0
0
VERTEX
8
Layer 1
10
5.284609
20
3.677595
70
0
0
VERTEX
8
Layer 1
10
5.254751
20
3.606135
70
0
0
VERTEX
8
Layer 1
10
4.850334
20
3.067074
70
0
0
VERTEX
8
Layer 1
10
4.445917
20
2.528013
70
0
0
VERTEX
8
Layer 1
10
4.445917
20
2.482193
70
0
0
VERTEX
8
Layer 1
10
4.445917
20
2.436373
70
0
0
VERTEX
8
Layer 1
10
4.488250
20
2.394043
70
0
0
VERTEX
8
Layer 1
10
4.530583
20
2.351713
70
0
0
VERTEX
8
Layer 1
10
5.012125
20
2.352037
70
0
0
VERTEX
8
Layer 1
10
5.493666
20
2.352361
70
0
0
VERTEX
8
Layer 1
10
5.516955
20
2.367867
70
0
0
SEQEND
8
Layer 1
0
POLYLINE
8
Layer 1
62
7
70
0
10
0.000000
20
0.000000
66
1
0
VERTEX
8
Layer 1
10
6.636666
20
2.401467
70
0
0
VERTEX
8
Layer 1
10
6.742499
20
2.450857
70
0
0
VERTEX
8
Layer 1
10
6.824259
20
2.541547
70
0
0
VERTEX
8
Layer 1
10
6.906019
20
2.632237
70
0
0
VERTEX
8
Layer 1
10
6.950214
20
2.730077
70
0
0
VERTEX
8
Layer 1
10
6.994410
20
2.827917
70
0
0
VERTEX
8
Layer 1
10
6.995176
20
2.986789
70
0
0
VERTEX
8
Layer 1
10
6.995942
20
3.145661
70
0
0
VERTEX
8
Layer 1
10
6.936824
20
3.266495
70
0
0
VERTEX
8
Layer 1
10
6.877706
20
3.387328
70
0
0
VERTEX
8
Layer 1
10
6.781962
20
3.471608
70
0
0
VERTEX
8
Layer 1
10
6.686218
20
3.555888
70
0
0
VERTEX
8
Layer 1
10
6.579165
20
3.591448
70
0
0
VERTEX
8
Layer 1
10
6.472112
20
3.627008
70
0
0
VERTEX
8
Layer 1
10
6.342723
20
3.615918
70
0
0
VERTEX
8
Layer 1
10
6.213333
20
3.604828
70
0
0
VERTEX
8
Layer 1
10
6.175574
20
3.589538
70
0
0
VERTEX
8
Layer 1
10
6.137815
20
3.574248
70
0
0
VERTEX
8
Layer 1
10
6.143825
20
3.814913
70
0
0
VERTEX
8
Layer 1
10
6.149835
20
4.055578
70
0
0
VERTEX
8
Layer 1
10
6.552002
20
4.067348
70
0
0
VERTEX
8
Layer 1
10
6.954168
20
4.079118
70
0
0
VERTEX
8
Layer 1
10
6.956888
20
4.083218
70
0
0
VERTEX
8
Layer 1
10
6.959608
20
4.087318
70
0
0
VERTEX
8
Layer 1
10
6.985115
20
4.148898
70
0
0
VERTEX
8
Layer 1
10
7.010622
20
4.210478
70
0
0
VERTEX
8
Layer 1
10
6.987198
20
4.254248
70
0
0
VERTEX
8
Layer 1
10
6.963774
20
4.298018
70
0
0
VERTEX
8
Layer 1
10
6.923317
20
4.319668
70
0
0
VERTEX
8
Layer 1
10
6.882860
20
4.341318
70
0
0
VERTEX
8
Layer 1
10
6.425423
20
4.341318
70
0
0
VERTEX
8
Layer 1
10
5.967986
20
4.341318
70
0
0
VERTEX
8
Layer 1
10
5.916031
20
4.289368
70
0
0
VERTEX
8
Layer 1
10
5.864077
20
4.237418
70
0
0
VERTEX
8
Layer 1
10
5.864077
20
3.759243
70
0
0
VERTEX
8
Layer 1
10
5.864077
20
3.281069
70
0
0
VERTEX
8
Layer 1
10
5.916031
20
3.229119
70
0
0
VERTEX
8
Layer 1
10
5.967986
20
3.177169
70
0
0
VERTEX
8
Layer 1
10
5.995406
20
3.177223
70
0
0
VERTEX
8
Layer 1
10
6.022827
20
3.177278
70
0
0
VERTEX
8
Layer 1
10
6.149827
20
3.255058
70
0
0
VERTEX
8
Layer 1
10
6.276827
20
3.332838
70
0
0
VERTEX
8
Layer 1
10
6.393244
20
3.334338
70
0
0
VERTEX
8
Layer 1
10
6.509661
20
3.335838
70
0
0
VERTEX
8
Layer 1
10
6.566437
20
3.293508
70
0
0
VERTEX
8
Layer 1
10
6.623213
20
3.251178
70
0
0
VERTEX
8
Layer 1
10
6.666979
20
3.174218
70
0
0
VERTEX
8
Layer 1
10
6.710745
20
3.097248
70
0
0
VERTEX
8
Layer 1
10
6.710396
20
2.983713
70
0
0
VERTEX
8
Layer 1
10
6.710048
20
2.870178
70
0
0
VERTEX
8
Layer 1
10
6.662771
20
2.787718
70
0
0
VERTEX
8
Layer 1
10
6.615494
20
2.705258
70
0
0
VERTEX
8
Layer 1
10
6.541741
20
2.666008
70
0
0
VERTEX
8
Layer 1
10
6.467988
20
2.626758
70
0
0
VERTEX
8
Layer 1
10
6.404158
20
2.626888
70
0
0
VERTEX
8
Layer 1
10
6.340328
20
2.627019
70
0
0
VERTEX
8
Layer 1
10
6.278186
20
2.659419
70
0
0
VERTEX
8
Layer 1
10
6.216044
20
2.691829
70
0
0
VERTEX
8
Layer 1
10
6.144245
20
2.775709
70
0
0
VERTEX
8
Layer 1
10
6.072446
20
2.859589
70
0
0
VERTEX
8
Layer 1
10
6.013876
20
2.859589
70
0
0
VERTEX
8
Layer 1
10
5.955306
20
2.859589
70
0
0
VERTEX
8
Layer 1
10
5.922186
20
2.822549
70
0
0
VERTEX
8
Layer 1
10
5.889066
20
2.785509
70
0
0
VERTEX
8
Layer 1
10
5.884646
20
2.753759
70
0
0
VERTEX
8
Layer 1
10
5.880226
20
2.722009
70
0
0
VERTEX
8
Layer 1
10
5.882736
20
2.687949
70
0
0
VERTEX
8
Layer 1
10
5.885246
20
2.653889
70
0
0
VERTEX
8
Layer 1
10
5.974398
20
2.552608
70
0
0
VERTEX
8
Layer 1
10
6.063550
20
2.451326
70
0
0
VERTEX
8
Layer 1
10
6.170190
20
2.401666
70
0
0
VERTEX
8
Layer 1
10
6.276830
20
2.352006
70
0
0
VERTEX
8
Layer 1
10
6.403830
20
2.352006
70
0
0
VERTEX
8
Layer 1
10
6.530830
20
2.352006
70
0
0
VERTEX
8
Layer 1
10
6.636666
20
2.401467
70
0
0
SEQEND
8
Layer 1
0
POLYLINE
8
Layer 1
62
7
70
0
10
0.000000
20
0.000000
66
1
0
VERTEX
8
Layer 1
10
7.523676
20
2.391767
70
0
0
VERTEX
8
Layer 1
10
7.559997
20
2.431897
70
0
0
VERTEX
8
Layer 1
10
7.780650
20
3.296637
70
0
0
VERTEX
8
Layer 1
10
8.001304
20
4.161378
70
0
0
VERTEX
8
Layer 1
10
8.001610
20
4.209008
70
0
0
VERTEX
8
Layer 1
10
8.001916
20
4.256628
70
0
0
VERTEX
8
Layer 1
10
7.959583
20
4.298958
70
0
0
VERTEX
8
Layer 1
10
7.917250
20
4.341288
70
0
0
VERTEX
8
Layer 1
10
7.868023
20
4.341288
70
0
0
VERTEX
8
Layer 1
10
7.818796
20
4.341288
70
0
0
VERTEX
8
Layer 1
10
7.775757
20
4.293658
70
0
0
VERTEX
8
Layer 1
10
7.732718
20
4.246038
70
0
0
VERTEX
8
Layer 1
10
7.507483
20
3.363059
70
0
0
VERTEX
8
Layer 1
10
7.282249
20
2.480081
70
0
0
VERTEX
8
Layer 1
10
7.282249
20
2.458181
70
0
0
VERTEX
8
Layer 1
10
7.282249
20
2.436281
70
0
0
VERTEX
8
Layer 1
10
7.324582
20
2.393951
70
0
0
VERTEX
8
Layer 1
10
7.366915
20
2.351621
70
0
0
VERTEX
8
Layer 1
10
7.427134
20
2.351621
70
0
0
VERTEX
8
Layer 1
10
7.487353
20
2.351621
70
0
0
VERTEX
8
Layer 1
10
7.523676
20
2.391767
70
0
0
SEQEND
8
Layer 1
0
POLYLINE
8
Layer 1
62
7
70
0
10
0.000000
20
0.000000
66
1
0
VERTEX
8
Layer 1
10
9.159161
20
2.395767
70
0
0
VERTEX
8
Layer 1
10
9.250272
20
2.439877
70
0
0
VERTEX
8
Layer 1
10
9.330725
20
2.531277
70
0
0
VERTEX
8
Layer 1
10
9.411178
20
2.622677
70
0
0
VERTEX
8
Layer 1
10
9.468749
20
2.740252
70
0
0
VERTEX
8
Layer 1
10
9.526320
20
2.857828
70
0
0
VERTEX
8
Layer 1
10
9.561955
20
2.991038
70
0
0
VERTEX
8
Layer 1
10
9.597590
20
3.124248
70
0
0
VERTEX
8
Layer 1
10
9.597287
20
3.346498
70
0
0
VERTEX
8
Layer 1
10
9.596984
20
3.568748
70
0
0
VERTEX
8
Layer 1
10
9.559890
20
3.704821
70
0
0
VERTEX
8
Layer 1
10
9.522796
20
3.840893
70
0
0
VERTEX
8
Layer 1
10
9.469658
20
3.945756
70
0
0
VERTEX
8
Layer 1
10
9.416520
20
4.050620
70
0
0
VERTEX
8
Layer 1
10
9.322284
20
4.151366
70
0
0
VERTEX
8
Layer 1
10
9.228048
20
4.252112
70
0
0
VERTEX
8
Layer 1
10
9.118680
20
4.299162
70
0
0
VERTEX
8
Layer 1
10
9.009312
20
4.346212
70
0
0
VERTEX
8
Layer 1
10
8.909228
20
4.334362
70
0
0
VERTEX
8
Layer 1
10
8.809144
20
4.322512
70
0
0
VERTEX
8
Layer 1
10
8.726878
20
4.280542
70
0
0
VERTEX
8
Layer 1
10
8.644612
20
4.238572
70
0
0
VERTEX
8
Layer 1
10
8.567423
20
4.153132
70
0
0
VERTEX
8
Layer 1
10
8.490233
20
4.067692
70
0
0
VERTEX
8
Layer 1
10
8.435190
20
3.959069
70
0
0
VERTEX
8
Layer 1
10
8.380147
20
3.850446
70
0
0
VERTEX
8
Layer 1
10
8.339199
20
3.690340
70
0
0
VERTEX
8
Layer 1
10
8.298251
20
3.530234
70
0
0
VERTEX
8
Layer 1
10
8.298251
20
3.335922
70
0
0
VERTEX
8
Layer 1
10
8.298251
20
3.141610
70
0
0
VERTEX
8
Layer 1
10
8.340122
20
2.977897
70
0
0
VERTEX
8
Layer 1
10
8.381993
20
2.814184
70
0
0
VERTEX
8
Layer 1
10
8.437794
20
2.711659
70
0
0
VERTEX
8
Layer 1
10
8.493595
20
2.609134
70
0
0
VERTEX
8
Layer 1
10
8.581131
20
2.519854
70
0
0
VERTEX
8
Layer 1
10
8.668668
20
2.430574
70
0
0
VERTEX
8
Layer 1
10
8.753335
20
2.391594
70
0
0
VERTEX
8
Layer 1
10
8.838002
20
2.352614
70
0
0
VERTEX
8
Layer 1
10
8.953027
20
2.352149
70
0
0
VERTEX
8
Layer 1
10
9.068053
20
2.351684
70
0
0
VERTEX
8
Layer 1
10
9.159161
20
2.395767
70
0
0
SEQEND
8
Layer 1
0
POLYLINE
8
Layer 1
62
7
70
0
10
0.000000
20
0.000000
66
1
0
VERTEX
8
Layer 1
10
8.810843
20
2.682059
70
0
0
VERTEX
8
Layer 1
10
8.741354
20
2.736819
70
0
0
VERTEX
8
Layer 1
10
8.688984
20
2.840167
70
0
0
VERTEX
8
Layer 1
10
8.636614
20
2.943515
70
0
0
VERTEX
8
Layer 1
10
8.605328
20
3.076212
70
0
0
VERTEX
8
Layer 1
10
8.574042
20
3.208909
70
0
0
VERTEX
8
Layer 1
10
8.574042
20
3.346492
70
0
0
VERTEX
8
Layer 1
10
8.574042
20
3.484076
70
0
0
VERTEX
8
Layer 1
10
8.605478
20
3.617417
70
0
0
VERTEX
8
Layer 1
10
8.636914
20
3.750758
70
0
0
VERTEX
8
Layer 1
10
8.669862
20
3.814478
70
0
0
VERTEX
8
Layer 1
10
8.702810
20
3.878198
70
0
0
VERTEX
8
Layer 1
10
8.776873
20
3.960178
70
0
0
VERTEX
8
Layer 1
10
8.850936
20
4.042158
70
0
0
VERTEX
8
Layer 1
10
8.911714
20
4.055508
70
0
0
VERTEX
8
Layer 1
10
8.972492
20
4.068858
70
0
0
VERTEX
8
Layer 1
10
9.037954
20
4.035008
70
0
0
VERTEX
8
Layer 1
10
9.103416
20
4.001158
70
0
0
VERTEX
8
Layer 1
10
9.166726
20
3.913758
70
0
0
VERTEX
8
Layer 1
10
9.230036
20
3.826358
70
0
0
VERTEX
8
Layer 1
10
9.273431
20
3.686973
70
0
0
VERTEX
8
Layer 1
10
9.316826
20
3.547588
70
0
0
VERTEX
8
Layer 1
10
9.317617
20
3.345903
70
0
0
VERTEX
8
Layer 1
10
9.318407
20
3.144219
70
0
0
VERTEX
8
Layer 1
10
9.293016
20
3.049919
70
0
0
VERTEX
8
Layer 1
10
9.267625
20
2.955629
70
0
0
VERTEX
8
Layer 1
10
9.218213
20
2.858119
70
0
0
VERTEX
8
Layer 1
10
9.168801
20
2.760609
70
0
0
VERTEX
8
Layer 1
10
9.092622
20
2.693719
70
0
0
VERTEX
8
Layer 1
10
9.016443
20
2.626829
70
0
0
VERTEX
8
Layer 1
10
8.948388
20
2.627063
70
0
0
VERTEX
8
Layer 1
10
8.880333
20
2.627298
70
0
0
VERTEX
8
Layer 1
10
8.810843
20
2.682059
70
0
0
SEQEND
8
Layer 1
0
POLYLINE
8
Layer 1
62
7
70
0
10
0.000000
20
0.000000
66
1
0
VERTEX
8
Layer 1
10
10.401951
20
2.391363
70
0
0
VERTEX
8
Layer 1
10
10.437881
20
2.431063
70
0
0
VERTEX
8
Layer 1
10
10.712148
20
3.295596
70
0
0
VERTEX
8
Layer 1
10
10.986416
20
4.160129
70
0
0
VERTEX
8
Layer 1
10
10.986416
20
4.208399
70
0
0
VERTEX
8
Layer 1
10
10.986416
20
4.256669
70
0
0
VERTEX
8
Layer 1
10
10.944086
20
4.298999
70
0
0
VERTEX
8
Layer 1
10
10.901756
20
4.341329
70
0
0
VERTEX
8
Layer 1
10
10.436083
20
4.341329
70
0
0
VERTEX
8
Layer 1
10
9.970416
20
4.341329
70
0
0
VERTEX
8
Layer 1
10
9.928083
20
4.298999
70
0
0
VERTEX
8
Layer 1
10
9.885750
20
4.256669
70
0
0
VERTEX
8
Layer 1
10
9.885750
20
4.057098
70
0
0
VERTEX
8
Layer 1
10
9.885750
20
3.857526
70
0
0
VERTEX
8
Layer 1
10
9.917625
20
3.825646
70
0
0
VERTEX
8
Layer 1
10
9.949500
20
3.793776
70
0
0
VERTEX
8
Layer 1
10
9.994252
20
3.779576
70
0
0
VERTEX
8
Layer 1
10
10.039003
20
3.765376
70
0
0
VERTEX
8
Layer 1
10
10.094673
20
3.806796
70
0
0
VERTEX
8
Layer 1
10
10.150333
20
3.848216
70
0
0
VERTEX
8
Layer 1
10
10.156733
20
3.957198
70
0
0
VERTEX
8
Layer 1
10
10.163133
20
4.066180
70
0
0
VERTEX
8
Layer 1
10
10.405444
20
4.066180
70
0
0
VERTEX
8
Layer 1
10
10.647754
20
4.066180
70
0
0
VERTEX
8
Layer 1
10
10.647706
20
4.039720
70
0
0
VERTEX
8
Layer 1
10
10.647658
20
4.013260
70
0
0
VERTEX
8
Layer 1
10
10.404217
20
3.244713
70
0
0
VERTEX
8
Layer 1
10
10.160776
20
2.476166
70
0
0
VERTEX
8
Layer 1
10
10.185186
20
2.429796
70
0
0
VERTEX
8
Layer 1
10
10.209596
20
2.383426
70
0
0
VERTEX
8
Layer 1
10
10.232886
20
2.367876
70
0
0
VERTEX
8
Layer 1
10
10.256176
20
2.352326
70
0
0
VERTEX
8
Layer 1
10
10.311106
20
2.352002
70
0
0
VERTEX
8
Layer 1
10
10.366036
20
2.351678
70
0
0
VERTEX
8
Layer 1
10
10.401951
20
2.391363
70
0
0
SEQEND
8
Layer 1
0
POLYLINE
8
Layer 1
62
7
70
0
10
0.000000
20
0.000000
66
1
0
VERTEX
8
Layer 1
10
15.197341
20
4.628670
70
0
0
VERTEX
8
Layer 1
10
15.309616
20
4.662010
70
0
0
VERTEX
8
Layer 1
10
15.411257
20
4.763651
70
0
0
VERTEX
8
Layer 1
10
15.512898
20
4.865292
70
0
0
VERTEX
8
Layer 1
10
15.546238
20
4.977568
70
0
0
VERTEX
8
Layer 1
10
15.579578
20
5.089843
70
0
0
VERTEX
8
Layer 1
10
15.579578
20
5.795090
70
0
0
VERTEX
8
Layer 1
10
15.579578
20
6.500332
70
0
0
VERTEX
8
Layer 1
10
15.537248
20
6.542662
70
0
0
VERTEX
8
Layer 1
10
15.494918
20
6.584992
70
0
0
VERTEX
8
Layer 1
10
15.438378
20
6.584992
70
0
0
VERTEX
8
Layer 1
10
15.381838
20
6.584992
70
0
0
VERTEX
8
Layer 1
10
15.346488
20
6.552992
70
0
0
VERTEX
8
Layer 1
10
15.311138
20
6.520992
70
0
0
VERTEX
8
Layer 1
10
15.220458
20
6.552992
70
0
0
VERTEX
8
Layer 1
10
15.129778
20
6.584992
70
0
0
VERTEX
8
Layer 1
10
15.000148
20
6.584785
70
0
0
VERTEX
8
Layer 1
10
14.870517
20
6.584578
70
0
0
VERTEX
8
Layer 1
10
14.762207
20
6.534148
70
0
0
VERTEX
8
Layer 1
10
14.653896
20
6.483718
70
0
0
VERTEX
8
Layer 1
10
14.596606
20
6.408608
70
0
0
VERTEX
8
Layer 1
10
14.539316
20
6.333498
70
0
0
VERTEX
8
Layer 1
10
14.500716
20
6.231706
70
0
0
VERTEX
8
Layer 1
10
14.462116
20
6.129913
70
0
0
VERTEX
8
Layer 1
10
14.447776
20
5.992330
70
0
0
VERTEX
8
Layer 1
10
14.433436
20
5.854747
70
0
0
VERTEX
8
Layer 1
10
14.456916
20
5.706580
70
0
0
VERTEX
8
Layer 1
10
14.480396
20
5.558413
70
0
0
VERTEX
8
Layer 1
10
14.533106
20
5.449402
70
0
0
VERTEX
8
Layer 1
10
14.585816
20
5.340390
70
0
0
VERTEX
8
Layer 1
10
14.661526
20
5.282640
70
0
0
VERTEX
8
Layer 1
10
14.737236
20
5.224890
70
0
0
VERTEX
8
Layer 1
10
14.833696
20
5.195860
70
0
0
VERTEX
8
Layer 1
10
14.930156
20
5.166830
70
0
0
VERTEX
8
Layer 1
10
15.027336
20
5.167759
70
0
0
VERTEX
8
Layer 1
10
15.124516
20
5.168688
70
0
0
VERTEX
8
Layer 1
10
15.209186
20
5.199188
70
0
0
VERTEX
8
Layer 1
10
15.293856
20
5.229688
70
0
0
VERTEX
8
Layer 1
10
15.301956
20
5.230006
70
0
0
VERTEX
8
Layer 1
10
15.310056
20
5.230325
70
0
0
VERTEX
8
Layer 1
10
15.298596
20
5.144855
70
0
0
VERTEX
8
Layer 1
10
15.287126
20
5.059385
70
0
0
VERTEX
8
Layer 1
10
15.253176
20
5.007565
70
0
0
VERTEX
8
Layer 1
10
15.219226
20
4.955755
70
0
0
VERTEX
8
Layer 1
10
15.163396
20
4.919175
70
0
0
VERTEX
8
Layer 1
10
15.107566
20
4.882595
70
0
0
VERTEX
8
Layer 1
10
14.994896
20
4.882595
70
0
0
VERTEX
8
Layer 1
10
14.882226
20
4.882595
70
0
0
VERTEX
8
Layer 1
10
14.823476
20
4.925975
70
0
0
VERTEX
8
Layer 1
10
14.764726
20
4.969355
70
0
0
VERTEX
8
Layer 1
10
14.722196
20
5.049865
70
0
0
VERTEX
8
Layer 1
10
14.679666
20
5.130375
70
0
0
VERTEX
8
Layer 1
10
14.629176
20
5.149055
70
0
0
VERTEX
8
Layer 1
10
14.578686
20
5.167735
70
0
0
VERTEX
8
Layer 1
10
14.538856
20
5.155095
70
0
0
VERTEX
8
Layer 1
10
14.499026
20
5.142455
70
0
0
VERTEX
8
Layer 1
10
14.466556
20
5.092895
70
0
0
VERTEX
8
Layer 1
10
14.434086
20
5.043335
70
0
0
VERTEX
8
Layer 1
10
14.456016
20
4.962205
70
0
0
VERTEX
8
Layer 1
10
14.477946
20
4.881075
70
0
0
VERTEX
8
Layer 1
10
14.544016
20
4.801085
70
0
0
VERTEX
8
Layer 1
10
14.610086
20
4.721095
70
0
0
VERTEX
8
Layer 1
10
14.697996
20
4.675905
70
0
0
VERTEX
8
Layer 1
10
14.785906
20
4.630715
70
0
0
VERTEX
8
Layer 1
10
14.849406
20
4.615185
70
0
0
VERTEX
8
Layer 1
10
14.912906
20
4.599655
70
0
0
VERTEX
8
Layer 1
10
14.999026
20
4.597455
70
0
0
VERTEX
8
Layer 1
10
15.085146
20
4.595255
70
0
0
VERTEX
8
Layer 1
10
15.197341
20
4.628670
70
0
0
SEQEND
8
Layer 1
0
POLYLINE
8
Layer 1
62
7
70
0
10
0.000000
20
0.000000
66
1
0
VERTEX
8
Layer 1
10
14.885467
20
5.472827
70
0
0
VERTEX
8
Layer 1
10
14.815767
20
5.504217
70
0
0
VERTEX
8
Layer 1
10
14.772827
20
5.601287
70
0
0
VERTEX
8
Layer 1
10
14.729887
20
5.698357
70
0
0
VERTEX
8
Layer 1
10
14.729887
20
5.884740
70
0
0
VERTEX
8
Layer 1
10
14.729887
20
6.071122
70
0
0
VERTEX
8
Layer 1
10
14.760227
20
6.142852
70
0
0
VERTEX
8
Layer 1
10
14.790567
20
6.214582
70
0
0
VERTEX
8
Layer 1
10
14.838047
20
6.256912
70
0
0
VERTEX
8
Layer 1
10
14.885527
20
6.299242
70
0
0
VERTEX
8
Layer 1
10
15.012041
20
6.299242
70
0
0
VERTEX
8
Layer 1
10
15.138555
20
6.299242
70
0
0
VERTEX
8
Layer 1
10
15.198455
20
6.232202
70
0
0
VERTEX
8
Layer 1
10
15.258355
20
6.165162
70
0
0
VERTEX
8
Layer 1
10
15.283895
20
6.042140
70
0
0
VERTEX
8
Layer 1
10
15.309435
20
5.919117
70
0
0
VERTEX
8
Layer 1
10
15.296685
20
5.797099
70
0
0
VERTEX
8
Layer 1
10
15.283935
20
5.675081
70
0
0
VERTEX
8
Layer 1
10
15.253615
20
5.602511
70
0
0
VERTEX
8
Layer 1
10
15.223295
20
5.529941
70
0
0
VERTEX
8
Layer 1
10
15.169415
20
5.494641
70
0
0
VERTEX
8
Layer 1
10
15.115535
20
5.459341
70
0
0
VERTEX
8
Layer 1
10
15.035355
20
5.450341
70
0
0
VERTEX
8
Layer 1
10
14.955175
20
5.441341
70
0
0
VERTEX
8
Layer 1
10
14.885467
20
5.472827
70
0
0
SEQEND
8
Layer 1
0
POLYLINE
8
Layer 1
62
7
70
0
10
0.000000
20
0.000000
66
1
0
VERTEX
8
Layer 1
10
1.978799
20
4.938704
70
0
0
VERTEX
8
Layer 1
10
2.011749
20
4.985744
70
0
0
VERTEX
8
Layer 1
10
2.011749
20
5.024334
70
0
0
VERTEX
8
Layer 1
10
2.011749
20
5.062924
70
0
0
VERTEX
8
Layer 1
10
1.959794
20
5.114874
70
0
0
VERTEX
8
Layer 1
10
1.907839
20
5.166824
70
0
0
VERTEX
8
Layer 1
10
1.811628
20
5.166824
70
0
0
VERTEX
8
Layer 1
10
1.715416
20
5.166824
70
0
0
VERTEX
8
Layer 1
10
1.715416
20
6.098165
70
0
0
VERTEX
8
Layer 1
10
1.715416
20
7.029499
70
0
0
VERTEX
8
Layer 1
10
1.819737
20
7.029499
70
0
0
VERTEX
8
Layer 1
10
1.924058
20
7.029499
70
0
0
VERTEX
8
Layer 1
10
1.955933
20
7.061369
70
0
0
VERTEX
8
Layer 1
10
1.987808
20
7.093239
70
0
0
VERTEX
8
Layer 1
10
2.002012
20
7.137989
70
0
0
VERTEX
8
Layer 1
10
2.016216
20
7.182739
70
0
0
VERTEX
8
Layer 1
10
1.974724
20
7.238399
70
0
0
VERTEX
8
Layer 1
10
1.933232
20
7.294069
70
0
0
VERTEX
8
Layer 1
10
1.729832
20
7.300069
70
0
0
VERTEX
8
Layer 1
10
1.526431
20
7.306069
70
0
0
VERTEX
8
Layer 1
10
1.483340
20
7.262979
70
0
0
VERTEX
8
Layer 1
10
1.440249
20
7.219889
70
0
0
VERTEX
8
Layer 1
10
1.440249
20
6.102765
70
0
0
VERTEX
8
Layer 1
10
1.440249
20
4.985641
70
0
0
VERTEX
8
Layer 1
10
1.473199
20
4.938601
70
0
0
VERTEX
8
Layer 1
10
1.506149
20
4.891561
70
0
0
VERTEX
8
Layer 1
10
1.725998
20
4.891561
70
0
0
VERTEX
8
Layer 1
10
1.945848
20
4.891561
70
0
0
VERTEX
8
Layer 1
10
1.978799
20
4.938704
70
0
0
SEQEND
8
Layer 1
0
POLYLINE
8
Layer 1
62
7
70
0
10
0.000000
20
0.000000
66
1
0
VERTEX
8
Layer 1
10
19.350874
20
4.926694
70
0
0
VERTEX
8
Layer 1
10
19.389584
20
4.961724
70
0
0
VERTEX
8
Layer 1
10
19.389584
20
6.090861
70
0
0
VERTEX
8
Layer 1
10
19.389584
20
7.219997
70
0
0
VERTEX
8
Layer 1
10
19.347254
20
7.262327
70
0
0
VERTEX
8
Layer 1
10
19.304924
20
7.304657
70
0
0
VERTEX
8
Layer 1
10
19.107121
20
7.304657
70
0
0
VERTEX
8
Layer 1
10
18.909319
20
7.304657
70
0
0
VERTEX
8
Layer 1
10
18.871639
20
7.263027
70
0
0
VERTEX
8
Layer 1
10
18.833959
20
7.221397
70
0
0
VERTEX
8
Layer 1
10
18.833959
20
7.167077
70
0
0
VERTEX
8
Layer 1
10
18.833959
20
7.112757
70
0
0
VERTEX
8
Layer 1
10
18.871639
20
7.071127
70
0
0
VERTEX
8
Layer 1
10
18.909319
20
7.029497
70
0
0
VERTEX
8
Layer 1
10
19.011871
20
7.029497
70
0
0
VERTEX
8
Layer 1
10
19.114424
20
7.029497
70
0
0
VERTEX
8
Layer 1
10
19.114424
20
6.098163
70
0
0
VERTEX
8
Layer 1
10
19.114424
20
5.166830
70
0
0
VERTEX
8
Layer 1
10
19.028364
20
5.166830
70
0
0
VERTEX
8
Layer 1
10
18.942304
20
5.166830
70
0
0
VERTEX
8
Layer 1
10
18.900354
20
5.144380
70
0
0
VERTEX
8
Layer 1
10
18.858394
20
5.121930
70
0
0
VERTEX
8
Layer 1
10
18.838234
20
5.068910
70
0
0
VERTEX
8
Layer 1
10
18.818074
20
5.015890
70
0
0
VERTEX
8
Layer 1
10
18.842414
20
4.969650
70
0
0
VERTEX
8
Layer 1
10
18.866754
20
4.923410
70
0
0
VERTEX
8
Layer 1
10
18.890044
20
4.907860
70
0
0
VERTEX
8
Layer 1
10
18.913334
20
4.892310
70
0
0
VERTEX
8
Layer 1
10
19.112750
20
4.891986
70
0
0
VERTEX
8
Layer 1
10
19.312167
20
4.891662
70
0
0
VERTEX
8
Layer 1
10
19.350874
20
4.926694
70
0
0
SEQEND
8
Layer 1
0
POLYLINE
8
Layer 1
62
7
70
0
10
0.000000
20
0.000000
66
1
0
VERTEX
8
Layer 1
10
3.407213
20
5.222601
70
0
0
VERTEX
8
Layer 1
10
3.451083
20
5.278371
70
0
0
VERTEX
8
Layer 1
10
3.451083
20
5.915760
70
0
0
VERTEX
8
Layer 1
10
3.451083
20
6.553145
70
0
0
VERTEX
8
Layer 1
10
3.904270
20
5.873564
70
0
0
VERTEX
8
Layer 1
10
4.357457
20
5.193983
70
0
0
VERTEX
8
Layer 1
10
4.392834
20
5.180403
70
0
0
VERTEX
8
Layer 1
10
4.428211
20
5.166823
70
0
0
VERTEX
8
Layer 1
10
4.467277
20
5.166823
70
0
0
VERTEX
8
Layer 1
10
4.506343
20
5.166823
70
0
0
VERTEX
8
Layer 1
10
4.550213
20
5.222593
70
0
0
VERTEX
8
Layer 1
10
4.594083
20
5.278363
70
0
0
VERTEX
8
Layer 1
10
4.594083
20
6.155317
70
0
0
VERTEX
8
Layer 1
10
4.594083
20
7.032271
70
0
0
VERTEX
8
Layer 1
10
4.569748
20
7.078501
70
0
0
VERTEX
8
Layer 1
10
4.545413
20
7.124731
70
0
0
VERTEX
8
Layer 1
10
4.522123
20
7.140281
70
0
0
VERTEX
8
Layer 1
10
4.498833
20
7.155831
70
0
0
VERTEX
8
Layer 1
10
4.447583
20
7.156156
70
0
0
VERTEX
8
Layer 1
10
4.396333
20
7.156480
70
0
0
VERTEX
8
Layer 1
10
4.357625
20
7.121450
70
0
0
VERTEX
8
Layer 1
10
4.318917
20
7.086420
70
0
0
VERTEX
8
Layer 1
10
4.318917
20
6.444117
70
0
0
VERTEX
8
Layer 1
10
4.318917
20
5.801814
70
0
0
VERTEX
8
Layer 1
10
4.303041
20
5.802368
70
0
0
VERTEX
8
Layer 1
10
4.287166
20
5.802904
70
0
0
VERTEX
8
Layer 1
10
3.863832
20
6.441793
70
0
0
VERTEX
8
Layer 1
10
3.440499
20
7.080682
70
0
0
VERTEX
8
Layer 1
10
3.403457
20
7.118590
70
0
0
VERTEX
8
Layer 1
10
3.366416
20
7.156499
70
0
0
VERTEX
8
Layer 1
10
3.309874
20
7.156499
70
0
0
VERTEX
8
Layer 1
10
3.253332
20
7.156499
70
0
0
VERTEX
8
Layer 1
10
3.214624
20
7.121469
70
0
0
VERTEX
8
Layer 1
10
3.175916
20
7.086439
70
0
0
VERTEX
8
Layer 1
10
3.175916
20
6.159586
70
0
0
VERTEX
8
Layer 1
10
3.175916
20
5.232733
70
0
0
VERTEX
8
Layer 1
10
3.222959
20
5.199783
70
0
0
VERTEX
8
Layer 1
10
3.270002
20
5.166833
70
0
0
VERTEX
8
Layer 1
10
3.316673
20
5.166833
70
0
0
VERTEX
8
Layer 1
10
3.363344
20
5.166833
70
0
0
VERTEX
8
Layer 1
10
3.407213
20
5.222601
70
0
0
SEQEND
8
Layer 1
0
POLYLINE
8
Layer 1
62
7
70
0
10
0.000000
20
0.000000
66
1
0
VERTEX
8
Layer 1
10
5.102082
20
5.209161
70
0
0
VERTEX
8
Layer 1
10
5.144415
20
5.251491
70
0
0
VERTEX
8
Layer 1
10
5.144415
20
5.875907
70
0
0
VERTEX
8
Layer 1
10
5.144415
20
6.500324
70
0
0
VERTEX
8
Layer 1
10
5.102082
20
6.542654
70
0
0
VERTEX
8
Layer 1
10
5.059749
20
6.584984
70
0
0
VERTEX
8
Layer 1
10
4.997449
20
6.584984
70
0
0
VERTEX
8
Layer 1
10
4.935149
20
6.584984
70
0
0
VERTEX
8
Layer 1
10
4.902199
20
6.537944
70
0
0
VERTEX
8
Layer 1
10
4.869249
20
6.490904
70
0
0
VERTEX
8
Layer 1
10
4.869249
20
5.871197
70
0
0
VERTEX
8
Layer 1
10
4.869249
20
5.251490
70
0
0
VERTEX
8
Layer 1
10
4.911582
20
5.209160
70
0
0
VERTEX
8
Layer 1
10
4.953915
20
5.166830
70
0
0
VERTEX
8
Layer 1
10
5.006832
20
5.166830
70
0
0
VERTEX
8
Layer 1
10
5.059749
20
5.166830
70
0
0
VERTEX
8
Layer 1
10
5.102082
20
5.209161
70
0
0
SEQEND
8
Layer 1
0
POLYLINE
8
Layer 1
62
7
70
0
10
0.000000
20
0.000000
66
1
0
VERTEX
8
Layer 1
10
6.258928
20
5.228761
70
0
0
VERTEX
8
Layer 1
10
6.343604
20
5.276351
70
0
0
VERTEX
8
Layer 1
10
6.424297
20
5.221591
70
0
0
VERTEX
8
Layer 1
10
6.504990
20
5.166831
70
0
0
VERTEX
8
Layer 1
10
6.566498
20
5.166831
70
0
0
VERTEX
8
Layer 1
10
6.628006
20
5.166831
70
0
0
VERTEX
8
Layer 1
10
6.679960
20
5.218781
70
0
0
VERTEX
8
Layer 1
10
6.731914
20
5.270731
70
0
0
VERTEX
8
Layer 1
10
6.731914
20
5.300591
70
0
0
VERTEX
8
Layer 1
10
6.731914
20
5.330451
70
0
0
VERTEX
8
Layer 1
10
6.688044
20
5.386221
70
0
0
VERTEX
8
Layer 1
10
6.644174
20
5.441991
70
0
0
VERTEX
8
Layer 1
10
6.603379
20
5.441991
70
0
0
VERTEX
8
Layer 1
10
6.562582
20
5.441991
70
0
0
VERTEX
8
Layer 1
10
6.562582
20
5.974790
70
0
0
VERTEX
8
Layer 1
10
6.562582
20
6.507582
70
0
0
VERTEX
8
Layer 1
10
6.527551
20
6.546292
70
0
0
VERTEX
8
Layer 1
10
6.492520
20
6.585002
70
0
0
VERTEX
8
Layer 1
10
6.435581
20
6.585002
70
0
0
VERTEX
8
Layer 1
10
6.378642
20
6.585002
70
0
0
VERTEX
8
Layer 1
10
6.341943
20
6.544452
70
0
0
VERTEX
8
Layer 1
10
6.305244
20
6.503902
70
0
0
VERTEX
8
Layer 1
10
6.216954
20
6.543992
70
0
0
VERTEX
8
Layer 1
10
6.128664
20
6.584082
70
0
0
VERTEX
8
Layer 1
10
5.991082
20
6.584082
70
0
0
VERTEX
8
Layer 1
10
5.853499
20
6.584082
70
0
0
VERTEX
8
Layer 1
10
5.758249
20
6.540902
70
0
0
VERTEX
8
Layer 1
10
5.662999
20
6.497722
70
0
0
VERTEX
8
Layer 1
10
5.613279
20
6.451412
70
0
0
VERTEX
8
Layer 1
10
5.563559
20
6.405102
70
0
0
VERTEX
8
Layer 1
10
5.513868
20
6.307492
70
0
0
VERTEX
8
Layer 1
10
5.464177
20
6.209882
70
0
0
VERTEX
8
Layer 1
10
5.439142
20
6.066119
70
0
0
VERTEX
8
Layer 1
10
5.414107
20
5.922356
70
0
0
VERTEX
8
Layer 1
10
5.427527
20
5.777965
70
0
0
VERTEX
8
Layer 1
10
5.440947
20
5.633574
70
0
0
VERTEX
8
Layer 1
10
5.485612
20
5.514197
70
0
0
VERTEX
8
Layer 1
10
5.530277
20
5.394819
70
0
0
VERTEX
8
Layer 1
10
5.609868
20
5.315229
70
0
0
VERTEX
8
Layer 1
10
5.689459
20
5.235639
70
0
0
VERTEX
8
Layer 1
10
5.782063
20
5.201629
70
0
0
VERTEX
8
Layer 1
10
5.874667
20
5.167619
70
0
0
VERTEX
8
Layer 1
10
6.024460
20
5.174419
70
0
0
VERTEX
8
Layer 1
10
6.174254
20
5.181219
70
0
0
VERTEX
8
Layer 1
10
6.258928
20
5.228761
70
0
0
SEQEND
8
Layer 1
0
POLYLINE
8
Layer 1
62
7
70
0
10
0.000000
20
0.000000
66
1
0
VERTEX
8
Layer 1
10
5.864082
20
5.477932
70
0
0
VERTEX
8
Layer 1
10
5.789999
20
5.516082
70
0
0
VERTEX
8
Layer 1
10
5.751033
20
5.595832
70
0
0
VERTEX
8
Layer 1
10
5.712067
20
5.675582
70
0
0
VERTEX
8
Layer 1
10
5.712067
20
5.872361
70
0
0
VERTEX
8
Layer 1
10
5.712067
20
6.069140
70
0
0
VERTEX
8
Layer 1
10
5.742820
20
6.141860
70
0
0
VERTEX
8
Layer 1
10
5.773573
20
6.214580
70
0
0
VERTEX
8
Layer 1
10
5.821050
20
6.256910
70
0
0
VERTEX
8
Layer 1
10
5.868527
20
6.299240
70
0
0
VERTEX
8
Layer 1
10
5.991600
20
6.299240
70
0
0
VERTEX
8
Layer 1
10
6.114672
20
6.299240
70
0
0
VERTEX
8
Layer 1
10
6.168680
20
6.248500
70
0
0
VERTEX
8
Layer 1
10
6.222688
20
6.197760
70
0
0
VERTEX
8
Layer 1
10
6.248484
20
6.121500
70
0
0
VERTEX
8
Layer 1
10
6.274280
20
6.045240
70
0
0
VERTEX
8
Layer 1
10
6.273291
20
5.865323
70
0
0
VERTEX
8
Layer 1
10
6.272301
20
5.685406
70
0
0
VERTEX
8
Layer 1
10
6.239294
20
5.607676
70
0
0
VERTEX
8
Layer 1
10
6.206287
20
5.529946
70
0
0
VERTEX
8
Layer 1
10
6.152409
20
5.494646
70
0
0
VERTEX
8
Layer 1
10
6.098531
20
5.459346
70
0
0
VERTEX
8
Layer 1
10
6.018350
20
5.449546
70
0
0
VERTEX
8
Layer 1
10
5.938168
20
5.439746
70
0
0
VERTEX
8
Layer 1
10
5.864082
20
5.477932
70
0
0
SEQEND
8
Layer 1
0
POLYLINE
8
Layer 1
62
7
70
0
10
0.000000
20
0.000000
66
1
0
VERTEX
8
Layer 1
10
8.936748
20
5.234949
70
0
0
VERTEX
8
Layer 1
10
9.051597
20
5.287529
70
0
0
VERTEX
8
Layer 1
10
9.128583
20
5.355119
70
0
0
VERTEX
8
Layer 1
10
9.205569
20
5.422719
70
0
0
VERTEX
8
Layer 1
10
9.259909
20
5.531765
70
0
0
VERTEX
8
Layer 1
10
9.314249
20
5.640811
70
0
0
VERTEX
8
Layer 1
10
9.314249
20
5.746389
70
0
0
VERTEX
8
Layer 1
10
9.314249
20
5.851967
70
0
0
VERTEX
8
Layer 1
10
9.270055
20
5.943257
70
0
0
VERTEX
8
Layer 1
10
9.225862
20
6.034547
70
0
0
VERTEX
8
Layer 1
10
9.139444
20
6.108517
70
0
0
VERTEX
8
Layer 1
10
9.053026
20
6.182487
70
0
0
VERTEX
8
Layer 1
10
8.934929
20
6.227087
70
0
0
VERTEX
8
Layer 1
10
8.816833
20
6.271687
70
0
0
VERTEX
8
Layer 1
10
8.636916
20
6.300857
70
0
0
VERTEX
8
Layer 1
10
8.457000
20
6.330027
70
0
0
VERTEX
8
Layer 1
10
8.367644
20
6.363787
70
0
0
VERTEX
8
Layer 1
10
8.278288
20
6.397547
70
0
0
VERTEX
8
Layer 1
10
8.224769
20
6.461147
70
0
0
VERTEX
8
Layer 1
10
8.171250
20
6.524747
70
0
0
VERTEX
8
Layer 1
10
8.171250
20
6.586567
70
0
0
VERTEX
8
Layer 1
10
8.171250
20
6.648387
70
0
0
VERTEX
8
Layer 1
10
8.246657
20
6.731857
70
0
0
VERTEX
8
Layer 1
10
8.322064
20
6.815327
70
0
0
VERTEX
8
Layer 1
10
8.429476
20
6.851007
70
0
0
VERTEX
8
Layer 1
10
8.536888
20
6.886687
70
0
0
VERTEX
8
Layer 1
10
8.666900
20
6.876247
70
0
0
VERTEX
8
Layer 1
10
8.796912
20
6.865807
70
0
0
VERTEX
8
Layer 1
10
8.883835
20
6.821467
70
0
0
VERTEX
8
Layer 1
10
8.970758
20
6.777127
70
0
0
VERTEX
8
Layer 1
10
9.038449
20
6.691657
70
0
0
VERTEX
8
Layer 1
10
9.106140
20
6.606187
70
0
0
VERTEX
8
Layer 1
10
9.171486
20
6.606187
70
0
0
VERTEX
8
Layer 1
10
9.236832
20
6.606187
70
0
0
VERTEX
8
Layer 1
10
9.275540
20
6.641217
70
0
0
VERTEX
8
Layer 1
10
9.314248
20
6.676247
70
0
0
VERTEX
8
Layer 1
10
9.314248
20
6.733287
70
0
0
VERTEX
8
Layer 1
10
9.314248
20
6.790327
70
0
0
VERTEX
8
Layer 1
10
9.249878
20
6.879187
70
0
0
VERTEX
8
Layer 1
10
9.185508
20
6.968047
70
0
0
VERTEX
8
Layer 1
10
9.085837
20
7.031377
70
0
0
VERTEX
8
Layer 1
10
8.986166
20
7.094707
70
0
0
VERTEX
8
Layer 1
10
8.871830
20
7.128037
70
0
0
VERTEX
8
Layer 1
10
8.757493
20
7.161367
70
0
0
VERTEX
8
Layer 1
10
8.575497
20
7.152467
70
0
0
VERTEX
8
Layer 1
10
8.393500
20
7.143567
70
0
0
VERTEX
8
Layer 1
10
8.266500
20
7.085337
70
0
0
VERTEX
8
Layer 1
10
8.139500
20
7.027117
70
0
0
VERTEX
8
Layer 1
10
8.068116
20
6.959467
70
0
0
VERTEX
8
Layer 1
10
7.996732
20
6.891817
70
0
0
VERTEX
8
Layer 1
10
7.946614
20
6.785984
70
0
0
VERTEX
8
Layer 1
10
7.896496
20
6.680151
70
0
0
VERTEX
8
Layer 1
10
7.896289
20
6.575708
70
0
0
VERTEX
8
Layer 1
10
7.896082
20
6.471266
70
0
0
VERTEX
8
Layer 1
10
7.940064
20
6.380416
70
0
0
VERTEX
8
Layer 1
10
7.984046
20
6.289556
70
0
0
VERTEX
8
Layer 1
10
8.051189
20
6.232766
70
0
0
VERTEX
8
Layer 1
10
8.118332
20
6.175976
70
0
0
VERTEX
8
Layer 1
10
8.228721
20
6.125226
70
0
0
VERTEX
8
Layer 1
10
8.339109
20
6.074476
70
0
0
VERTEX
8
Layer 1
10
8.503887
20
6.043436
70
0
0
VERTEX
8
Layer 1
10
8.668665
20
6.012396
70
0
0
VERTEX
8
Layer 1
10
8.784461
20
5.978596
70
0
0
VERTEX
8
Layer 1
10
8.900257
20
5.944796
70
0
0
VERTEX
8
Layer 1
10
8.969670
20
5.875386
70
0
0
VERTEX
8
Layer 1
10
9.039083
20
5.805976
70
0
0
VERTEX
8
Layer 1
10
9.039083
20
5.741986
70
0
0
VERTEX
8
Layer 1
10
9.039083
20
5.677996
70
0
0
VERTEX
8
Layer 1
10
8.983504
20
5.611946
70
0
0
VERTEX
8
Layer 1
10
8.927925
20
5.545896
70
0
0
VERTEX
8
Layer 1
10
8.840629
20
5.500606
70
0
0
VERTEX
8
Layer 1
10
8.753333
20
5.455316
70
0
0
VERTEX
8
Layer 1
10
8.605166
20
5.454390
70
0
0
VERTEX
8
Layer 1
10
8.456999
20
5.453463
70
0
0
VERTEX
8
Layer 1
10
8.372637
20
5.482723
70
0
0
VERTEX
8
Layer 1
10
8.288275
20
5.511983
70
0
0
VERTEX
8
Layer 1
10
8.179576
20
5.625113
70
0
0
VERTEX
8
Layer 1
10
8.070877
20
5.738242
70
0
0
VERTEX
8
Layer 1
10
8.039251
20
5.738242
70
0
0
VERTEX
8
Layer 1
10
8.007625
20
5.738242
70
0
0
VERTEX
8
Layer 1
10
7.951854
20
5.694372
70
0
0
VERTEX
8
Layer 1
10
7.896083
20
5.650502
70
0
0
VERTEX
8
Layer 1
10
7.896083
20
5.597642
70
0
0
VERTEX
8
Layer 1
10
7.896083
20
5.544782
70
0
0
VERTEX
8
Layer 1
10
7.958685
20
5.453792
70
0
0
VERTEX
8
Layer 1
10
8.021288
20
5.362802
70
0
0
VERTEX
8
Layer 1
10
8.123424
20
5.297262
70
0
0
VERTEX
8
Layer 1
10
8.225559
20
5.231722
70
0
0
VERTEX
8
Layer 1
10
8.341280
20
5.199272
70
0
0
VERTEX
8
Layer 1
10
8.457000
20
5.166822
70
0
0
VERTEX
8
Layer 1
10
8.639449
20
5.174522
70
0
0
VERTEX
8
Layer 1
10
8.821898
20
5.182222
70
0
0
VERTEX
8
Layer 1
10
8.936748
20
5.234949
70
0
0
SEQEND
8
Layer 1
0
POLYLINE
8
Layer 1
62
7
70
0
10
0.000000
20
0.000000
66
1
0
VERTEX
8
Layer 1
10
10.425499
20
5.225249
70
0
0
VERTEX
8
Layer 1
10
10.510169
20
5.268819
70
0
0
VERTEX
8
Layer 1
10
10.571909
20
5.333809
70
0
0
VERTEX
8
Layer 1
10
10.633649
20
5.398799
70
0
0
VERTEX
8
Layer 1
10
10.633649
20
5.463759
70
0
0
VERTEX
8
Layer 1
10
10.633649
20
5.528719
70
0
0
VERTEX
8
Layer 1
10
10.599649
20
5.562719
70
0
0
VERTEX
8
Layer 1
10
10.565649
20
5.596719
70
0
0
VERTEX
8
Layer 1
10
10.497779
20
5.594819
70
0
0
VERTEX
8
Layer 1
10
10.429909
20
5.592919
70
0
0
VERTEX
8
Layer 1
10
10.372919
20
5.530519
70
0
0
VERTEX
8
Layer 1
10
10.315929
20
5.468119
70
0
0
VERTEX
8
Layer 1
10
10.247359
20
5.453059
70
0
0
VERTEX
8
Layer 1
10
10.178789
20
5.437999
70
0
0
VERTEX
8
Layer 1
10
10.107639
20
5.451349
70
0
0
VERTEX
8
Layer 1
10
10.036489
20
5.464699
70
0
0
VERTEX
8
Layer 1
10
9.982853
20
5.528439
70
0
0
VERTEX
8
Layer 1
10
9.929217
20
5.592179
70
0
0
VERTEX
8
Layer 1
10
9.905164
20
5.681179
70
0
0
VERTEX
8
Layer 1
10
9.881111
20
5.770179
70
0
0
VERTEX
8
Layer 1
10
9.890351
20
5.928929
70
0
0
VERTEX
8
Layer 1
10
9.899591
20
6.087679
70
0
0
VERTEX
8
Layer 1
10
9.935354
20
6.162689
70
0
0
VERTEX
8
Layer 1
10
9.971117
20
6.237699
70
0
0
VERTEX
8
Layer 1
10
10.032249
20
6.273809
70
0
0
VERTEX
8
Layer 1
10
10.093379
20
6.309919
70
0
0
VERTEX
8
Layer 1
10
10.174779
20
6.309840
70
0
0
VERTEX
8
Layer 1
10
10.256179
20
6.309761
70
0
0
VERTEX
8
Layer 1
10
10.324969
20
6.267821
70
0
0
VERTEX
8
Layer 1
10
10.393759
20
6.225881
70
0
0
VERTEX
8
Layer 1
10
10.393759
20
6.206971
70
0
0
VERTEX
8
Layer 1
10
10.393759
20
6.188061
70
0
0
VERTEX
8
Layer 1
10
10.457139
20
6.161811
70
0
0
VERTEX
8
Layer 1
10
10.520509
20
6.135561
70
0
0
VERTEX
8
Layer 1
10
10.573219
20
6.170091
70
0
0
VERTEX
8
Layer 1
10
10.625919
20
6.204621
70
0
0
VERTEX
8
Layer 1
10
10.638809
20
6.255961
70
0
0
VERTEX
8
Layer 1
10
10.651699
20
6.307301
70
0
0
VERTEX
8
Layer 1
10
10.613129
20
6.372591
70
0
0
VERTEX
8
Layer 1
10
10.574559
20
6.437881
70
0
0
VERTEX
8
Layer 1
10
10.498189
20
6.490801
70
0
0
VERTEX
8
Layer 1
10
10.421819
20
6.543721
70
0
0
VERTEX
8
Layer 1
10
10.349719
20
6.564401
70
0
0
VERTEX
8
Layer 1
10
10.277619
20
6.585081
70
0
0
VERTEX
8
Layer 1
10
10.169015
20
6.585081
70
0
0
VERTEX
8
Layer 1
10
10.060412
20
6.585081
70
0
0
VERTEX
8
Layer 1
10
9.967792
20
6.552421
70
0
0
VERTEX
8
Layer 1
10
9.875172
20
6.519761
70
0
0
VERTEX
8
Layer 1
10
9.797105
20
6.443571
70
0
0
VERTEX
8
Layer 1
10
9.719038
20
6.367381
70
0
0
VERTEX
8
Layer 1
10
9.672201
20
6.259275
70
0
0
VERTEX
8
Layer 1
10
9.625364
20
6.151168
70
0
0
VERTEX
8
Layer 1
10
9.615099
20
5.943815
70
0
0
VERTEX
8
Layer 1
10
9.604834
20
5.736463
70
0
0
VERTEX
8
Layer 1
10
9.641841
20
5.599747
70
0
0
VERTEX
8
Layer 1
10
9.678848
20
5.463031
70
0
0
VERTEX
8
Layer 1
10
9.739548
20
5.379241
70
0
0
VERTEX
8
Layer 1
10
9.800248
20
5.295451
70
0
0
VERTEX
8
Layer 1
10
9.853777
20
5.260381
70
0
0
VERTEX
8
Layer 1
10
9.907306
20
5.225311
70
0
0
VERTEX
8
Layer 1
10
9.986489
20
5.195751
70
0
0
VERTEX
8
Layer 1
10
10.065672
20
5.166191
70
0
0
VERTEX
8
Layer 1
10
10.203255
20
5.173991
70
0
0
VERTEX
8
Layer 1
10
10.340839
20
5.181791
70
0
0
VERTEX
8
Layer 1
10
10.425499
20
5.225249
70
0
0
SEQEND
8
Layer 1
0
POLYLINE
8
Layer 1
62
7
70
0
10
0.000000
20
0.000000
66
1
0
VERTEX
8
Layer 1
10
11.158696
20
5.207289
70
0
0
VERTEX
8
Layer 1
10
11.208666
20
5.247719
70
0
0
VERTEX
8
Layer 1
10
11.219246
20
5.688829
70
0
0
VERTEX
8
Layer 1
10
11.229826
20
6.129939
70
0
0
VERTEX
8
Layer 1
10
11.257636
20
6.178699
70
0
0
VERTEX
8
Layer 1
10
11.285446
20
6.227459
70
0
0
VERTEX
8
Layer 1
10
11.352886
20
6.268579
70
0
0
VERTEX
8
Layer 1
10
11.420326
20
6.309699
70
0
0
VERTEX
8
Layer 1
10
11.496566
20
6.309778
70
0
0
VERTEX
8
Layer 1
10
11.572816
20
6.309857
70
0
0
VERTEX
8
Layer 1
10
11.644736
20
6.261807
70
0
0
VERTEX
8
Layer 1
10
11.716656
20
6.213757
70
0
0
VERTEX
8
Layer 1
10
11.753666
20
6.140097
70
0
0
VERTEX
8
Layer 1
10
11.790676
20
6.066437
70
0
0
VERTEX
8
Layer 1
10
11.790709
20
5.658979
70
0
0
VERTEX
8
Layer 1
10
11.790742
20
5.251521
70
0
0
VERTEX
8
Layer 1
10
11.833072
20
5.209191
70
0
0
VERTEX
8
Layer 1
10
11.875402
20
5.166861
70
0
0
VERTEX
8
Layer 1
10
11.928322
20
5.166861
70
0
0
VERTEX
8
Layer 1
10
11.981242
20
5.166861
70
0
0
VERTEX
8
Layer 1
10
12.023572
20
5.209191
70
0
0
VERTEX
8
Layer 1
10
12.065902
20
5.251521
70
0
0
VERTEX
8
Layer 1
10
12.065902
20
5.681667
70
0
0
VERTEX
8
Layer 1
10
12.065902
20
6.111813
70
0
0
VERTEX
8
Layer 1
10
12.030612
20
6.215380
70
0
0
VERTEX
8
Layer 1
10
11.995322
20
6.318948
70
0
0
VERTEX
8
Layer 1
10
11.897572
20
6.416698
70
0
0
VERTEX
8
Layer 1
10
11.799822
20
6.514448
70
0
0
VERTEX
8
Layer 1
10
11.696255
20
6.549738
70
0
0
VERTEX
8
Layer 1
10
11.592687
20
6.585028
70
0
0
VERTEX
8
Layer 1
10
11.493287
20
6.585028
70
0
0
VERTEX
8
Layer 1
10
11.393887
20
6.585028
70
0
0
VERTEX
8
Layer 1
10
11.308207
20
6.554798
70
0
0
VERTEX
8
Layer 1
10
11.222527
20
6.524568
70
0
0
VERTEX
8
Layer 1
10
11.215627
20
6.796059
70
0
0
VERTEX
8
Layer 1
10
11.208727
20
7.067550
70
0
0
VERTEX
8
Layer 1
10
11.168407
20
7.112040
70
0
0
VERTEX
8
Layer 1
10
11.128087
20
7.156530
70
0
0
VERTEX
8
Layer 1
10
11.073157
20
7.156206
70
0
0
VERTEX
8
Layer 1
10
11.018227
20
7.155881
70
0
0
VERTEX
8
Layer 1
10
10.994937
20
7.140331
70
0
0
VERTEX
8
Layer 1
10
10.971647
20
7.124781
70
0
0
VERTEX
8
Layer 1
10
10.947307
20
7.078551
70
0
0
VERTEX
8
Layer 1
10
10.922977
20
7.032321
70
0
0
VERTEX
8
Layer 1
10
10.922977
20
6.155367
70
0
0
VERTEX
8
Layer 1
10
10.922977
20
5.278413
70
0
0
VERTEX
8
Layer 1
10
10.966847
20
5.222643
70
0
0
VERTEX
8
Layer 1
10
11.010717
20
5.166873
70
0
0
VERTEX
8
Layer 1
10
11.059757
20
5.166873
70
0
0
VERTEX
8
Layer 1
10
11.108787
20
5.166873
70
0
0
VERTEX
8
Layer 1
10
11.158696
20
5.207289
70
0
0
SEQEND
8
Layer 1
0
POLYLINE
8
Layer 1
62
7
70
0
10
0.000000
20
0.000000
66
1
0
VERTEX
8
Layer 1
10
12.700916
20
5.209189
70
0
0
VERTEX
8
Layer 1
10
12.743246
20
5.251519
70
0
0
VERTEX
8
Layer 1
10
12.743246
20
5.308059
70
0
0
VERTEX
8
Layer 1
10
12.743246
20
5.364599
70
0
0
VERTEX
8
Layer 1
10
12.708216
20
5.403309
70
0
0
VERTEX
8
Layer 1
10
12.673186
20
5.442019
70
0
0
VERTEX
8
Layer 1
10
12.644716
20
5.442019
70
0
0
VERTEX
8
Layer 1
10
12.616246
20
5.442019
70
0
0
VERTEX
8
Layer 1
10
12.616246
20
6.260540
70
0
0
VERTEX
8
Layer 1
10
12.616246
20
7.079082
70
0
0
VERTEX
8
Layer 1
10
12.581216
20
7.117792
70
0
0
VERTEX
8
Layer 1
10
12.546186
20
7.156502
70
0
0
VERTEX
8
Layer 1
10
12.485966
20
7.156502
70
0
0
VERTEX
8
Layer 1
10
12.425746
20
7.156502
70
0
0
VERTEX
8
Layer 1
10
12.383416
20
7.114172
70
0
0
VERTEX
8
Layer 1
10
12.341086
20
7.071842
70
0
0
VERTEX
8
Layer 1
10
12.341086
20
6.224124
70
0
0
VERTEX
8
Layer 1
10
12.341086
20
5.376406
70
0
0
VERTEX
8
Layer 1
10
12.373866
20
5.313026
70
0
0
VERTEX
8
Layer 1
10
12.406646
20
5.249636
70
0
0
VERTEX
8
Layer 1
10
12.474406
20
5.208316
70
0
0
VERTEX
8
Layer 1
10
12.542166
20
5.166996
70
0
0
VERTEX
8
Layer 1
10
12.600376
20
5.166917
70
0
0
VERTEX
8
Layer 1
10
12.658586
20
5.166838
70
0
0
VERTEX
8
Layer 1
10
12.700916
20
5.209189
70
0
0
SEQEND
8
Layer 1
0
POLYLINE
8
Layer 1
62
7
70
0
10
0.000000
20
0.000000
66
1
0
VERTEX
8
Layer 1
10
13.835082
20
5.215189
70
0
0
VERTEX
8
Layer 1
10
13.899992
20
5.248759
70
0
0
VERTEX
8
Layer 1
10
13.967202
20
5.311539
70
0
0
VERTEX
8
Layer 1
10
14.034412
20
5.374319
70
0
0
VERTEX
8
Layer 1
10
14.034412
20
5.449299
70
0
0
VERTEX
8
Layer 1
10
14.034412
20
5.524269
70
0
0
VERTEX
8
Layer 1
10
13.987372
20
5.557219
70
0
0
VERTEX
8
Layer 1
10
13.940332
20
5.590169
70
0
0
VERTEX
8
Layer 1
10
13.900212
20
5.590169
70
0
0
VERTEX
8
Layer 1
10
13.860092
20
5.590169
70
0
0
VERTEX
8
Layer 1
10
13.788962
20
5.527709
70
0
0
VERTEX
8
Layer 1
10
13.717832
20
5.465249
70
0
0
VERTEX
8
Layer 1
10
13.642382
20
5.451099
70
0
0
VERTEX
8
Layer 1
10
13.566932
20
5.436949
70
0
0
VERTEX
8
Layer 1
10
13.489332
20
5.466489
70
0
0
VERTEX
8
Layer 1
10
13.411732
20
5.496019
70
0
0
VERTEX
8
Layer 1
10
13.375292
20
5.558969
70
0
0
VERTEX
8
Layer 1
10
13.338862
20
5.621919
70
0
0
VERTEX
8
Layer 1
10
13.324512
20
5.680129
70
0
0
VERTEX
8
Layer 1
10
13.310162
20
5.738339
70
0
0
VERTEX
8
Layer 1
10
13.691920
20
5.738339
70
0
0
VERTEX
8
Layer 1
10
14.073679
20
5.738339
70
0
0
VERTEX
8
Layer 1
10
14.119449
20
5.796529
70
0
0
VERTEX
8
Layer 1
10
14.165219
20
5.854719
70
0
0
VERTEX
8
Layer 1
10
14.150559
20
5.992322
70
0
0
VERTEX
8
Layer 1
10
14.135899
20
6.129925
70
0
0
VERTEX
8
Layer 1
10
14.097299
20
6.231718
70
0
0
VERTEX
8
Layer 1
10
14.058699
20
6.333510
70
0
0
VERTEX
8
Layer 1
10
14.001409
20
6.408620
70
0
0
VERTEX
8
Layer 1
10
13.944119
20
6.483730
70
0
0
VERTEX
8
Layer 1
10
13.835809
20
6.534160
70
0
0
VERTEX
8
Layer 1
10
13.727498
20
6.584590
70
0
0
VERTEX
8
Layer 1
10
13.588779
20
6.584797
70
0
0
VERTEX
8
Layer 1
10
13.450060
20
6.585004
70
0
0
VERTEX
8
Layer 1
10
13.339479
20
6.529894
70
0
0
VERTEX
8
Layer 1
10
13.228898
20
6.474794
70
0
0
VERTEX
8
Layer 1
10
13.177228
20
6.407054
70
0
0
VERTEX
8
Layer 1
10
13.125558
20
6.339314
70
0
0
VERTEX
8
Layer 1
10
13.093178
20
6.261834
70
0
0
VERTEX
8
Layer 1
10
13.060808
20
6.184354
70
0
0
VERTEX
8
Layer 1
10
13.039918
20
6.037084
70
0
0
VERTEX
8
Layer 1
10
13.019028
20
5.889815
70
0
0
VERTEX
8
Layer 1
10
13.039208
20
5.730613
70
0
0
VERTEX
8
Layer 1
10
13.059388
20
5.571411
70
0
0
VERTEX
8
Layer 1
10
13.105798
20
5.472671
70
0
0
VERTEX
8
Layer 1
10
13.152208
20
5.373931
70
0
0
VERTEX
8
Layer 1
10
13.226578
20
5.301701
70
0
0
VERTEX
8
Layer 1
10
13.300948
20
5.229471
70
0
0
VERTEX
8
Layer 1
10
13.397788
20
5.198361
70
0
0
VERTEX
8
Layer 1
10
13.494628
20
5.167251
70
0
0
VERTEX
8
Layer 1
10
13.632380
20
5.174451
70
0
0
VERTEX
8
Layer 1
10
13.770132
20
5.181651
70
0
0
VERTEX
8
Layer 1
10
13.835082
20
5.215189
70
0
0
SEQEND
8
Layer 1
0
POLYLINE
8
Layer 1
62
7
70
0
10
0.000000
20
0.000000
66
1
0
VERTEX
8
Layer 1
10
13.315214
20
6.039966
70
0
0
VERTEX
8
Layer 1
10
13.315679
20
6.066426
70
0
0
VERTEX
8
Layer 1
10
13.355889
20
6.154976
70
0
0
VERTEX
8
Layer 1
10
13.396099
20
6.243526
70
0
0
VERTEX
8
Layer 1
10
13.460209
20
6.276676
70
0
0
VERTEX
8
Layer 1
10
13.524319
20
6.309826
70
0
0
VERTEX
8
Layer 1
10
13.594159
20
6.309747
70
0
0
VERTEX
8
Layer 1
10
13.663999
20
6.309668
70
0
0
VERTEX
8
Layer 1
10
13.733319
20
6.267408
70
0
0
VERTEX
8
Layer 1
10
13.802639
20
6.225148
70
0
0
VERTEX
8
Layer 1
10
13.823109
20
6.171308
70
0
0
VERTEX
8
Layer 1
10
13.843579
20
6.117468
70
0
0
VERTEX
8
Layer 1
10
13.856629
20
6.065488
70
0
0
VERTEX
8
Layer 1
10
13.869679
20
6.013508
70
0
0
VERTEX
8
Layer 1
10
13.592218
20
6.013508
70
0
0
VERTEX
8
Layer 1
10
13.314756
20
6.013508
70
0
0
VERTEX
8
Layer 1
10
13.315214
20
6.039966
70
0
0
SEQEND
8
Layer 1
0
POLYLINE
8
Layer 1
62
7
70
0
10
0.000000
20
0.000000
66
1
0
VERTEX
8
Layer 1
10
16.602965
20
5.192720
70
0
0
VERTEX
8
Layer 1
10
16.689345
20
5.218600
70
0
0
VERTEX
8
Layer 1
10
16.780045
20
5.305510
70
0
0
VERTEX
8
Layer 1
10
16.870745
20
5.392420
70
0
0
VERTEX
8
Layer 1
10
16.870745
20
5.448960
70
0
0
VERTEX
8
Layer 1
10
16.870745
20
5.505500
70
0
0
VERTEX
8
Layer 1
10
16.828415
20
5.547830
70
0
0
VERTEX
8
Layer 1
10
16.786085
20
5.590160
70
0
0
VERTEX
8
Layer 1
10
16.734475
20
5.590160
70
0
0
VERTEX
8
Layer 1
10
16.682865
20
5.590160
70
0
0
VERTEX
8
Layer 1
10
16.613445
20
5.526750
70
0
0
VERTEX
8
Layer 1
10
16.544025
20
5.463340
70
0
0
VERTEX
8
Layer 1
10
16.473645
20
5.450140
70
0
0
VERTEX
8
Layer 1
10
16.403265
20
5.436940
70
0
0
VERTEX
8
Layer 1
10
16.327075
20
5.465940
70
0
0
VERTEX
8
Layer 1
10
16.250885
20
5.494940
70
0
0
VERTEX
8
Layer 1
10
16.211815
20
5.547840
70
0
0
VERTEX
8
Layer 1
10
16.172745
20
5.600740
70
0
0
VERTEX
8
Layer 1
10
16.159275
20
5.669530
70
0
0
VERTEX
8
Layer 1
10
16.145805
20
5.738320
70
0
0
VERTEX
8
Layer 1
10
16.514158
20
5.738320
70
0
0
VERTEX
8
Layer 1
10
16.882511
20
5.738320
70
0
0
VERTEX
8
Layer 1
10
16.932051
20
5.773020
70
0
0
VERTEX
8
Layer 1
10
16.981591
20
5.807720
70
0
0
VERTEX
8
Layer 1
10
16.971991
20
5.979394
70
0
0
VERTEX
8
Layer 1
10
16.962391
20
6.151068
70
0
0
VERTEX
8
Layer 1
10
16.914141
20
6.261707
70
0
0
VERTEX
8
Layer 1
10
16.865891
20
6.372346
70
0
0
VERTEX
8
Layer 1
10
16.775251
20
6.455896
70
0
0
VERTEX
8
Layer 1
10
16.684611
20
6.539446
70
0
0
VERTEX
8
Layer 1
10
16.603021
20
6.562106
70
0
0
VERTEX
8
Layer 1
10
16.521431
20
6.584766
70
0
0
VERTEX
8
Layer 1
10
16.418054
20
6.584884
70
0
0
VERTEX
8
Layer 1
10
16.314676
20
6.585002
70
0
0
VERTEX
8
Layer 1
10
16.227556
20
6.559132
70
0
0
VERTEX
8
Layer 1
10
16.140436
20
6.533262
70
0
0
VERTEX
8
Layer 1
10
16.045186
20
6.437422
70
0
0
VERTEX
8
Layer 1
10
15.949936
20
6.341582
70
0
0
VERTEX
8
Layer 1
10
15.911396
20
6.232195
70
0
0
VERTEX
8
Layer 1
10
15.872856
20
6.122808
70
0
0
VERTEX
8
Layer 1
10
15.860806
20
5.963426
70
0
0
VERTEX
8
Layer 1
10
15.848756
20
5.804044
70
0
0
VERTEX
8
Layer 1
10
15.874756
20
5.670646
70
0
0
VERTEX
8
Layer 1
10
15.900756
20
5.537249
70
0
0
VERTEX
8
Layer 1
10
15.956556
20
5.434162
70
0
0
VERTEX
8
Layer 1
10
16.012356
20
5.331075
70
0
0
VERTEX
8
Layer 1
10
16.081646
20
5.278225
70
0
0
VERTEX
8
Layer 1
10
16.150936
20
5.225375
70
0
0
VERTEX
8
Layer 1
10
16.230356
20
5.197035
70
0
0
VERTEX
8
Layer 1
10
16.309776
20
5.168695
70
0
0
VERTEX
8
Layer 1
10
16.413153
20
5.167766
70
0
0
VERTEX
8
Layer 1
10
16.516531
20
5.166837
70
0
0
VERTEX
8
Layer 1
10
16.602965
20
5.192720
70
0
0
SEQEND
8
Layer 1
0
POLYLINE
8
Layer 1
62
7
70
1
10
0.000000
20
0.000000
66
1
0
VERTEX
8
Layer 1
10
16.151083
20
6.045937
70
0
0
VERTEX
8
Layer 1
10
16.151083
20
6.078367
70
0
0
VERTEX
8
Layer 1
10
16.179913
20
6.146477
70
0
0
VERTEX
8
Layer 1
10
16.208743
20
6.214587
70
0
0
VERTEX
8
Layer 1
10
16.253143
20
6.254127
70
0
0
VERTEX
8
Layer 1
10
16.297543
20
6.293677
70
0
0
VERTEX
8
Layer 1
10
16.390143
20
6.304117
70
0
0
VERTEX
8
Layer 1
10
16.482743
20
6.314557
70
0
0
VERTEX
8
Layer 1
10
16.551413
20
6.279047
70
0
0
VERTEX
8
Layer 1
10
16.620083
20
6.243537
70
0
0
VERTEX
8
Layer 1
10
16.650163
20
6.171537
70
0
0
VERTEX
8
Layer 1
10
16.680243
20
6.099537
70
0
0
VERTEX
8
Layer 1
10
16.680243
20
6.056527
70
0
0
VERTEX
8
Layer 1
10
16.680243
20
6.013517
70
0
0
VERTEX
8
Layer 1
10
16.415660
20
6.013517
70
0
0
VERTEX
8
Layer 1
10
16.151077
20
6.013517
70
0
0
VERTEX
8
Layer 1
10
16.151083
20
6.045937
70
0
0
SEQEND
8
Layer 1
0
POLYLINE
8
Layer 1
62
7
70
0
10
0.000000
20
0.000000
66
1
0
VERTEX
8
Layer 1
10
17.639075
20
5.234284
70
0
0
VERTEX
8
Layer 1
10
17.681335
20
5.291144
70
0
0
VERTEX
8
Layer 1
10
17.654765
20
5.355284
70
0
0
VERTEX
8
Layer 1
10
17.628195
20
5.419424
70
0
0
VERTEX
8
Layer 1
10
17.588135
20
5.432134
70
0
0
VERTEX
8
Layer 1
10
17.548075
20
5.444844
70
0
0
VERTEX
8
Layer 1
10
17.548075
20
6.244897
70
0
0
VERTEX
8
Layer 1
10
17.548075
20
7.044949
70
0
0
VERTEX
8
Layer 1
10
17.504205
20
7.100719
70
0
0
VERTEX
8
Layer 1
10
17.460335
20
7.156489
70
0
0
VERTEX
8
Layer 1
10
17.399905
20
7.156489
70
0
0
VERTEX
8
Layer 1
10
17.339475
20
7.156489
70
0
0
VERTEX
8
Layer 1
10
17.294715
20
7.099589
70
0
0
VERTEX
8
Layer 1
10
17.249955
20
7.042689
70
0
0
VERTEX
8
Layer 1
10
17.256155
20
6.194715
70
0
0
VERTEX
8
Layer 1
10
17.262355
20
5.346742
70
0
0
VERTEX
8
Layer 1
10
17.300425
20
5.290682
70
0
0
VERTEX
8
Layer 1
10
17.338495
20
5.234622
70
0
0
VERTEX
8
Layer 1
10
17.406255
20
5.200692
70
0
0
VERTEX
8
Layer 1
10
17.474015
20
5.166762
70
0
0
VERTEX
8
Layer 1
10
17.535425
20
5.172062
70
0
0
VERTEX
8
Layer 1
10
17.596835
20
5.177362
70
0
0
VERTEX
8
Layer 1
10
17.639075
20
5.234284
70
0
0
SEQEND
8
Layer 1
0
POLYLINE
8
Layer 1
62
7
70
0
10
0.000000
20
0.000000
66
1
0
VERTEX
8
Layer 1
10
5.102082
20
6.923674
70
0
0
VERTEX
8
Layer 1
10
5.144415
20
6.966004
70
0
0
VERTEX
8
Layer 1
10
5.144415
20
7.018924
70
0
0
VERTEX
8
Layer 1
10
5.144415
20
7.071844
70
0
0
VERTEX
8
Layer 1
10
5.102082
20
7.114174
70
0
0
VERTEX
8
Layer 1
10
5.059749
20
7.156504
70
0
0
VERTEX
8
Layer 1
10
5.006832
20
7.156504
70
0
0
VERTEX
8
Layer 1
10
4.953915
20
7.156504
70
0
0
VERTEX
8
Layer 1
10
4.911582
20
7.114174
70
0
0
VERTEX
8
Layer 1
10
4.869249
20
7.071844
70
0
0
VERTEX
8
Layer 1
10
4.869249
20
7.018924
70
0
0
VERTEX
8
Layer 1
10
4.869249
20
6.966004
70
0
0
VERTEX
8
Layer 1
10
4.911582
20
6.923674
70
0
0
VERTEX
8
Layer 1
10
4.953915
20
6.881344
70
0
0
VERTEX
8
Layer 1
10
5.006832
20
6.881344
70
0
0
VERTEX
8
Layer 1
10
5.059749
20
6.881344
70
0
0
VERTEX
8
Layer 1
10
5.102082
20
6.923674
70
0
0
SEQEND
8
Layer 1
0
POLYLINE
8
Layer 1
62
7
70
0
10
0.000000
20
0.000000
66
1
0
VERTEX
8
Layer 1
10
14.807228
20
8.265140
70
0
0
VERTEX
8
Layer 1
10
14.922160
20
8.317760
70
0
0
VERTEX
8
Layer 1
10
15.016750
20
8.415080
70
0
0
VERTEX
8
Layer 1
10
15.111340
20
8.512400
70
0
0
VERTEX
8
Layer 1
10
15.160260
20
8.633494
70
0
0
VERTEX
8
Layer 1
10
15.209180
20
8.754588
70
0
0
VERTEX
8
Layer 1
10
15.209180
20
9.671868
70
0
0
VERTEX
8
Layer 1
10
15.209180
20
10.589147
70
0
0
VERTEX
8
Layer 1
10
15.149790
20
10.640247
70
0
0
VERTEX
8
Layer 1
10
15.090400
20
10.691347
70
0
0
VERTEX
8
Layer 1
10
15.039840
20
10.691347
70
0
0
VERTEX
8
Layer 1
10
14.989280
20
10.691347
70
0
0
VERTEX
8
Layer 1
10
14.932430
20
10.642447
70
0
0
VERTEX
8
Layer 1
10
14.875580
20
10.593547
70
0
0
VERTEX
8
Layer 1
10
14.788370
20
10.637157
70
0
0
VERTEX
8
Layer 1
10
14.701160
20
10.680767
70
0
0
VERTEX
8
Layer 1
10
14.500077
20
10.679267
70
0
0
VERTEX
8
Layer 1
10
14.298993
20
10.677767
70
0
0
VERTEX
8
Layer 1
10
14.219143
20
10.641787
70
0
0
VERTEX
8
Layer 1
10
14.139293
20
10.605807
70
0
0
VERTEX
8
Layer 1
10
14.053923
20
10.528687
70
0
0
VERTEX
8
Layer 1
10
13.968553
20
10.451567
70
0
0
VERTEX
8
Layer 1
10
13.917913
20
10.365127
70
0
0
VERTEX
8
Layer 1
10
13.867263
20
10.278687
70
0
0
VERTEX
8
Layer 1
10
13.833653
20
10.151687
70
0
0
VERTEX
8
Layer 1
10
13.800043
20
10.024687
70
0
0
VERTEX
8
Layer 1
10
13.800043
20
9.802437
70
0
0
VERTEX
8
Layer 1
10
13.800043
20
9.580187
70
0
0
VERTEX
8
Layer 1
10
13.833253
20
9.454772
70
0
0
VERTEX
8
Layer 1
10
13.866463
20
9.329356
70
0
0
VERTEX
8
Layer 1
10
13.923533
20
9.224494
70
0
0
VERTEX
8
Layer 1
10
13.980603
20
9.119632
70
0
0
VERTEX
8
Layer 1
10
14.074223
20
9.048152
70
0
0
VERTEX
8
Layer 1
10
14.167843
20
8.976672
70
0
0
VERTEX
8
Layer 1
10
14.274295
20
8.945062
70
0
0
VERTEX
8
Layer 1
10
14.380746
20
8.913452
70
0
0
VERTEX
8
Layer 1
10
14.509196
20
8.914143
70
0
0
VERTEX
8
Layer 1
10
14.637646
20
8.914834
70
0
0
VERTEX
8
Layer 1
10
14.751190
20
8.954044
70
0
0
VERTEX
8
Layer 1
10
14.864735
20
8.993254
70
0
0
VERTEX
8
Layer 1
10
14.855235
20
8.878393
70
0
0
VERTEX
8
Layer 1
10
14.845735
20
8.763532
70
0
0
VERTEX
8
Layer 1
10
14.803905
20
8.707512
70
0
0
VERTEX
8
Layer 1
10
14.762075
20
8.651492
70
0
0
VERTEX
8
Layer 1
10
14.704945
20
8.608842
70
0
0
VERTEX
8
Layer 1
10
14.647815
20
8.566192
70
0
0
VERTEX
8
Layer 1
10
14.515752
20
8.558592
70
0
0
VERTEX
8
Layer 1
10
14.383688
20
8.550992
70
0
0
VERTEX
8
Layer 1
10
14.288438
20
8.599972
70
0
0
VERTEX
8
Layer 1
10
14.193188
20
8.648952
70
0
0
VERTEX
8
Layer 1
10
14.150858
20
8.736082
70
0
0
VERTEX
8
Layer 1
10
14.108528
20
8.823212
70
0
0
VERTEX
8
Layer 1
10
14.081428
20
8.855452
70
0
0
VERTEX
8
Layer 1
10
14.054318
20
8.887692
70
0
0
VERTEX
8
Layer 1
10
14.003838
20
8.897392
70
0
0
VERTEX
8
Layer 1
10
13.953358
20
8.907092
70
0
0
VERTEX
8
Layer 1
10
13.890918
20
8.880832
70
0
0
VERTEX
8
Layer 1
10
13.828478
20
8.854572
70
0
0
VERTEX
8
Layer 1
10
13.807478
20
8.794142
70
0
0
VERTEX
8
Layer 1
10
13.786478
20
8.733712
70
0
0
VERTEX
8
Layer 1
10
13.814878
20
8.636542
70
0
0
VERTEX
8
Layer 1
10
13.843278
20
8.539372
70
0
0
VERTEX
8
Layer 1
10
13.930868
20
8.439872
70
0
0
VERTEX
8
Layer 1
10
14.018458
20
8.340372
70
0
0
VERTEX
8
Layer 1
10
14.105838
20
8.295202
70
0
0
VERTEX
8
Layer 1
10
14.193218
20
8.250032
70
0
0
VERTEX
8
Layer 1
10
14.299051
20
8.222472
70
0
0
VERTEX
8
Layer 1
10
14.404885
20
8.194912
70
0
0
VERTEX
8
Layer 1
10
14.548616
20
8.203912
70
0
0
VERTEX
8
Layer 1
10
14.692347
20
8.212912
70
0
0
VERTEX
8
Layer 1
10
14.807228
20
8.265140
70
0
0
SEQEND
8
Layer 1
0
POLYLINE
8
Layer 1
62
7
70
0
10
0.000000
20
0.000000
66
1
0
VERTEX
8
Layer 1
10
14.398158
20
9.272951
70
0
0
VERTEX
8
Layer 1
10
14.327988
20
9.289561
70
0
0
VERTEX
8
Layer 1
10
14.276988
20
9.337471
70
0
0
VERTEX
8
Layer 1
10
14.225988
20
9.385381
70
0
0
VERTEX
8
Layer 1
10
14.188418
20
9.482731
70
0
0
VERTEX
8
Layer 1
10
14.150848
20
9.580081
70
0
0
VERTEX
8
Layer 1
10
14.151246
20
9.812915
70
0
0
VERTEX
8
Layer 1
10
14.151645
20
10.045748
70
0
0
VERTEX
8
Layer 1
10
14.197435
20
10.145728
70
0
0
VERTEX
8
Layer 1
10
14.243225
20
10.245708
70
0
0
VERTEX
8
Layer 1
10
14.313455
20
10.288528
70
0
0
VERTEX
8
Layer 1
10
14.383685
20
10.331348
70
0
0
VERTEX
8
Layer 1
10
14.500102
20
10.331348
70
0
0
VERTEX
8
Layer 1
10
14.616518
20
10.331348
70
0
0
VERTEX
8
Layer 1
10
14.686748
20
10.288528
70
0
0
VERTEX
8
Layer 1
10
14.756978
20
10.245708
70
0
0
VERTEX
8
Layer 1
10
14.801858
20
10.145728
70
0
0
VERTEX
8
Layer 1
10
14.846738
20
10.045748
70
0
0
VERTEX
8
Layer 1
10
14.855738
20
9.853014
70
0
0
VERTEX
8
Layer 1
10
14.864738
20
9.660281
70
0
0
VERTEX
8
Layer 1
10
14.830418
20
9.542214
70
0
0
VERTEX
8
Layer 1
10
14.796098
20
9.424146
70
0
0
VERTEX
8
Layer 1
10
14.743658
20
9.361826
70
0
0
VERTEX
8
Layer 1
10
14.691218
20
9.299506
70
0
0
VERTEX
8
Layer 1
10
14.596888
20
9.275756
70
0
0
VERTEX
8
Layer 1
10
14.502558
20
9.252006
70
0
0
VERTEX
8
Layer 1
10
14.485468
20
9.254206
70
0
0
VERTEX
8
Layer 1
10
14.468388
20
9.256406
70
0
0
VERTEX
8
Layer 1
10
14.398158
20
9.272951
70
0
0
SEQEND
8
Layer 1
0
POLYLINE
8
Layer 1
62
7
70
0
10
0.000000
20
0.000000
66
1
0
VERTEX
8
Layer 1
10
2.876065
20
8.996611
70
0
0
VERTEX
8
Layer 1
10
3.010131
20
9.069301
70
0
0
VERTEX
8
Layer 1
10
3.082035
20
9.157051
70
0
0
VERTEX
8
Layer 1
10
3.153939
20
9.244801
70
0
0
VERTEX
8
Layer 1
10
3.195283
20
9.338361
70
0
0
VERTEX
8
Layer 1
10
3.236627
20
9.431921
70
0
0
VERTEX
8
Layer 1
10
3.250853
20
9.539442
70
0
0
VERTEX
8
Layer 1
10
3.265079
20
9.646963
70
0
0
VERTEX
8
Layer 1
10
3.240711
20
9.764340
70
0
0
VERTEX
8
Layer 1
10
3.216343
20
9.881718
70
0
0
VERTEX
8
Layer 1
10
3.154395
20
9.974318
70
0
0
VERTEX
8
Layer 1
10
3.092448
20
10.066918
70
0
0
VERTEX
8
Layer 1
10
3.058782
20
10.112638
70
0
0
VERTEX
8
Layer 1
10
3.025116
20
10.158358
70
0
0
VERTEX
8
Layer 1
10
3.098251
20
10.254168
70
0
0
VERTEX
8
Layer 1
10
3.171386
20
10.349978
70
0
0
VERTEX
8
Layer 1
10
3.210692
20
10.451865
70
0
0
VERTEX
8
Layer 1
10
3.249998
20
10.553752
70
0
0
VERTEX
8
Layer 1
10
3.249338
20
10.701919
70
0
0
VERTEX
8
Layer 1
10
3.248678
20
10.850085
70
0
0
VERTEX
8
Layer 1
10
3.189498
20
10.979571
70
0
0
VERTEX
8
Layer 1
10
3.130318
20
11.109057
70
0
0
VERTEX
8
Layer 1
10
3.041991
20
11.195457
70
0
0
VERTEX
8
Layer 1
10
2.953664
20
11.281857
70
0
0
VERTEX
8
Layer 1
10
2.826664
20
11.341137
70
0
0
VERTEX
8
Layer 1
10
2.699664
20
11.400417
70
0
0
VERTEX
8
Layer 1
10
2.183917
20
11.407417
70
0
0
VERTEX
8
Layer 1
10
1.668171
20
11.414417
70
0
0
VERTEX
8
Layer 1
10
1.617171
20
11.401617
70
0
0
VERTEX
8
Layer 1
10
1.566171
20
11.388817
70
0
0
VERTEX
8
Layer 1
10
1.524376
20
11.347017
70
0
0
VERTEX
8
Layer 1
10
1.482581
20
11.305217
70
0
0
VERTEX
8
Layer 1
10
1.482581
20
10.161254
70
0
0
VERTEX
8
Layer 1
10
1.482581
20
9.017292
70
0
0
VERTEX
8
Layer 1
10
1.535778
20
8.964092
70
0
0
VERTEX
8
Layer 1
10
1.588975
20
8.910892
70
0
0
VERTEX
8
Layer 1
10
2.165486
20
8.917392
70
0
0
VERTEX
8
Layer 1
10
2.741998
20
8.923892
70
0
0
VERTEX
8
Layer 1
10
2.876065
20
8.996611
70
0
0
SEQEND
8
Layer 1
0
POLYLINE
8
Layer 1
62
7
70
0
10
0.000000
20
0.000000
66
1
0
VERTEX
8
Layer 1
10
1.835360
20
9.266110
70
0
0
VERTEX
8
Layer 1
10
1.821249
20
9.280221
70
0
0
VERTEX
8
Layer 1
10
1.821249
20
9.625943
70
0
0
VERTEX
8
Layer 1
10
1.821249
20
9.971666
70
0
0
VERTEX
8
Layer 1
10
2.235050
20
9.971666
70
0
0
VERTEX
8
Layer 1
10
2.648851
20
9.971666
70
0
0
VERTEX
8
Layer 1
10
2.710206
20
9.939936
70
0
0
VERTEX
8
Layer 1
10
2.771561
20
9.908206
70
0
0
VERTEX
8
Layer 1
10
2.830864
20
9.830456
70
0
0
VERTEX
8
Layer 1
10
2.890166
20
9.752706
70
0
0
VERTEX
8
Layer 1
10
2.890166
20
9.620319
70
0
0
VERTEX
8
Layer 1
10
2.890166
20
9.487932
70
0
0
VERTEX
8
Layer 1
10
2.846525
20
9.429482
70
0
0
VERTEX
8
Layer 1
10
2.802884
20
9.371032
70
0
0
VERTEX
8
Layer 1
10
2.749637
20
9.331282
70
0
0
VERTEX
8
Layer 1
10
2.696390
20
9.291532
70
0
0
VERTEX
8
Layer 1
10
2.613362
20
9.272272
70
0
0
VERTEX
8
Layer 1
10
2.530333
20
9.253012
70
0
0
VERTEX
8
Layer 1
10
2.189903
20
9.252507
70
0
0
VERTEX
8
Layer 1
10
1.849472
20
9.252002
70
0
0
VERTEX
8
Layer 1
10
1.835360
20
9.266110
70
0
0
SEQEND
8
Layer 1
0
POLYLINE
8
Layer 1
62
7
70
0
10
0.000000
20
0.000000
66
1
0
VERTEX
8
Layer 1
10
1.821249
20
10.690954
70
0
0
VERTEX
8
Layer 1
10
1.821249
20
11.053587
70
0
0
VERTEX
8
Layer 1
10
2.251587
20
11.047087
70
0
0
VERTEX
8
Layer 1
10
2.681924
20
11.040587
70
0
0
VERTEX
8
Layer 1
10
2.757697
20
10.982747
70
0
0
VERTEX
8
Layer 1
10
2.833470
20
10.924907
70
0
0
VERTEX
8
Layer 1
10
2.869890
20
10.829537
70
0
0
VERTEX
8
Layer 1
10
2.906311
20
10.734167
70
0
0
VERTEX
8
Layer 1
10
2.895765
20
10.640597
70
0
0
VERTEX
8
Layer 1
10
2.885219
20
10.547037
70
0
0
VERTEX
8
Layer 1
10
2.838399
20
10.481287
70
0
0
VERTEX
8
Layer 1
10
2.791579
20
10.415537
70
0
0
VERTEX
8
Layer 1
10
2.724456
20
10.378817
70
0
0
VERTEX
8
Layer 1
10
2.657333
20
10.342097
70
0
0
VERTEX
8
Layer 1
10
2.239292
20
10.335197
70
0
0
VERTEX
8
Layer 1
10
1.821250
20
10.328297
70
0
0
VERTEX
8
Layer 1
10
1.821249
20
10.690954
70
0
0
SEQEND
8
Layer 1
0
POLYLINE
8
Layer 1
62
7
70
0
10
0.000000
20
0.000000
66
1
0
VERTEX
8
Layer 1
10
4.055295
20
8.965287
70
0
0
VERTEX
8
Layer 1
10
4.107250
20
9.017237
70
0
0
VERTEX
8
Layer 1
10
4.107250
20
9.085627
70
0
0
VERTEX
8
Layer 1
10
4.107250
20
9.154017
70
0
0
VERTEX
8
Layer 1
10
4.061226
20
9.203010
70
0
0
VERTEX
8
Layer 1
10
4.015203
20
9.251999
70
0
0
VERTEX
8
Layer 1
10
3.987730
20
9.251999
70
0
0
VERTEX
8
Layer 1
10
3.960257
20
9.251999
70
0
0
VERTEX
8
Layer 1
10
3.954377
20
10.278009
70
0
0
VERTEX
8
Layer 1
10
3.948497
20
11.304018
70
0
0
VERTEX
8
Layer 1
10
3.901342
20
11.351158
70
0
0
VERTEX
8
Layer 1
10
3.854187
20
11.398298
70
0
0
VERTEX
8
Layer 1
10
3.776893
20
11.398298
70
0
0
VERTEX
8
Layer 1
10
3.699596
20
11.398298
70
0
0
VERTEX
8
Layer 1
10
3.649422
20
11.339968
70
0
0
VERTEX
8
Layer 1
10
3.599248
20
11.281638
70
0
0
VERTEX
8
Layer 1
10
3.599248
20
10.236447
70
0
0
VERTEX
8
Layer 1
10
3.599248
20
9.191255
70
0
0
VERTEX
8
Layer 1
10
3.621825
20
9.131665
70
0
0
VERTEX
8
Layer 1
10
3.644402
20
9.072075
70
0
0
VERTEX
8
Layer 1
10
3.690617
20
9.021755
70
0
0
VERTEX
8
Layer 1
10
3.736832
20
8.971435
70
0
0
VERTEX
8
Layer 1
10
3.800332
20
8.943215
70
0
0
VERTEX
8
Layer 1
10
3.863832
20
8.914995
70
0
0
VERTEX
8
Layer 1
10
3.933586
20
8.914167
70
0
0
VERTEX
8
Layer 1
10
4.003340
20
8.913338
70
0
0
VERTEX
8
Layer 1
10
4.055295
20
8.965287
70
0
0
SEQEND
8
Layer 1
0
POLYLINE
8
Layer 1
62
7
70
0
10
0.000000
20
0.000000
66
1
0
VERTEX
8
Layer 1
10
4.753795
20
8.965287
70
0
0
VERTEX
8
Layer 1
10
4.805749
20
9.017237
70
0
0
VERTEX
8
Layer 1
10
4.805749
20
9.802328
70
0
0
VERTEX
8
Layer 1
10
4.805749
20
10.587419
70
0
0
VERTEX
8
Layer 1
10
4.753795
20
10.639369
70
0
0
VERTEX
8
Layer 1
10
4.701840
20
10.691319
70
0
0
VERTEX
8
Layer 1
10
4.636416
20
10.691319
70
0
0
VERTEX
8
Layer 1
10
4.570992
20
10.691319
70
0
0
VERTEX
8
Layer 1
10
4.519038
20
10.639369
70
0
0
VERTEX
8
Layer 1
10
4.467083
20
10.587419
70
0
0
VERTEX
8
Layer 1
10
4.467083
20
9.794243
70
0
0
VERTEX
8
Layer 1
10
4.467083
20
9.001067
70
0
0
VERTEX
8
Layer 1
10
4.522854
20
8.957197
70
0
0
VERTEX
8
Layer 1
10
4.578625
20
8.913327
70
0
0
VERTEX
8
Layer 1
10
4.640233
20
8.913327
70
0
0
VERTEX
8
Layer 1
10
4.701841
20
8.913327
70
0
0
VERTEX
8
Layer 1
10
4.753795
20
8.965287
70
0
0
SEQEND
8
Layer 1
0
POLYLINE
8
Layer 1
62
7
70
0
10
0.000000
20
0.000000
66
1
0
VERTEX
8
Layer 1
10
5.452295
20
8.965287
70
0
0
VERTEX
8
Layer 1
10
5.504249
20
9.017237
70
0
0
VERTEX
8
Layer 1
10
5.504249
20
9.530100
70
0
0
VERTEX
8
Layer 1
10
5.504249
20
10.042963
70
0
0
VERTEX
8
Layer 1
10
5.548846
20
10.135083
70
0
0
VERTEX
8
Layer 1
10
5.593443
20
10.227203
70
0
0
VERTEX
8
Layer 1
10
5.670177
20
10.279343
70
0
0
VERTEX
8
Layer 1
10
5.746910
20
10.331483
70
0
0
VERTEX
8
Layer 1
10
5.865820
20
10.331483
70
0
0
VERTEX
8
Layer 1
10
5.984731
20
10.331483
70
0
0
VERTEX
8
Layer 1
10
6.069412
20
10.270143
70
0
0
VERTEX
8
Layer 1
10
6.154093
20
10.208803
70
0
0
VERTEX
8
Layer 1
10
6.189005
20
10.121553
70
0
0
VERTEX
8
Layer 1
10
6.223916
20
10.034303
70
0
0
VERTEX
8
Layer 1
10
6.223916
20
9.546506
70
0
0
VERTEX
8
Layer 1
10
6.223916
20
9.058710
70
0
0
VERTEX
8
Layer 1
10
6.248540
20
9.012480
70
0
0
VERTEX
8
Layer 1
10
6.273164
20
8.966250
70
0
0
VERTEX
8
Layer 1
10
6.306748
20
8.940470
70
0
0
VERTEX
8
Layer 1
10
6.340332
20
8.914690
70
0
0
VERTEX
8
Layer 1
10
6.405132
20
8.914016
70
0
0
VERTEX
8
Layer 1
10
6.469932
20
8.913343
70
0
0
VERTEX
8
Layer 1
10
6.515282
20
8.955593
70
0
0
VERTEX
8
Layer 1
10
6.560632
20
8.997843
70
0
0
VERTEX
8
Layer 1
10
6.573932
20
9.068733
70
0
0
VERTEX
8
Layer 1
10
6.587231
20
9.139623
70
0
0
VERTEX
8
Layer 1
10
6.578771
20
9.635023
70
0
0
VERTEX
8
Layer 1
10
6.570311
20
10.130423
70
0
0
VERTEX
8
Layer 1
10
6.532447
20
10.231716
70
0
0
VERTEX
8
Layer 1
10
6.494584
20
10.333009
70
0
0
VERTEX
8
Layer 1
10
6.389730
20
10.447736
70
0
0
VERTEX
8
Layer 1
10
6.284875
20
10.562464
70
0
0
VERTEX
8
Layer 1
10
6.164434
20
10.621324
70
0
0
VERTEX
8
Layer 1
10
6.043992
20
10.680184
70
0
0
VERTEX
8
Layer 1
10
5.864076
20
10.679353
70
0
0
VERTEX
8
Layer 1
10
5.684159
20
10.678522
70
0
0
VERTEX
8
Layer 1
10
5.590873
20
10.636102
70
0
0
VERTEX
8
Layer 1
10
5.497587
20
10.593682
70
0
0
VERTEX
8
Layer 1
10
5.444907
20
10.642502
70
0
0
VERTEX
8
Layer 1
10
5.392227
20
10.691322
70
0
0
VERTEX
8
Layer 1
10
5.332998
20
10.691322
70
0
0
VERTEX
8
Layer 1
10
5.273769
20
10.691322
70
0
0
VERTEX
8
Layer 1
10
5.214380
20
10.640242
70
0
0
VERTEX
8
Layer 1
10
5.154991
20
10.589162
70
0
0
VERTEX
8
Layer 1
10
5.154991
20
9.805871
70
0
0
VERTEX
8
Layer 1
10
5.154991
20
9.022579
70
0
0
VERTEX
8
Layer 1
10
5.206306
20
8.967949
70
0
0
VERTEX
8
Layer 1
10
5.257621
20
8.913319
70
0
0
VERTEX
8
Layer 1
10
5.328977
20
8.913319
70
0
0
VERTEX
8
Layer 1
10
5.400333
20
8.913319
70
0
0
VERTEX
8
Layer 1
10
5.452295
20
8.965287
70
0
0
SEQEND
8
Layer 1
0
POLYLINE
8
Layer 1
62
7
70
0
10
0.000000
20
0.000000
66
1
0
VERTEX
8
Layer 1
10
7.205311
20
8.957187
70
0
0
VERTEX
8
Layer 1
10
7.261082
20
9.001057
70
0
0
VERTEX
8
Layer 1
10
7.261082
20
9.182500
70
0
0
VERTEX
8
Layer 1
10
7.261082
20
9.363942
70
0
0
VERTEX
8
Layer 1
10
7.449458
20
9.555387
70
0
0
VERTEX
8
Layer 1
10
7.637835
20
9.746833
70
0
0
VERTEX
8
Layer 1
10
7.822049
20
9.377701
70
0
0
VERTEX
8
Layer 1
10
8.006264
20
9.008568
70
0
0
VERTEX
8
Layer 1
10
8.050113
20
8.960948
70
0
0
VERTEX
8
Layer 1
10
8.093962
20
8.913318
70
0
0
VERTEX
8
Layer 1
10
8.165318
20
8.913318
70
0
0
VERTEX
8
Layer 1
10
8.236674
20
8.913318
70
0
0
VERTEX
8
Layer 1
10
8.288628
20
8.965268
70
0
0
VERTEX
8
Layer 1
10
8.340583
20
9.017218
70
0
0
VERTEX
8
Layer 1
10
8.340583
20
9.071288
70
0
0
VERTEX
8
Layer 1
10
8.340583
20
9.125358
70
0
0
VERTEX
8
Layer 1
10
8.120281
20
9.565605
70
0
0
VERTEX
8
Layer 1
10
7.899979
20
10.005827
70
0
0
VERTEX
8
Layer 1
10
8.120281
20
10.228811
70
0
0
VERTEX
8
Layer 1
10
8.340583
20
10.451796
70
0
0
VERTEX
8
Layer 1
10
8.340583
20
10.509696
70
0
0
VERTEX
8
Layer 1
10
8.340583
20
10.567596
70
0
0
VERTEX
8
Layer 1
10
8.278711
20
10.629466
70
0
0
VERTEX
8
Layer 1
10
8.216839
20
10.691336
70
0
0
VERTEX
8
Layer 1
10
8.158238
20
10.691336
70
0
0
VERTEX
8
Layer 1
10
8.099637
20
10.691336
70
0
0
VERTEX
8
Layer 1
10
7.695542
20
10.289170
70
0
0
VERTEX
8
Layer 1
10
7.291447
20
9.887003
70
0
0
VERTEX
8
Layer 1
10
7.276264
20
9.887003
70
0
0
VERTEX
8
Layer 1
10
7.261081
20
9.887003
70
0
0
VERTEX
8
Layer 1
10
7.261081
20
10.583772
70
0
0
VERTEX
8
Layer 1
10
7.261081
20
11.280541
70
0
0
VERTEX
8
Layer 1
10
7.247933
20
11.314801
70
0
0
VERTEX
8
Layer 1
10
7.234785
20
11.349061
70
0
0
VERTEX
8
Layer 1
10
7.174033
20
11.380481
70
0
0
VERTEX
8
Layer 1
10
7.113281
20
11.411901
70
0
0
VERTEX
8
Layer 1
10
7.059847
20
11.398491
70
0
0
VERTEX
8
Layer 1
10
7.006413
20
11.385081
70
0
0
VERTEX
8
Layer 1
10
6.964414
20
11.331691
70
0
0
VERTEX
8
Layer 1
10
6.922415
20
11.278301
70
0
0
VERTEX
8
Layer 1
10
6.922415
20
10.147777
70
0
0
VERTEX
8
Layer 1
10
6.922415
20
9.017252
70
0
0
VERTEX
8
Layer 1
10
6.974370
20
8.965302
70
0
0
VERTEX
8
Layer 1
10
7.026324
20
8.913352
70
0
0
VERTEX
8
Layer 1
10
7.087932
20
8.913352
70
0
0
VERTEX
8
Layer 1
10
7.149540
20
8.913352
70
0
0
VERTEX
8
Layer 1
10
7.205311
20
8.957187
70
0
0
SEQEND
8
Layer 1
0
POLYLINE
8
Layer 1
62
7
70
0
10
0.000000
20
0.000000
66
1
0
VERTEX
8
Layer 1
10
9.733748
20
8.987287
70
0
0
VERTEX
8
Layer 1
10
9.846331
20
9.048627
70
0
0
VERTEX
8
Layer 1
10
9.908374
20
9.119287
70
0
0
VERTEX
8
Layer 1
10
9.970417
20
9.189947
70
0
0
VERTEX
8
Layer 1
10
9.969744
20
9.258007
70
0
0
VERTEX
8
Layer 1
10
9.969070
20
9.326067
70
0
0
VERTEX
8
Layer 1
10
9.943285
20
9.359647
70
0
0
VERTEX
8
Layer 1
10
9.917500
20
9.393237
70
0
0
VERTEX
8
Layer 1
10
9.867904
20
9.419657
70
0
0
VERTEX
8
Layer 1
10
9.818308
20
9.446077
70
0
0
VERTEX
8
Layer 1
10
9.762071
20
9.432227
70
0
0
VERTEX
8
Layer 1
10
9.705834
20
9.418377
70
0
0
VERTEX
8
Layer 1
10
9.639628
20
9.354697
70
0
0
VERTEX
8
Layer 1
10
9.573422
20
9.291017
70
0
0
VERTEX
8
Layer 1
10
9.491461
20
9.272477
70
0
0
VERTEX
8
Layer 1
10
9.409500
20
9.253937
70
0
0
VERTEX
8
Layer 1
10
9.356583
20
9.265257
70
0
0
VERTEX
8
Layer 1
10
9.303666
20
9.276577
70
0
0
VERTEX
8
Layer 1
10
9.244649
20
9.298927
70
0
0
VERTEX
8
Layer 1
10
9.185632
20
9.321277
70
0
0
VERTEX
8
Layer 1
10
9.135251
20
9.408327
70
0
0
VERTEX
8
Layer 1
10
9.084870
20
9.495387
70
0
0
VERTEX
8
Layer 1
10
9.077850
20
9.558887
70
0
0
VERTEX
8
Layer 1
10
9.070830
20
9.622387
70
0
0
VERTEX
8
Layer 1
10
9.554115
20
9.632967
70
0
0
VERTEX
8
Layer 1
10
10.037401
20
9.643547
70
0
0
VERTEX
8
Layer 1
10
10.068331
20
9.685877
70
0
0
VERTEX
8
Layer 1
10
10.099251
20
9.728207
70
0
0
VERTEX
8
Layer 1
10
10.111071
20
9.775267
70
0
0
VERTEX
8
Layer 1
10
10.122891
20
9.822327
70
0
0
VERTEX
8
Layer 1
10
10.099401
20
9.996855
70
0
0
VERTEX
8
Layer 1
10
10.075911
20
10.171384
70
0
0
VERTEX
8
Layer 1
10
10.015291
20
10.300925
70
0
0
VERTEX
8
Layer 1
10
9.954672
20
10.430467
70
0
0
VERTEX
8
Layer 1
10
9.874478
20
10.510657
70
0
0
VERTEX
8
Layer 1
10
9.794284
20
10.590847
70
0
0
VERTEX
8
Layer 1
10
9.697142
20
10.635667
70
0
0
VERTEX
8
Layer 1
10
9.600000
20
10.680487
70
0
0
VERTEX
8
Layer 1
10
9.409500
20
10.680487
70
0
0
VERTEX
8
Layer 1
10
9.219000
20
10.680487
70
0
0
VERTEX
8
Layer 1
10
9.122675
20
10.636027
70
0
0
VERTEX
8
Layer 1
10
9.026350
20
10.591567
70
0
0
VERTEX
8
Layer 1
10
8.948110
20
10.522877
70
0
0
VERTEX
8
Layer 1
10
8.869870
20
10.454187
70
0
0
VERTEX
8
Layer 1
10
8.804798
20
10.317840
70
0
0
VERTEX
8
Layer 1
10
8.739726
20
10.181493
70
0
0
VERTEX
8
Layer 1
10
8.715795
20
9.991897
70
0
0
VERTEX
8
Layer 1
10
8.691864
20
9.802300
70
0
0
VERTEX
8
Layer 1
10
8.715968
20
9.611338
70
0
0
VERTEX
8
Layer 1
10
8.740072
20
9.420376
70
0
0
VERTEX
8
Layer 1
10
8.791177
20
9.308747
70
0
0
VERTEX
8
Layer 1
10
8.842282
20
9.197118
70
0
0
VERTEX
8
Layer 1
10
8.912221
20
9.117458
70
0
0
VERTEX
8
Layer 1
10
8.982160
20
9.037798
70
0
0
VERTEX
8
Layer 1
10
9.068831
20
8.993518
70
0
0
VERTEX
8
Layer 1
10
9.155502
20
8.949238
70
0
0
VERTEX
8
Layer 1
10
9.208419
20
8.931878
70
0
0
VERTEX
8
Layer 1
10
9.261336
20
8.914518
70
0
0
VERTEX
8
Layer 1
10
9.441253
20
8.920218
70
0
0
VERTEX
8
Layer 1
10
9.621169
20
8.925918
70
0
0
VERTEX
8
Layer 1
10
9.733748
20
8.987287
70
0
0
SEQEND
8
Layer 1
0
POLYLINE
8
Layer 1
62
7
70
1
10
0.000000
20
0.000000
66
1
0
VERTEX
8
Layer 1
10
9.060249
20
9.978388
70
0
0
VERTEX
8
Layer 1
10
9.060249
20
9.985088
70
0
0
VERTEX
8
Layer 1
10
9.091501
20
10.090326
70
0
0
VERTEX
8
Layer 1
10
9.122753
20
10.195564
70
0
0
VERTEX
8
Layer 1
10
9.188140
20
10.258214
70
0
0
VERTEX
8
Layer 1
10
9.253527
20
10.320864
70
0
0
VERTEX
8
Layer 1
10
9.408665
20
10.320864
70
0
0
VERTEX
8
Layer 1
10
9.563803
20
10.320864
70
0
0
VERTEX
8
Layer 1
10
9.611348
20
10.278534
70
0
0
VERTEX
8
Layer 1
10
9.658893
20
10.236204
70
0
0
VERTEX
8
Layer 1
10
9.697772
20
10.151534
70
0
0
VERTEX
8
Layer 1
10
9.736651
20
10.066864
70
0
0
VERTEX
8
Layer 1
10
9.737116
20
10.019244
70
0
0
VERTEX
8
Layer 1
10
9.737581
20
9.971614
70
0
0
VERTEX
8
Layer 1
10
9.398916
20
9.971614
70
0
0
VERTEX
8
Layer 1
10
9.060249
20
9.971614
70
0
0
VERTEX
8
Layer 1
10
9.060249
20
9.978388
70
0
0
SEQEND
8
Layer 1
0
POLYLINE
8
Layer 1
62
7
70
0
10
0.000000
20
0.000000
66
1
0
VERTEX
8
Layer 1
10
10.747111
20
8.964354
70
0
0
VERTEX
8
Layer 1
10
10.806501
20
9.015394
70
0
0
VERTEX
8
Layer 1
10
10.817081
20
9.566121
70
0
0
VERTEX
8
Layer 1
10
10.827661
20
10.116848
70
0
0
VERTEX
8
Layer 1
10
10.871941
20
10.176538
70
0
0
VERTEX
8
Layer 1
10
10.916221
20
10.236228
70
0
0
VERTEX
8
Layer 1
10
10.986201
20
10.283848
70
0
0
VERTEX
8
Layer 1
10
11.056181
20
10.331478
70
0
0
VERTEX
8
Layer 1
10
11.159936
20
10.331478
70
0
0
VERTEX
8
Layer 1
10
11.263690
20
10.331478
70
0
0
VERTEX
8
Layer 1
10
11.323620
20
10.300488
70
0
0
VERTEX
8
Layer 1
10
11.383550
20
10.269498
70
0
0
VERTEX
8
Layer 1
10
11.438170
20
10.204578
70
0
0
VERTEX
8
Layer 1
10
11.492790
20
10.139658
70
0
0
VERTEX
8
Layer 1
10
11.514650
20
10.060938
70
0
0
VERTEX
8
Layer 1
10
11.536510
20
9.982218
70
0
0
VERTEX
8
Layer 1
10
11.536628
20
9.499714
70
0
0
VERTEX
8
Layer 1
10
11.536746
20
9.017210
70
0
0
VERTEX
8
Layer 1
10
11.588696
20
8.965260
70
0
0
VERTEX
8
Layer 1
10
11.640646
20
8.913310
70
0
0
VERTEX
8
Layer 1
10
11.706066
20
8.913310
70
0
0
VERTEX
8
Layer 1
10
11.771486
20
8.913310
70
0
0
VERTEX
8
Layer 1
10
11.823436
20
8.965260
70
0
0
VERTEX
8
Layer 1
10
11.875386
20
9.017210
70
0
0
VERTEX
8
Layer 1
10
11.875386
20
9.567712
70
0
0
VERTEX
8
Layer 1
10
11.875386
20
10.118213
70
0
0
VERTEX
8
Layer 1
10
11.832346
20
10.233246
70
0
0
VERTEX
8
Layer 1
10
11.789306
20
10.348278
70
0
0
VERTEX
8
Layer 1
10
11.704226
20
10.444928
70
0
0
VERTEX
8
Layer 1
10
11.619146
20
10.541578
70
0
0
VERTEX
8
Layer 1
10
11.477831
20
10.611148
70
0
0
VERTEX
8
Layer 1
10
11.336515
20
10.680718
70
0
0
VERTEX
8
Layer 1
10
11.166737
20
10.680401
70
0
0
VERTEX
8
Layer 1
10
10.996958
20
10.680085
70
0
0
VERTEX
8
Layer 1
10
10.900408
20
10.635735
70
0
0
VERTEX
8
Layer 1
10
10.803858
20
10.591375
70
0
0
VERTEX
8
Layer 1
10
10.745768
20
10.641335
70
0
0
VERTEX
8
Layer 1
10
10.687688
20
10.691295
70
0
0
VERTEX
8
Layer 1
10
10.647528
20
10.691295
70
0
0
VERTEX
8
Layer 1
10
10.607368
20
10.691295
70
0
0
VERTEX
8
Layer 1
10
10.555788
20
10.667795
70
0
0
VERTEX
8
Layer 1
10
10.504208
20
10.644295
70
0
0
VERTEX
8
Layer 1
10
10.480708
20
10.592715
70
0
0
VERTEX
8
Layer 1
10
10.457208
20
10.541135
70
0
0
VERTEX
8
Layer 1
10
10.457208
20
9.779168
70
0
0
VERTEX
8
Layer 1
10
10.457208
20
9.017202
70
0
0
VERTEX
8
Layer 1
10
10.509168
20
8.965252
70
0
0
VERTEX
8
Layer 1
10
10.561118
20
8.913302
70
0
0
VERTEX
8
Layer 1
10
10.624398
20
8.913302
70
0
0
VERTEX
8
Layer 1
10
10.687678
20
8.913302
70
0
0
VERTEX
8
Layer 1
10
10.747111
20
8.964354
70
0
0
SEQEND
8
Layer 1
0
POLYLINE
8
Layer 1
62
7
70
0
10
0.000000
20
0.000000
66
1
0
VERTEX
8
Layer 1
10
12.673627
20
8.960954
70
0
0
VERTEX
8
Layer 1
10
12.717217
20
9.008574
70
0
0
VERTEX
8
Layer 1
10
12.731327
20
9.055144
70
0
0
VERTEX
8
Layer 1
10
12.745437
20
9.101714
70
0
0
VERTEX
8
Layer 1
10
12.712207
20
9.165964
70
0
0
VERTEX
8
Layer 1
10
12.678977
20
9.230214
70
0
0
VERTEX
8
Layer 1
10
12.626447
20
9.243404
70
0
0
VERTEX
8
Layer 1
10
12.573917
20
9.256584
70
0
0
VERTEX
8
Layer 1
10
12.573917
20
10.271918
70
0
0
VERTEX
8
Layer 1
10
12.573917
20
11.287251
70
0
0
VERTEX
8
Layer 1
10
12.509567
20
11.351601
70
0
0
VERTEX
8
Layer 1
10
12.445217
20
11.415951
70
0
0
VERTEX
8
Layer 1
10
12.377277
20
11.402831
70
0
0
VERTEX
8
Layer 1
10
12.309337
20
11.389711
70
0
0
VERTEX
8
Layer 1
10
12.273457
20
11.346531
70
0
0
VERTEX
8
Layer 1
10
12.237577
20
11.303351
70
0
0
VERTEX
8
Layer 1
10
12.224437
20
11.214301
70
0
0
VERTEX
8
Layer 1
10
12.211297
20
11.125251
70
0
0
VERTEX
8
Layer 1
10
12.217997
20
10.141001
70
0
0
VERTEX
8
Layer 1
10
12.224697
20
9.156751
70
0
0
VERTEX
8
Layer 1
10
12.268207
20
9.082681
70
0
0
VERTEX
8
Layer 1
10
12.311717
20
9.008611
70
0
0
VERTEX
8
Layer 1
10
12.395207
20
8.961321
70
0
0
VERTEX
8
Layer 1
10
12.478697
20
8.914031
70
0
0
VERTEX
8
Layer 1
10
12.554387
20
8.913682
70
0
0
VERTEX
8
Layer 1
10
12.630077
20
8.913334
70
0
0
VERTEX
8
Layer 1
10
12.673627
20
8.960954
70
0
0
SEQEND
8
Layer 1
0
POLYLINE
8
Layer 1
62
7
70
0
10
0.000000
20
0.000000
66
1
0
VERTEX
8
Layer 1
10
13.371777
20
8.964454
70
0
0
VERTEX
8
Layer 1
10
13.431167
20
9.015544
70
0
0
VERTEX
8
Layer 1
10
13.431167
20
9.802375
70
0
0
VERTEX
8
Layer 1
10
13.431167
20
10.589206
70
0
0
VERTEX
8
Layer 1
10
13.371777
20
10.640286
70
0
0
VERTEX
8
Layer 1
10
13.312387
20
10.691366
70
0
0
VERTEX
8
Layer 1
10
13.269847
20
10.691366
70
0
0
VERTEX
8
Layer 1
10
13.227307
20
10.691366
70
0
0
VERTEX
8
Layer 1
10
13.181077
20
10.666746
70
0
0
VERTEX
8
Layer 1
10
13.134847
20
10.642126
70
0
0
VERTEX
8
Layer 1
10
13.109057
20
10.608546
70
0
0
VERTEX
8
Layer 1
10
13.083267
20
10.574966
70
0
0
VERTEX
8
Layer 1
10
13.082594
20
9.796128
70
0
0
VERTEX
8
Layer 1
10
13.081921
20
9.017291
70
0
0
VERTEX
8
Layer 1
10
13.133871
20
8.965341
70
0
0
VERTEX
8
Layer 1
10
13.185821
20
8.913391
70
0
0
VERTEX
8
Layer 1
10
13.249101
20
8.913391
70
0
0
VERTEX
8
Layer 1
10
13.312381
20
8.913391
70
0
0
VERTEX
8
Layer 1
10
13.371777
20
8.964454
70
0
0
SEQEND
8
Layer 1
0
POLYLINE
8
Layer 1
62
7
70
0
10
0.000000
20
0.000000
66
1
0
VERTEX
8
Layer 1
10
15.848277
20
8.964405
70
0
0
VERTEX
8
Layer 1
10
15.907667
20
9.015445
70
0
0
VERTEX
8
Layer 1
10
15.918247
20
9.566176
70
0
0
VERTEX
8
Layer 1
10
15.928827
20
10.116907
70
0
0
VERTEX
8
Layer 1
10
15.973107
20
10.176587
70
0
0
VERTEX
8
Layer 1
10
16.017387
20
10.236267
70
0
0
VERTEX
8
Layer 1
10
16.087357
20
10.283887
70
0
0
VERTEX
8
Layer 1
10
16.157337
20
10.331517
70
0
0
VERTEX
8
Layer 1
10
16.261091
20
10.331517
70
0
0
VERTEX
8
Layer 1
10
16.364846
20
10.331517
70
0
0
VERTEX
8
Layer 1
10
16.424776
20
10.300527
70
0
0
VERTEX
8
Layer 1
10
16.484706
20
10.269537
70
0
0
VERTEX
8
Layer 1
10
16.539326
20
10.204617
70
0
0
VERTEX
8
Layer 1
10
16.593946
20
10.139697
70
0
0
VERTEX
8
Layer 1
10
16.615806
20
10.060977
70
0
0
VERTEX
8
Layer 1
10
16.637666
20
9.982257
70
0
0
VERTEX
8
Layer 1
10
16.637784
20
9.491668
70
0
0
VERTEX
8
Layer 1
10
16.637902
20
9.001079
70
0
0
VERTEX
8
Layer 1
10
16.693672
20
8.957209
70
0
0
VERTEX
8
Layer 1
10
16.749442
20
8.913339
70
0
0
VERTEX
8
Layer 1
10
16.811052
20
8.913339
70
0
0
VERTEX
8
Layer 1
10
16.872662
20
8.913339
70
0
0
VERTEX
8
Layer 1
10
16.924612
20
8.965289
70
0
0
VERTEX
8
Layer 1
10
16.976572
20
9.017239
70
0
0
VERTEX
8
Layer 1
10
16.976572
20
9.567741
70
0
0
VERTEX
8
Layer 1
10
16.976572
20
10.118242
70
0
0
VERTEX
8
Layer 1
10
16.933532
20
10.233275
70
0
0
VERTEX
8
Layer 1
10
16.890492
20
10.348307
70
0
0
VERTEX
8
Layer 1
10
16.805422
20
10.444957
70
0
0
VERTEX
8
Layer 1
10
16.720352
20
10.541607
70
0
0
VERTEX
8
Layer 1
10
16.586120
20
10.607687
70
0
0
VERTEX
8
Layer 1
10
16.451888
20
10.673767
70
0
0
VERTEX
8
Layer 1
10
16.326421
20
10.685147
70
0
0
VERTEX
8
Layer 1
10
16.200954
20
10.696527
70
0
0
VERTEX
8
Layer 1
10
16.086059
20
10.660917
70
0
0
VERTEX
8
Layer 1
10
15.971164
20
10.625307
70
0
0
VERTEX
8
Layer 1
10
15.944704
20
10.614227
70
0
0
VERTEX
8
Layer 1
10
15.918244
20
10.603147
70
0
0
VERTEX
8
Layer 1
10
15.918244
20
10.908660
70
0
0
VERTEX
8
Layer 1
10
15.918244
20
11.214182
70
0
0
VERTEX
8
Layer 1
10
15.894784
20
11.281482
70
0
0
VERTEX
8
Layer 1
10
15.871324
20
11.348782
70
0
0
VERTEX
8
Layer 1
10
15.811174
20
11.379892
70
0
0
VERTEX
8
Layer 1
10
15.751024
20
11.411002
70
0
0
VERTEX
8
Layer 1
10
15.716594
20
11.411002
70
0
0
VERTEX
8
Layer 1
10
15.682164
20
11.411002
70
0
0
VERTEX
8
Layer 1
10
15.620294
20
11.349132
70
0
0
VERTEX
8
Layer 1
10
15.558424
20
11.287262
70
0
0
VERTEX
8
Layer 1
10
15.558424
20
10.152255
70
0
0
VERTEX
8
Layer 1
10
15.558424
20
9.017248
70
0
0
VERTEX
8
Layer 1
10
15.610384
20
8.965298
70
0
0
VERTEX
8
Layer 1
10
15.662334
20
8.913348
70
0
0
VERTEX
8
Layer 1
10
15.725614
20
8.913348
70
0
0
VERTEX
8
Layer 1
10
15.788894
20
8.913348
70
0
0
VERTEX
8
Layer 1
10
15.848277
20
8.964405
70
0
0
SEQEND
8
Layer 1
0
POLYLINE
8
Layer 1
62
7
70
0
10
0.000000
20
0.000000
66
1
0
VERTEX
8
Layer 1
10
18.148478
20
8.957205
70
0
0
VERTEX
8
Layer 1
10
18.204248
20
9.001075
70
0
0
VERTEX
8
Layer 1
10
18.204248
20
9.080515
70
0
0
VERTEX
8
Layer 1
10
18.204248
20
9.159955
70
0
0
VERTEX
8
Layer 1
10
18.156618
20
9.203365
70
0
0
VERTEX
8
Layer 1
10
18.108988
20
9.246775
70
0
0
VERTEX
8
Layer 1
10
18.029528
20
9.260945
70
0
0
VERTEX
8
Layer 1
10
17.950068
20
9.275115
70
0
0
VERTEX
8
Layer 1
10
17.907818
20
9.320465
70
0
0
VERTEX
8
Layer 1
10
17.865568
20
9.365815
70
0
0
VERTEX
8
Layer 1
10
17.865568
20
9.848657
70
0
0
VERTEX
8
Layer 1
10
17.865568
20
10.331499
70
0
0
VERTEX
8
Layer 1
10
17.947078
20
10.331499
70
0
0
VERTEX
8
Layer 1
10
18.028588
20
10.331499
70
0
0
VERTEX
8
Layer 1
10
18.095698
20
10.354889
70
0
0
VERTEX
8
Layer 1
10
18.162808
20
10.378279
70
0
0
VERTEX
8
Layer 1
10
18.183528
20
10.416999
70
0
0
VERTEX
8
Layer 1
10
18.204248
20
10.455719
70
0
0
VERTEX
8
Layer 1
10
18.204248
20
10.521569
70
0
0
VERTEX
8
Layer 1
10
18.204248
20
10.587419
70
0
0
VERTEX
8
Layer 1
10
18.152298
20
10.639369
70
0
0
VERTEX
8
Layer 1
10
18.100348
20
10.691319
70
0
0
VERTEX
8
Layer 1
10
17.982970
20
10.691319
70
0
0
VERTEX
8
Layer 1
10
17.865591
20
10.691319
70
0
0
VERTEX
8
Layer 1
10
17.865591
20
10.956582
70
0
0
VERTEX
8
Layer 1
10
17.865591
20
11.221846
70
0
0
VERTEX
8
Layer 1
10
17.834861
20
11.295386
70
0
0
VERTEX
8
Layer 1
10
17.804131
20
11.368926
70
0
0
VERTEX
8
Layer 1
10
17.748811
20
11.389956
70
0
0
VERTEX
8
Layer 1
10
17.693491
20
11.410986
70
0
0
VERTEX
8
Layer 1
10
17.664741
20
11.410986
70
0
0
VERTEX
8
Layer 1
10
17.635991
20
11.410986
70
0
0
VERTEX
8
Layer 1
10
17.570871
20
11.356186
70
0
0
VERTEX
8
Layer 1
10
17.505751
20
11.301386
70
0
0
VERTEX
8
Layer 1
10
17.505751
20
10.996350
70
0
0
VERTEX
8
Layer 1
10
17.505751
20
10.691315
70
0
0
VERTEX
8
Layer 1
10
17.475181
20
10.691315
70
0
0
VERTEX
8
Layer 1
10
17.444611
20
10.691315
70
0
0
VERTEX
8
Layer 1
10
17.388401
20
10.642965
70
0
0
VERTEX
8
Layer 1
10
17.332191
20
10.594615
70
0
0
VERTEX
8
Layer 1
10
17.332191
20
10.514685
70
0
0
VERTEX
8
Layer 1
10
17.332191
20
10.434755
70
0
0
VERTEX
8
Layer 1
10
17.367611
20
10.395615
70
0
0
VERTEX
8
Layer 1
10
17.403041
20
10.356475
70
0
0
VERTEX
8
Layer 1
10
17.454401
20
10.343585
70
0
0
VERTEX
8
Layer 1
10
17.505761
20
10.330695
70
0
0
VERTEX
8
Layer 1
10
17.505968
20
9.828390
70
0
0
VERTEX
8
Layer 1
10
17.506175
20
9.326085
70
0
0
VERTEX
8
Layer 1
10
17.556385
20
9.218254
70
0
0
VERTEX
8
Layer 1
10
17.606595
20
9.110423
70
0
0
VERTEX
8
Layer 1
10
17.691375
20
9.039253
70
0
0
VERTEX
8
Layer 1
10
17.776155
20
8.968083
70
0
0
VERTEX
8
Layer 1
10
17.847335
20
8.942323
70
0
0
VERTEX
8
Layer 1
10
17.918515
20
8.916563
70
0
0
VERTEX
8
Layer 1
10
18.005615
20
8.914963
70
0
0
VERTEX
8
Layer 1
10
18.092715
20
8.913363
70
0
0
VERTEX
8
Layer 1
10
18.148478
20
8.957205
70
0
0
SEQEND
8
Layer 1
0
POLYLINE
8
Layer 1
62
7
70
0
10
0.000000
20
0.000000
66
1
0
VERTEX
8
Layer 1
10
19.475325
20
8.970195
70
0
0
VERTEX
8
Layer 1
10
19.571655
20
9.013065
70
0
0
VERTEX
8
Layer 1
10
19.648515
20
9.080545
70
0
0
VERTEX
8
Layer 1
10
19.725375
20
9.148035
70
0
0
VERTEX
8
Layer 1
10
19.771375
20
9.243045
70
0
0
VERTEX
8
Layer 1
10
19.817375
20
9.338055
70
0
0
VERTEX
8
Layer 1
10
19.818375
20
9.459069
70
0
0
VERTEX
8
Layer 1
10
19.819375
20
9.580084
70
0
0
VERTEX
8
Layer 1
10
19.774395
20
9.667994
70
0
0
VERTEX
8
Layer 1
10
19.729415
20
9.755904
70
0
0
VERTEX
8
Layer 1
10
19.649425
20
9.822084
70
0
0
VERTEX
8
Layer 1
10
19.569435
20
9.888254
70
0
0
VERTEX
8
Layer 1
10
19.434914
20
9.929964
70
0
0
VERTEX
8
Layer 1
10
19.300393
20
9.971674
70
0
0
VERTEX
8
Layer 1
10
19.233833
20
9.971792
70
0
0
VERTEX
8
Layer 1
10
19.167273
20
9.971910
70
0
0
VERTEX
8
Layer 1
10
19.091623
20
9.992930
70
0
0
VERTEX
8
Layer 1
10
19.015963
20
10.013950
70
0
0
VERTEX
8
Layer 1
10
18.968293
20
10.064690
70
0
0
VERTEX
8
Layer 1
10
18.920623
20
10.115430
70
0
0
VERTEX
8
Layer 1
10
18.927523
20
10.175160
70
0
0
VERTEX
8
Layer 1
10
18.934423
20
10.234890
70
0
0
VERTEX
8
Layer 1
10
19.006343
20
10.283200
70
0
0
VERTEX
8
Layer 1
10
19.078263
20
10.331510
70
0
0
VERTEX
8
Layer 1
10
19.213396
20
10.331510
70
0
0
VERTEX
8
Layer 1
10
19.348529
20
10.331510
70
0
0
VERTEX
8
Layer 1
10
19.423169
20
10.300320
70
0
0
VERTEX
8
Layer 1
10
19.497809
20
10.269130
70
0
0
VERTEX
8
Layer 1
10
19.552339
20
10.226230
70
0
0
VERTEX
8
Layer 1
10
19.606879
20
10.183330
70
0
0
VERTEX
8
Layer 1
10
19.655759
20
10.183330
70
0
0
VERTEX
8
Layer 1
10
19.704639
20
10.183330
70
0
0
VERTEX
8
Layer 1
10
19.762969
20
10.233500
70
0
0
VERTEX
8
Layer 1
10
19.821299
20
10.283670
70
0
0
VERTEX
8
Layer 1
10
19.821299
20
10.359440
70
0
0
VERTEX
8
Layer 1
10
19.821299
20
10.435210
70
0
0
VERTEX
8
Layer 1
10
19.780019
20
10.481340
70
0
0
VERTEX
8
Layer 1
10
19.738749
20
10.527470
70
0
0
VERTEX
8
Layer 1
10
19.658919
20
10.578200
70
0
0
VERTEX
8
Layer 1
10
19.579089
20
10.628930
70
0
0
VERTEX
8
Layer 1
10
19.447257
20
10.662740
70
0
0
VERTEX
8
Layer 1
10
19.315425
20
10.696550
70
0
0
VERTEX
8
Layer 1
10
19.167259
20
10.685140
70
0
0
VERTEX
8
Layer 1
10
19.019092
20
10.673730
70
0
0
VERTEX
8
Layer 1
10
18.921662
20
10.631690
70
0
0
VERTEX
8
Layer 1
10
18.824232
20
10.589650
70
0
0
VERTEX
8
Layer 1
10
18.745792
20
10.520780
70
0
0
VERTEX
8
Layer 1
10
18.667352
20
10.451910
70
0
0
VERTEX
8
Layer 1
10
18.626832
20
10.372470
70
0
0
VERTEX
8
Layer 1
10
18.586302
20
10.293030
70
0
0
VERTEX
8
Layer 1
10
18.572432
20
10.206320
70
0
0
VERTEX
8
Layer 1
10
18.558562
20
10.119610
70
0
0
VERTEX
8
Layer 1
10
18.584952
20
10.025350
70
0
0
VERTEX
8
Layer 1
10
18.611342
20
9.931090
70
0
0
VERTEX
8
Layer 1
10
18.683482
20
9.846810
70
0
0
VERTEX
8
Layer 1
10
18.755622
20
9.762530
70
0
0
VERTEX
8
Layer 1
10
18.871188
20
9.707860
70
0
0
VERTEX
8
Layer 1
10
18.986754
20
9.653190
70
0
0
VERTEX
8
Layer 1
10
19.147156
20
9.632850
70
0
0
VERTEX
8
Layer 1
10
19.307558
20
9.612510
70
0
0
VERTEX
8
Layer 1
10
19.380508
20
9.577890
70
0
0
VERTEX
8
Layer 1
10
19.453458
20
9.543270
70
0
0
VERTEX
8
Layer 1
10
19.466518
20
9.491240
70
0
0
VERTEX
8
Layer 1
10
19.479578
20
9.439210
70
0
0
VERTEX
8
Layer 1
10
19.454048
20
9.391510
70
0
0
VERTEX
8
Layer 1
10
19.428518
20
9.343810
70
0
0
VERTEX
8
Layer 1
10
19.371968
20
9.310420
70
0
0
VERTEX
8
Layer 1
10
19.315418
20
9.277030
70
0
0
VERTEX
8
Layer 1
10
19.239418
20
9.262780
70
0
0
VERTEX
8
Layer 1
10
19.163408
20
9.248530
70
0
0
VERTEX
8
Layer 1
10
19.075868
20
9.272100
70
0
0
VERTEX
8
Layer 1
10
18.988328
20
9.295670
70
0
0
VERTEX
8
Layer 1
10
18.891288
20
9.379660
70
0
0
VERTEX
8
Layer 1
10
18.794248
20
9.463650
70
0
0
VERTEX
8
Layer 1
10
18.740988
20
9.463650
70
0
0
VERTEX
8
Layer 1
10
18.687728
20
9.463650
70
0
0
VERTEX
8
Layer 1
10
18.625858
20
9.401780
70
0
0
VERTEX
8
Layer 1
10
18.563988
20
9.339910
70
0
0
VERTEX
8
Layer 1
10
18.563988
20
9.288500
70
0
0
VERTEX
8
Layer 1
10
18.563988
20
9.237090
70
0
0
VERTEX
8
Layer 1
10
18.612318
20
9.165170
70
0
0
VERTEX
8
Layer 1
10
18.660648
20
9.093250
70
0
0
VERTEX
8
Layer 1
10
18.774457
20
9.025030
70
0
0
VERTEX
8
Layer 1
10
18.888267
20
8.956810
70
0
0
VERTEX
8
Layer 1
10
18.974827
20
8.936110
70
0
0
VERTEX
8
Layer 1
10
19.061387
20
8.915410
70
0
0
VERTEX
8
Layer 1
10
19.220137
20
8.921410
70
0
0
VERTEX
8
Layer 1
10
19.378887
20
8.927310
70
0
0
VERTEX
8
Layer 1
10
19.475325
20
8.970195
70
0
0
SEQEND
8
Layer 1
0
POLYLINE
8
Layer 1
62
7
70
0
10
0.000000
20
0.000000
66
1
0
VERTEX
8
Layer 1
10
4.753794
20
11.103120
70
0
0
VERTEX
8
Layer 1
10
4.805748
20
11.155070
70
0
0
VERTEX
8
Layer 1
10
4.805075
20
11.224820
70
0
0
VERTEX
8
Layer 1
10
4.804402
20
11.294570
70
0
0
VERTEX
8
Layer 1
10
4.776892
20
11.330780
70
0
0
VERTEX
8
Layer 1
10
4.749382
20
11.366990
70
0
0
VERTEX
8
Layer 1
10
4.689007
20
11.389940
70
0
0
VERTEX
8
Layer 1
10
4.628632
20
11.412900
70
0
0
VERTEX
8
Layer 1
10
4.568215
20
11.387870
70
0
0
VERTEX
8
Layer 1
10
4.507798
20
11.362850
70
0
0
VERTEX
8
Layer 1
10
4.487440
20
11.324810
70
0
0
VERTEX
8
Layer 1
10
4.467082
20
11.286770
70
0
0
VERTEX
8
Layer 1
10
4.467082
20
11.212830
70
0
0
VERTEX
8
Layer 1
10
4.467082
20
11.138890
70
0
0
VERTEX
8
Layer 1
10
4.522853
20
11.095020
70
0
0
VERTEX
8
Layer 1
10
4.578624
20
11.051150
70
0
0
VERTEX
8
Layer 1
10
4.640232
20
11.051150
70
0
0
VERTEX
8
Layer 1
10
4.701840
20
11.051150
70
0
0
VERTEX
8
Layer 1
10
4.753794
20
11.103120
70
0
0
SEQEND
8
Layer 1
0
POLYLINE
8
Layer 1
62
7
70
0
10
0.000000
20
0.000000
66
1
0
VERTEX
8
Layer 1
10
13.364811
20
11.095020
70
0
0
VERTEX
8
Layer 1
10
13.420581
20
11.138890
70
0
0
VERTEX
8
Layer 1
10
13.420581
20
11.219670
70
0
0
VERTEX
8
Layer 1
10
13.420581
20
11.300460
70
0
0
VERTEX
8
Layer 1
10
13.380971
20
11.349370
70
0
0
VERTEX
8
Layer 1
10
13.341361
20
11.398280
70
0
0
VERTEX
8
Layer 1
10
13.261811
20
11.398280
70
0
0
VERTEX
8
Layer 1
10
13.182261
20
11.398280
70
0
0
VERTEX
8
Layer 1
10
13.132091
20
11.339950
70
0
0
VERTEX
8
Layer 1
10
13.081921
20
11.281620
70
0
0
VERTEX
8
Layer 1
10
13.081921
20
11.218340
70
0
0
VERTEX
8
Layer 1
10
13.081921
20
11.155060
70
0
0
VERTEX
8
Layer 1
10
13.133871
20
11.103110
70
0
0
VERTEX
8
Layer 1
10
13.185821
20
11.051160
70
0
0
VERTEX
8
Layer 1
10
13.247431
20
11.051160
70
0
0
VERTEX
8
Layer 1
10
13.309041
20
11.051160
70
0
0
VERTEX
8
Layer 1
10
13.364811
20
11.095020
70
0
0
SEQEND
8
Layer 1
0
POLYLINE
8
Layer 1
62
7
70
0
10
0.000000
20
0.000000
66
1
0
VERTEX
8
Layer 1
10
2.623216
20
12.110780
70
0
0
VERTEX
8
Layer 1
10
2.716100
20
12.132190
70
0
0
VERTEX
8
Layer 1
10
2.826924
20
12.184620
70
0
0
VERTEX
8
Layer 1
10
2.937748
20
12.237050
70
0
0
VERTEX
8
Layer 1
10
3.034321
20
12.322060
70
0
0
VERTEX
8
Layer 1
10
3.130894
20
12.407070
70
0
0
VERTEX
8
Layer 1
10
3.195739
20
12.536836
70
0
0
VERTEX
8
Layer 1
10
3.260583
20
12.666601
70
0
0
VERTEX
8
Layer 1
10
3.260118
20
12.806095
70
0
0
VERTEX
8
Layer 1
10
3.259653
20
12.945589
70
0
0
VERTEX
8
Layer 1
10
3.216587
20
13.040839
70
0
0
VERTEX
8
Layer 1
10
3.173521
20
13.136089
70
0
0
VERTEX
8
Layer 1
10
3.105927
20
13.207189
70
0
0
VERTEX
8
Layer 1
10
3.038333
20
13.278289
70
0
0
VERTEX
8
Layer 1
10
2.955913
20
13.331089
70
0
0
VERTEX
8
Layer 1
10
2.873493
20
13.383889
70
0
0
VERTEX
8
Layer 1
10
2.754829
20
13.425409
70
0
0
VERTEX
8
Layer 1
10
2.636166
20
13.466929
70
0
0
VERTEX
8
Layer 1
10
2.395288
20
13.508119
70
0
0
VERTEX
8
Layer 1
10
2.154411
20
13.549309
70
0
0
VERTEX
8
Layer 1
10
2.067205
20
13.588309
70
0
0
VERTEX
8
Layer 1
10
1.979999
20
13.627309
70
0
0
VERTEX
8
Layer 1
10
1.921362
20
13.686649
70
0
0
VERTEX
8
Layer 1
10
1.862725
20
13.745989
70
0
0
VERTEX
8
Layer 1
10
1.850241
20
13.795729
70
0
0
VERTEX
8
Layer 1
10
1.837757
20
13.845469
70
0
0
VERTEX
8
Layer 1
10
1.851218
20
13.917219
70
0
0
VERTEX
8
Layer 1
10
1.864679
20
13.988969
70
0
0
VERTEX
8
Layer 1
10
1.957753
20
14.074759
70
0
0
VERTEX
8
Layer 1
10
2.050827
20
14.160549
70
0
0
VERTEX
8
Layer 1
10
2.172483
20
14.195919
70
0
0
VERTEX
8
Layer 1
10
2.294139
20
14.231289
70
0
0
VERTEX
8
Layer 1
10
2.443986
20
14.221589
70
0
0
VERTEX
8
Layer 1
10
2.593833
20
14.211889
70
0
0
VERTEX
8
Layer 1
10
2.699666
20
14.165479
70
0
0
VERTEX
8
Layer 1
10
2.805499
20
14.119069
70
0
0
VERTEX
8
Layer 1
10
2.925963
20
13.989815
70
0
0
VERTEX
8
Layer 1
10
3.046427
20
13.860561
70
0
0
VERTEX
8
Layer 1
10
3.116463
20
13.874101
70
0
0
VERTEX
8
Layer 1
10
3.186499
20
13.887641
70
0
0
VERTEX
8
Layer 1
10
3.223541
20
13.932251
70
0
0
VERTEX
8
Layer 1
10
3.260583
20
13.976871
70
0
0
VERTEX
8
Layer 1
10
3.260583
20
14.039421
70
0
0
VERTEX
8
Layer 1
10
3.260583
20
14.101971
70
0
0
VERTEX
8
Layer 1
10
3.236272
20
14.148201
70
0
0
VERTEX
8
Layer 1
10
3.211961
20
14.194431
70
0
0
VERTEX
8
Layer 1
10
3.159395
20
14.257931
70
0
0
VERTEX
8
Layer 1
10
3.106829
20
14.321431
70
0
0
VERTEX
8
Layer 1
10
3.002103
20
14.400481
70
0
0
VERTEX
8
Layer 1
10
2.897377
20
14.479531
70
0
0
VERTEX
8
Layer 1
10
2.766417
20
14.519981
70
0
0
VERTEX
8
Layer 1
10
2.635457
20
14.560431
70
0
0
VERTEX
8
Layer 1
10
2.498229
20
14.574801
70
0
0
VERTEX
8
Layer 1
10
2.361000
20
14.589171
70
0
0
VERTEX
8
Layer 1
10
2.213441
20
14.565271
70
0
0
VERTEX
8
Layer 1
10
2.065881
20
14.541371
70
0
0
VERTEX
8
Layer 1
10
1.938274
20
14.480401
70
0
0
VERTEX
8
Layer 1
10
1.810667
20
14.419421
70
0
0
VERTEX
8
Layer 1
10
1.721598
20
14.343081
70
0
0
VERTEX
8
Layer 1
10
1.632529
20
14.266741
70
0
0
VERTEX
8
Layer 1
10
1.568181
20
14.135338
70
0
0
VERTEX
8
Layer 1
10
1.503833
20
14.003935
70
0
0
VERTEX
8
Layer 1
10
1.490773
20
13.906605
70
0
0
VERTEX
8
Layer 1
10
1.477713
20
13.809275
70
0
0
VERTEX
8
Layer 1
10
1.513299
20
13.686864
70
0
0
VERTEX
8
Layer 1
10
1.548885
20
13.564452
70
0
0
VERTEX
8
Layer 1
10
1.658611
20
13.454807
70
0
0
VERTEX
8
Layer 1
10
1.768336
20
13.345162
70
0
0
VERTEX
8
Layer 1
10
1.886184
20
13.289462
70
0
0
VERTEX
8
Layer 1
10
2.004032
20
13.233762
70
0
0
VERTEX
8
Layer 1
10
2.140184
20
13.201622
70
0
0
VERTEX
8
Layer 1
10
2.276336
20
13.169482
70
0
0
VERTEX
8
Layer 1
10
2.430668
20
13.145442
70
0
0
VERTEX
8
Layer 1
10
2.585000
20
13.121402
70
0
0
VERTEX
8
Layer 1
10
2.716418
20
13.054672
70
0
0
VERTEX
8
Layer 1
10
2.847836
20
12.987942
70
0
0
VERTEX
8
Layer 1
10
2.888038
20
12.912852
70
0
0
VERTEX
8
Layer 1
10
2.928240
20
12.837772
70
0
0
VERTEX
8
Layer 1
10
2.913316
20
12.758222
70
0
0
VERTEX
8
Layer 1
10
2.898392
20
12.678672
70
0
0
VERTEX
8
Layer 1
10
2.819787
20
12.600472
70
0
0
VERTEX
8
Layer 1
10
2.741182
20
12.522282
70
0
0
VERTEX
8
Layer 1
10
2.626569
20
12.481712
70
0
0
VERTEX
8
Layer 1
10
2.511956
20
12.441142
70
0
0
VERTEX
8
Layer 1
10
2.362396
20
12.441175
70
0
0
VERTEX
8
Layer 1
10
2.212837
20
12.441208
70
0
0
VERTEX
8
Layer 1
10
2.101254
20
12.478308
70
0
0
VERTEX
8
Layer 1
10
1.989671
20
12.515408
70
0
0
VERTEX
8
Layer 1
10
1.921337
20
12.583068
70
0
0
VERTEX
8
Layer 1
10
1.853003
20
12.650728
70
0
0
VERTEX
8
Layer 1
10
1.796704
20
12.718798
70
0
0
VERTEX
8
Layer 1
10
1.740406
20
12.786868
70
0
0
VERTEX
8
Layer 1
10
1.673605
20
12.786868
70
0
0
VERTEX
8
Layer 1
10
1.606804
20
12.786868
70
0
0
VERTEX
8
Layer 1
10
1.568089
20
12.766148
70
0
0
VERTEX
8
Layer 1
10
1.529374
20
12.745428
70
0
0
VERTEX
8
Layer 1
10
1.506452
20
12.679678
70
0
0
VERTEX
8
Layer 1
10
1.483530
20
12.613928
70
0
0
VERTEX
8
Layer 1
10
1.513195
20
12.542928
70
0
0
VERTEX
8
Layer 1
10
1.542860
20
12.471928
70
0
0
VERTEX
8
Layer 1
10
1.633215
20
12.373908
70
0
0
VERTEX
8
Layer 1
10
1.723570
20
12.275888
70
0
0
VERTEX
8
Layer 1
10
1.820037
20
12.219318
70
0
0
VERTEX
8
Layer 1
10
1.916504
20
12.162748
70
0
0
VERTEX
8
Layer 1
10
2.054088
20
12.126788
70
0
0
VERTEX
8
Layer 1
10
2.191671
20
12.090828
70
0
0
VERTEX
8
Layer 1
10
2.361004
20
12.090125
70
0
0
VERTEX
8
Layer 1
10
2.530338
20
12.089422
70
0
0
VERTEX
8
Layer 1
10
2.623216
20
12.110780
70
0
0
SEQEND
8
Layer 1
0
POLYLINE
8
Layer 1
62
7
70
0
10
0.000000
20
0.000000
66
1
0
VERTEX
8
Layer 1
10
4.617083
20
12.115480
70
0
0
VERTEX
8
Layer 1
10
4.650667
20
12.141260
70
0
0
VERTEX
8
Layer 1
10
4.675291
20
12.187490
70
0
0
VERTEX
8
Layer 1
10
4.699915
20
12.233720
70
0
0
VERTEX
8
Layer 1
10
4.699915
20
13.229945
70
0
0
VERTEX
8
Layer 1
10
4.699915
20
14.226170
70
0
0
VERTEX
8
Layer 1
10
4.991539
20
14.226170
70
0
0
VERTEX
8
Layer 1
10
5.283163
20
14.226170
70
0
0
VERTEX
8
Layer 1
10
5.331542
20
14.260060
70
0
0
VERTEX
8
Layer 1
10
5.379920
20
14.293950
70
0
0
VERTEX
8
Layer 1
10
5.399612
20
14.345740
70
0
0
VERTEX
8
Layer 1
10
5.419304
20
14.397530
70
0
0
VERTEX
8
Layer 1
10
5.388718
20
14.470740
70
0
0
VERTEX
8
Layer 1
10
5.358131
20
14.543940
70
0
0
VERTEX
8
Layer 1
10
5.302812
20
14.564970
70
0
0
VERTEX
8
Layer 1
10
5.247494
20
14.586000
70
0
0
VERTEX
8
Layer 1
10
4.519999
20
14.586000
70
0
0
VERTEX
8
Layer 1
10
3.792505
20
14.586000
70
0
0
VERTEX
8
Layer 1
10
3.737256
20
14.564990
70
0
0
VERTEX
8
Layer 1
10
3.682007
20
14.543980
70
0
0
VERTEX
8
Layer 1
10
3.654488
20
14.478530
70
0
0
VERTEX
8
Layer 1
10
3.626969
20
14.413080
70
0
0
VERTEX
8
Layer 1
10
3.636839
20
14.361470
70
0
0
VERTEX
8
Layer 1
10
3.646709
20
14.309860
70
0
0
VERTEX
8
Layer 1
10
3.699922
20
14.268000
70
0
0
VERTEX
8
Layer 1
10
3.753135
20
14.226140
70
0
0
VERTEX
8
Layer 1
10
4.046614
20
14.226140
70
0
0
VERTEX
8
Layer 1
10
4.340092
20
14.226140
70
0
0
VERTEX
8
Layer 1
10
4.340092
20
13.229915
70
0
0
VERTEX
8
Layer 1
10
4.340092
20
12.233690
70
0
0
VERTEX
8
Layer 1
10
4.364717
20
12.187460
70
0
0
VERTEX
8
Layer 1
10
4.389341
20
12.141230
70
0
0
VERTEX
8
Layer 1
10
4.422925
20
12.115450
70
0
0
VERTEX
8
Layer 1
10
4.456509
20
12.089660
70
0
0
VERTEX
8
Layer 1
10
4.520009
20
12.089660
70
0
0
VERTEX
8
Layer 1
10
4.583509
20
12.089660
70
0
0
VERTEX
8
Layer 1
10
4.617083
20
12.115480
70
0
0
SEQEND
8
Layer 1
0
POLYLINE
8
Layer 1
62
7
70
0
10
0.000000
20
0.000000
66
1
0
VERTEX
8
Layer 1
10
6.040872
20
12.132000
70
0
0
VERTEX
8
Layer 1
10
6.096370
20
12.175660
70
0
0
VERTEX
8
Layer 1
10
6.101930
20
12.909880
70
0
0
VERTEX
8
Layer 1
10
6.107490
20
13.644100
70
0
0
VERTEX
8
Layer 1
10
6.398126
20
13.068270
70
0
0
VERTEX
8
Layer 1
10
6.688762
20
12.492440
70
0
0
VERTEX
8
Layer 1
10
6.730109
20
12.470310
70
0
0
VERTEX
8
Layer 1
10
6.771456
20
12.448180
70
0
0
VERTEX
8
Layer 1
10
6.827156
20
12.448180
70
0
0
VERTEX
8
Layer 1
10
6.882856
20
12.448180
70
0
0
VERTEX
8
Layer 1
10
6.918506
20
12.467560
70
0
0
VERTEX
8
Layer 1
10
6.954156
20
12.486940
70
0
0
VERTEX
8
Layer 1
10
7.239906
20
13.060962
70
0
0
VERTEX
8
Layer 1
10
7.525656
20
13.634984
70
0
0
VERTEX
8
Layer 1
10
7.536239
20
12.912725
70
0
0
VERTEX
8
Layer 1
10
7.546822
20
12.190466
70
0
0
VERTEX
8
Layer 1
10
7.606211
20
12.139406
70
0
0
VERTEX
8
Layer 1
10
7.665600
20
12.088346
70
0
0
VERTEX
8
Layer 1
10
7.728882
20
12.088346
70
0
0
VERTEX
8
Layer 1
10
7.792164
20
12.088346
70
0
0
VERTEX
8
Layer 1
10
7.844118
20
12.140296
70
0
0
VERTEX
8
Layer 1
10
7.896073
20
12.192246
70
0
0
VERTEX
8
Layer 1
10
7.896073
20
13.322771
70
0
0
VERTEX
8
Layer 1
10
7.896073
20
14.453295
70
0
0
VERTEX
8
Layer 1
10
7.854074
20
14.506685
70
0
0
VERTEX
8
Layer 1
10
7.812075
20
14.560075
70
0
0
VERTEX
8
Layer 1
10
7.757794
20
14.573695
70
0
0
VERTEX
8
Layer 1
10
7.703513
20
14.587315
70
0
0
VERTEX
8
Layer 1
10
7.649164
20
14.560195
70
0
0
VERTEX
8
Layer 1
10
7.594815
20
14.533075
70
0
0
VERTEX
8
Layer 1
10
7.207509
20
13.772851
70
0
0
VERTEX
8
Layer 1
10
6.820203
20
13.012627
70
0
0
VERTEX
8
Layer 1
10
6.438935
20
13.774933
70
0
0
VERTEX
8
Layer 1
10
6.057668
20
14.537240
70
0
0
VERTEX
8
Layer 1
10
5.994181
20
14.563540
70
0
0
VERTEX
8
Layer 1
10
5.930694
20
14.589840
70
0
0
VERTEX
8
Layer 1
10
5.886084
20
14.575680
70
0
0
VERTEX
8
Layer 1
10
5.841474
20
14.561520
70
0
0
VERTEX
8
Layer 1
10
5.799857
20
14.516850
70
0
0
VERTEX
8
Layer 1
10
5.758240
20
14.472180
70
0
0
VERTEX
8
Layer 1
10
5.758240
20
13.332209
70
0
0
VERTEX
8
Layer 1
10
5.758240
20
12.192238
70
0
0
VERTEX
8
Layer 1
10
5.810195
20
12.140288
70
0
0
VERTEX
8
Layer 1
10
5.862149
20
12.088338
70
0
0
VERTEX
8
Layer 1
10
5.923757
20
12.088338
70
0
0
VERTEX
8
Layer 1
10
5.985365
20
12.088338
70
0
0
VERTEX
8
Layer 1
10
6.040872
20
12.132000
70
0
0
SEQEND
8
Layer 1
0
POLYLINE
8
Layer 1
62
7
70
0
10
0.000000
20
0.000000
66
1
0
VERTEX
8
Layer 1
10
9.232057
20
12.147920
70
0
0
VERTEX
8
Layer 1
10
9.328032
20
12.194380
70
0
0
VERTEX
8
Layer 1
10
9.415502
20
12.269250
70
0
0
VERTEX
8
Layer 1
10
9.502972
20
12.344120
70
0
0
VERTEX
8
Layer 1
10
9.572653
20
12.485662
70
0
0
VERTEX
8
Layer 1
10
9.642334
20
12.627203
70
0
0
VERTEX
8
Layer 1
10
9.642017
20
12.796982
70
0
0
VERTEX
8
Layer 1
10
9.641701
20
12.966760
70
0
0
VERTEX
8
Layer 1
10
9.594838
20
13.068985
70
0
0
VERTEX
8
Layer 1
10
9.547975
20
13.171209
70
0
0
VERTEX
8
Layer 1
10
9.482054
20
13.254439
70
0
0
VERTEX
8
Layer 1
10
9.416133
20
13.337669
70
0
0
VERTEX
8
Layer 1
10
9.483695
20
13.414619
70
0
0
VERTEX
8
Layer 1
10
9.551257
20
13.491569
70
0
0
VERTEX
8
Layer 1
10
9.595203
20
13.588999
70
0
0
VERTEX
8
Layer 1
10
9.639149
20
13.686429
70
0
0
VERTEX
8
Layer 1
10
9.639986
20
13.866346
70
0
0
VERTEX
8
Layer 1
10
9.640822
20
14.046262
70
0
0
VERTEX
8
Layer 1
10
9.595450
20
14.146112
70
0
0
VERTEX
8
Layer 1
10
9.550078
20
14.245962
70
0
0
VERTEX
8
Layer 1
10
9.452999
20
14.349748
70
0
0
VERTEX
8
Layer 1
10
9.355920
20
14.453533
70
0
0
VERTEX
8
Layer 1
10
9.223961
20
14.513603
70
0
0
VERTEX
8
Layer 1
10
9.092001
20
14.573673
70
0
0
VERTEX
8
Layer 1
10
8.929692
20
14.573022
70
0
0
VERTEX
8
Layer 1
10
8.767382
20
14.572372
70
0
0
VERTEX
8
Layer 1
10
8.628955
20
14.504222
70
0
0
VERTEX
8
Layer 1
10
8.490528
20
14.436072
70
0
0
VERTEX
8
Layer 1
10
8.415657
20
14.348602
70
0
0
VERTEX
8
Layer 1
10
8.340786
20
14.261132
70
0
0
VERTEX
8
Layer 1
10
8.298352
20
14.173472
70
0
0
VERTEX
8
Layer 1
10
8.255918
20
14.085812
70
0
0
VERTEX
8
Layer 1
10
8.255918
20
14.042432
70
0
0
VERTEX
8
Layer 1
10
8.255918
20
13.999052
70
0
0
VERTEX
8
Layer 1
10
8.299788
20
13.943282
70
0
0
VERTEX
8
Layer 1
10
8.343658
20
13.887512
70
0
0
VERTEX
8
Layer 1
10
8.422079
20
13.887512
70
0
0
VERTEX
8
Layer 1
10
8.500500
20
13.887512
70
0
0
VERTEX
8
Layer 1
10
8.547543
20
13.920462
70
0
0
VERTEX
8
Layer 1
10
8.594586
20
13.953412
70
0
0
VERTEX
8
Layer 1
10
8.594586
20
13.983902
70
0
0
VERTEX
8
Layer 1
10
8.594586
20
14.014392
70
0
0
VERTEX
8
Layer 1
10
8.670066
20
14.097942
70
0
0
VERTEX
8
Layer 1
10
8.745546
20
14.181492
70
0
0
VERTEX
8
Layer 1
10
8.820743
20
14.206312
70
0
0
VERTEX
8
Layer 1
10
8.895940
20
14.231132
70
0
0
VERTEX
8
Layer 1
10
8.988545
20
14.220692
70
0
0
VERTEX
8
Layer 1
10
9.081150
20
14.210252
70
0
0
VERTEX
8
Layer 1
10
9.152390
20
14.155912
70
0
0
VERTEX
8
Layer 1
10
9.223630
20
14.101572
70
0
0
VERTEX
8
Layer 1
10
9.258359
20
14.028392
70
0
0
VERTEX
8
Layer 1
10
9.293088
20
13.955202
70
0
0
VERTEX
8
Layer 1
10
9.293088
20
13.862822
70
0
0
VERTEX
8
Layer 1
10
9.293088
20
13.770442
70
0
0
VERTEX
8
Layer 1
10
9.253896
20
13.696692
70
0
0
VERTEX
8
Layer 1
10
9.214703
20
13.622942
70
0
0
VERTEX
8
Layer 1
10
9.148568
20
13.577772
70
0
0
VERTEX
8
Layer 1
10
9.082433
20
13.532602
70
0
0
VERTEX
8
Layer 1
10
9.002552
20
13.518712
70
0
0
VERTEX
8
Layer 1
10
8.922671
20
13.504822
70
0
0
VERTEX
8
Layer 1
10
8.867208
20
13.483082
70
0
0
VERTEX
8
Layer 1
10
8.811745
20
13.461342
70
0
0
VERTEX
8
Layer 1
10
8.787833
20
13.408862
70
0
0
VERTEX
8
Layer 1
10
8.763921
20
13.356382
70
0
0
VERTEX
8
Layer 1
10
8.763921
20
13.314082
70
0
0
VERTEX
8
Layer 1
10
8.763921
20
13.271782
70
0
0
VERTEX
8
Layer 1
10
8.814180
20
13.221522
70
0
0
VERTEX
8
Layer 1
10
8.864439
20
13.171262
70
0
0
VERTEX
8
Layer 1
10
8.962908
20
13.156492
70
0
0
VERTEX
8
Layer 1
10
9.061377
20
13.141722
70
0
0
VERTEX
8
Layer 1
10
9.127662
20
13.096582
70
0
0
VERTEX
8
Layer 1
10
9.193946
20
13.051442
70
0
0
VERTEX
8
Layer 1
10
9.235890
20
12.994812
70
0
0
VERTEX
8
Layer 1
10
9.277834
20
12.938182
70
0
0
VERTEX
8
Layer 1
10
9.288131
20
12.831017
70
0
0
VERTEX
8
Layer 1
10
9.298428
20
12.723852
70
0
0
VERTEX
8
Layer 1
10
9.271984
20
12.660012
70
0
0
VERTEX
8
Layer 1
10
9.245540
20
12.596172
70
0
0
VERTEX
8
Layer 1
10
9.174343
20
12.533662
70
0
0
VERTEX
8
Layer 1
10
9.103146
20
12.471152
70
0
0
VERTEX
8
Layer 1
10
9.018201
20
12.448282
70
0
0
VERTEX
8
Layer 1
10
8.933257
20
12.425412
70
0
0
VERTEX
8
Layer 1
10
8.851353
20
12.447472
70
0
0
VERTEX
8
Layer 1
10
8.769450
20
12.469522
70
0
0
VERTEX
8
Layer 1
10
8.713347
20
12.513652
70
0
0
VERTEX
8
Layer 1
10
8.657244
20
12.557782
70
0
0
VERTEX
8
Layer 1
10
8.623441
20
12.624702
70
0
0
VERTEX
8
Layer 1
10
8.589638
20
12.691622
70
0
0
VERTEX
8
Layer 1
10
8.546091
20
12.739252
70
0
0
VERTEX
8
Layer 1
10
8.502544
20
12.786872
70
0
0
VERTEX
8
Layer 1
10
8.431188
20
12.786872
70
0
0
VERTEX
8
Layer 1
10
8.359832
20
12.786872
70
0
0
VERTEX
8
Layer 1
10
8.307877
20
12.734922
70
0
0
VERTEX
8
Layer 1
10
8.255923
20
12.682972
70
0
0
VERTEX
8
Layer 1
10
8.255923
20
12.628392
70
0
0
VERTEX
8
Layer 1
10
8.255923
20
12.573812
70
0
0
VERTEX
8
Layer 1
10
8.308325
20
12.473972
70
0
0
VERTEX
8
Layer 1
10
8.360727
20
12.374132
70
0
0
VERTEX
8
Layer 1
10
8.399348
20
12.331802
70
0
0
VERTEX
8
Layer 1
10
8.437969
20
12.289472
70
0
0
VERTEX
8
Layer 1
10
8.492623
20
12.240492
70
0
0
VERTEX
8
Layer 1
10
8.547277
20
12.191512
70
0
0
VERTEX
8
Layer 1
10
8.671474
20
12.139172
70
0
0
VERTEX
8
Layer 1
10
8.795672
20
12.086832
70
0
0
VERTEX
8
Layer 1
10
8.965880
20
12.094132
70
0
0
VERTEX
8
Layer 1
10
9.136088
20
12.101432
70
0
0
VERTEX
8
Layer 1
10
9.232057
20
12.147920
70
0
0
SEQEND
8
Layer 1
0
POLYLINE
8
Layer 1
62
7
70
0
10
0.000000
20
0.000000
66
1
0
VERTEX
8
Layer 1
10
11.357795
20
12.140320
70
0
0
VERTEX
8
Layer 1
10
11.409745
20
12.192270
70
0
0
VERTEX
8
Layer 1
10
11.409745
20
12.253880
70
0
0
VERTEX
8
Layer 1
10
11.409745
20
12.315490
70
0
0
VERTEX
8
Layer 1
10
11.365875
20
12.371260
70
0
0
VERTEX
8
Layer 1
10
11.322005
20
12.427030
70
0
0
VERTEX
8
Layer 1
10
10.931958
20
12.427030
70
0
0
VERTEX
8
Layer 1
10
10.541911
20
12.427030
70
0
0
VERTEX
8
Layer 1
10
10.541911
20
12.444140
70
0
0
VERTEX
8
Layer 1
10
10.541911
20
12.461250
70
0
0
VERTEX
8
Layer 1
10
10.941582
20
12.995755
70
0
0
VERTEX
8
Layer 1
10
11.341253
20
13.530259
70
0
0
VERTEX
8
Layer 1
10
11.377013
20
13.643941
70
0
0
VERTEX
8
Layer 1
10
11.412773
20
13.757623
70
0
0
VERTEX
8
Layer 1
10
11.412773
20
13.872911
70
0
0
VERTEX
8
Layer 1
10
11.412773
20
13.988200
70
0
0
VERTEX
8
Layer 1
10
11.390363
20
14.071410
70
0
0
VERTEX
8
Layer 1
10
11.367953
20
14.154620
70
0
0
VERTEX
8
Layer 1
10
11.301443
20
14.255029
70
0
0
VERTEX
8
Layer 1
10
11.234933
20
14.355439
70
0
0
VERTEX
8
Layer 1
10
11.140973
20
14.427179
70
0
0
VERTEX
8
Layer 1
10
11.047013
20
14.498919
70
0
0
VERTEX
8
Layer 1
10
10.937332
20
14.536309
70
0
0
VERTEX
8
Layer 1
10
10.827651
20
14.573699
70
0
0
VERTEX
8
Layer 1
10
10.700651
20
14.573699
70
0
0
VERTEX
8
Layer 1
10
10.573651
20
14.573699
70
0
0
VERTEX
8
Layer 1
10
10.462282
20
14.535739
70
0
0
VERTEX
8
Layer 1
10
10.350912
20
14.497789
70
0
0
VERTEX
8
Layer 1
10
10.235676
20
14.392470
70
0
0
VERTEX
8
Layer 1
10
10.120440
20
14.287151
70
0
0
VERTEX
8
Layer 1
10
10.064660
20
14.173134
70
0
0
VERTEX
8
Layer 1
10
10.008880
20
14.059117
70
0
0
VERTEX
8
Layer 1
10
10.022590
20
13.996677
70
0
0
VERTEX
8
Layer 1
10
10.036300
20
13.934237
70
0
0
VERTEX
8
Layer 1
10
10.072140
20
13.901937
70
0
0
VERTEX
8
Layer 1
10
10.107980
20
13.869637
70
0
0
VERTEX
8
Layer 1
10
10.166340
20
13.855067
70
0
0
VERTEX
8
Layer 1
10
10.224700
20
13.840497
70
0
0
VERTEX
8
Layer 1
10
10.278430
20
13.875697
70
0
0
VERTEX
8
Layer 1
10
10.332160
20
13.910897
70
0
0
VERTEX
8
Layer 1
10
10.356620
20
13.967987
70
0
0
VERTEX
8
Layer 1
10
10.381080
20
14.025077
70
0
0
VERTEX
8
Layer 1
10
10.420940
20
14.083767
70
0
0
VERTEX
8
Layer 1
10
10.460800
20
14.142457
70
0
0
VERTEX
8
Layer 1
10
10.542840
20
14.184307
70
0
0
VERTEX
8
Layer 1
10
10.624880
20
14.226157
70
0
0
VERTEX
8
Layer 1
10
10.700490
20
14.226157
70
0
0
VERTEX
8
Layer 1
10
10.776100
20
14.226157
70
0
0
VERTEX
8
Layer 1
10
10.844540
20
14.197557
70
0
0
VERTEX
8
Layer 1
10
10.912980
20
14.168957
70
0
0
VERTEX
8
Layer 1
10
10.980400
20
14.092177
70
0
0
VERTEX
8
Layer 1
10
11.047820
20
14.015397
70
0
0
VERTEX
8
Layer 1
10
11.061900
20
13.940367
70
0
0
VERTEX
8
Layer 1
10
11.075980
20
13.865337
70
0
0
VERTEX
8
Layer 1
10
11.055640
20
13.785187
70
0
0
VERTEX
8
Layer 1
10
11.035290
20
13.705037
70
0
0
VERTEX
8
Layer 1
10
10.524753
20
13.025001
70
0
0
VERTEX
8
Layer 1
10
10.014216
20
12.344965
70
0
0
VERTEX
8
Layer 1
10
10.001096
20
12.292705
70
0
0
VERTEX
8
Layer 1
10
9.987980
20
12.240445
70
0
0
VERTEX
8
Layer 1
10
10.014404
20
12.190845
70
0
0
VERTEX
8
Layer 1
10
10.040824
20
12.141245
70
0
0
VERTEX
8
Layer 1
10
10.074404
20
12.115465
70
0
0
VERTEX
8
Layer 1
10
10.107984
20
12.089675
70
0
0
VERTEX
8
Layer 1
10
10.706905
20
12.089002
70
0
0
VERTEX
8
Layer 1
10
11.305825
20
12.088328
70
0
0
VERTEX
8
Layer 1
10
11.357795
20
12.140320
70
0
0
SEQEND
8
Layer 1
0
POLYLINE
8
Layer 1
62
7
70
0
10
0.000000
20
0.000000
66
1
0
VERTEX
8
Layer 1
10
14.122763
20
12.167330
70
0
0
VERTEX
8
Layer 1
10
14.256666
20
12.230620
70
0
0
VERTEX
8
Layer 1
10
14.351916
20
12.315870
70
0
0
VERTEX
8
Layer 1
10
14.447166
20
12.401120
70
0
0
VERTEX
8
Layer 1
10
14.515066
20
12.514618
70
0
0
VERTEX
8
Layer 1
10
14.582966
20
12.628115
70
0
0
VERTEX
8
Layer 1
10
14.615616
20
12.754271
70
0
0
VERTEX
8
Layer 1
10
14.648266
20
12.880426
70
0
0
VERTEX
8
Layer 1
10
14.648266
20
13.668549
70
0
0
VERTEX
8
Layer 1
10
14.648266
20
14.456672
70
0
0
VERTEX
8
Layer 1
10
14.598096
20
14.515002
70
0
0
VERTEX
8
Layer 1
10
14.547926
20
14.573332
70
0
0
VERTEX
8
Layer 1
10
14.470626
20
14.573332
70
0
0
VERTEX
8
Layer 1
10
14.393326
20
14.573332
70
0
0
VERTEX
8
Layer 1
10
14.346166
20
14.526212
70
0
0
VERTEX
8
Layer 1
10
14.299006
20
14.479092
70
0
0
VERTEX
8
Layer 1
10
14.288426
20
13.638274
70
0
0
VERTEX
8
Layer 1
10
14.277846
20
12.797455
70
0
0
VERTEX
8
Layer 1
10
14.242426
20
12.732855
70
0
0
VERTEX
8
Layer 1
10
14.207006
20
12.668255
70
0
0
VERTEX
8
Layer 1
10
14.113636
20
12.582195
70
0
0
VERTEX
8
Layer 1
10
14.020276
20
12.496135
70
0
0
VERTEX
8
Layer 1
10
13.937386
20
12.468175
70
0
0
VERTEX
8
Layer 1
10
13.854496
20
12.440215
70
0
0
VERTEX
8
Layer 1
10
13.748663
20
12.441415
70
0
0
VERTEX
8
Layer 1
10
13.642830
20
12.442615
70
0
0
VERTEX
8
Layer 1
10
13.559300
20
12.477795
70
0
0
VERTEX
8
Layer 1
10
13.475770
20
12.512975
70
0
0
VERTEX
8
Layer 1
10
13.407480
20
12.565055
70
0
0
VERTEX
8
Layer 1
10
13.339190
20
12.617145
70
0
0
VERTEX
8
Layer 1
10
13.279340
20
12.739030
70
0
0
VERTEX
8
Layer 1
10
13.219490
20
12.860914
70
0
0
VERTEX
8
Layer 1
10
13.213790
20
13.644081
70
0
0
VERTEX
8
Layer 1
10
13.208090
20
14.427247
70
0
0
VERTEX
8
Layer 1
10
13.197580
20
14.474487
70
0
0
VERTEX
8
Layer 1
10
13.187070
20
14.521727
70
0
0
VERTEX
8
Layer 1
10
13.124930
20
14.553857
70
0
0
VERTEX
8
Layer 1
10
13.062790
20
14.585997
70
0
0
VERTEX
8
Layer 1
10
13.031610
20
14.585997
70
0
0
VERTEX
8
Layer 1
10
13.000430
20
14.585997
70
0
0
VERTEX
8
Layer 1
10
12.934220
20
14.530287
70
0
0
VERTEX
8
Layer 1
10
12.868010
20
14.474577
70
0
0
VERTEX
8
Layer 1
10
12.874410
20
13.614830
70
0
0
VERTEX
8
Layer 1
10
12.880810
20
12.755082
70
0
0
VERTEX
8
Layer 1
10
12.948220
20
12.612772
70
0
0
VERTEX
8
Layer 1
10
13.015640
20
12.470461
70
0
0
VERTEX
8
Layer 1
10
13.112540
20
12.366866
70
0
0
VERTEX
8
Layer 1
10
13.209440
20
12.263270
70
0
0
VERTEX
8
Layer 1
10
13.333366
20
12.197220
70
0
0
VERTEX
8
Layer 1
10
13.457291
20
12.131170
70
0
0
VERTEX
8
Layer 1
10
13.539461
20
12.110540
70
0
0
VERTEX
8
Layer 1
10
13.621631
20
12.089910
70
0
0
VERTEX
8
Layer 1
10
13.805227
20
12.096910
70
0
0
VERTEX
8
Layer 1
10
13.988824
20
12.103910
70
0
0
VERTEX
8
Layer 1
10
14.122763
20
12.167330
70
0
0
SEQEND
8
Layer 1
0
POLYLINE
8
Layer 1
62
7
70
0
10
0.000000
20
0.000000
66
1
0
VERTEX
8
Layer 1
10
16.160926
20
12.120820
70
0
0
VERTEX
8
Layer 1
10
16.285497
20
12.153270
70
0
0
VERTEX
8
Layer 1
10
16.387694
20
12.208890
70
0
0
VERTEX
8
Layer 1
10
16.489892
20
12.264510
70
0
0
VERTEX
8
Layer 1
10
16.576342
20
12.351070
70
0
0
VERTEX
8
Layer 1
10
16.662792
20
12.437620
70
0
0
VERTEX
8
Layer 1
10
16.718612
20
12.543454
70
0
0
VERTEX
8
Layer 1
10
16.774432
20
12.649287
70
0
0
VERTEX
8
Layer 1
10
16.774962
20
12.808037
70
0
0
VERTEX
8
Layer 1
10
16.775492
20
12.966787
70
0
0
VERTEX
8
Layer 1
10
16.712602
20
13.080330
70
0
0
VERTEX
8
Layer 1
10
16.649722
20
13.193873
70
0
0
VERTEX
8
Layer 1
10
16.564442
20
13.262983
70
0
0
VERTEX
8
Layer 1
10
16.479162
20
13.332093
70
0
0
VERTEX
8
Layer 1
10
16.394492
20
13.374643
70
0
0
VERTEX
8
Layer 1
10
16.309822
20
13.417193
70
0
0
VERTEX
8
Layer 1
10
16.197874
20
13.450383
70
0
0
VERTEX
8
Layer 1
10
16.085925
20
13.483573
70
0
0
VERTEX
8
Layer 1
10
15.914414
20
13.507053
70
0
0
VERTEX
8
Layer 1
10
15.742902
20
13.530533
70
0
0
VERTEX
8
Layer 1
10
15.627133
20
13.573843
70
0
0
VERTEX
8
Layer 1
10
15.511364
20
13.617153
70
0
0
VERTEX
8
Layer 1
10
15.449824
20
13.672963
70
0
0
VERTEX
8
Layer 1
10
15.388274
20
13.728773
70
0
0
VERTEX
8
Layer 1
10
15.370034
20
13.793903
70
0
0
VERTEX
8
Layer 1
10
15.351794
20
13.859033
70
0
0
VERTEX
8
Layer 1
10
15.380004
20
13.942073
70
0
0
VERTEX
8
Layer 1
10
15.408214
20
14.025113
70
0
0
VERTEX
8
Layer 1
10
15.477564
20
14.083613
70
0
0
VERTEX
8
Layer 1
10
15.546914
20
14.142113
70
0
0
VERTEX
8
Layer 1
10
15.663783
20
14.186353
70
0
0
VERTEX
8
Layer 1
10
15.780652
20
14.230593
70
0
0
VERTEX
8
Layer 1
10
15.955609
20
14.220133
70
0
0
VERTEX
8
Layer 1
10
16.130565
20
14.209673
70
0
0
VERTEX
8
Layer 1
10
16.245313
20
14.153533
70
0
0
VERTEX
8
Layer 1
10
16.360061
20
14.097393
70
0
0
VERTEX
8
Layer 1
10
16.434001
20
13.994468
70
0
0
VERTEX
8
Layer 1
10
16.507941
20
13.891543
70
0
0
VERTEX
8
Layer 1
10
16.575451
20
13.876713
70
0
0
VERTEX
8
Layer 1
10
16.642961
20
13.861883
70
0
0
VERTEX
8
Layer 1
10
16.698631
20
13.903323
70
0
0
VERTEX
8
Layer 1
10
16.754301
20
13.944763
70
0
0
VERTEX
8
Layer 1
10
16.774731
20
14.002133
70
0
0
VERTEX
8
Layer 1
10
16.795161
20
14.059503
70
0
0
VERTEX
8
Layer 1
10
16.745321
20
14.153463
70
0
0
VERTEX
8
Layer 1
10
16.695481
20
14.247423
70
0
0
VERTEX
8
Layer 1
10
16.601701
20
14.333873
70
0
0
VERTEX
8
Layer 1
10
16.507921
20
14.420323
70
0
0
VERTEX
8
Layer 1
10
16.375463
20
14.482303
70
0
0
VERTEX
8
Layer 1
10
16.243004
20
14.544283
70
0
0
VERTEX
8
Layer 1
10
16.062506
20
14.567583
70
0
0
VERTEX
8
Layer 1
10
15.882007
20
14.590883
70
0
0
VERTEX
8
Layer 1
10
15.729311
20
14.565123
70
0
0
VERTEX
8
Layer 1
10
15.576614
20
14.539373
70
0
0
VERTEX
8
Layer 1
10
15.432422
20
14.467233
70
0
0
VERTEX
8
Layer 1
10
15.288231
20
14.395093
70
0
0
VERTEX
8
Layer 1
10
15.202571
20
14.302163
70
0
0
VERTEX
8
Layer 1
10
15.116911
20
14.209233
70
0
0
VERTEX
8
Layer 1
10
15.070261
20
14.117793
70
0
0
VERTEX
8
Layer 1
10
15.023611
20
14.026353
70
0
0
VERTEX
8
Layer 1
10
15.013191
20
13.896501
70
0
0
VERTEX
8
Layer 1
10
15.002771
20
13.766649
70
0
0
VERTEX
8
Layer 1
10
15.029241
20
13.684209
70
0
0
VERTEX
8
Layer 1
10
15.055711
20
13.601769
70
0
0
VERTEX
8
Layer 1
10
15.121851
20
13.513329
70
0
0
VERTEX
8
Layer 1
10
15.187991
20
13.424889
70
0
0
VERTEX
8
Layer 1
10
15.299780
20
13.350789
70
0
0
VERTEX
8
Layer 1
10
15.411568
20
13.276689
70
0
0
VERTEX
8
Layer 1
10
15.543197
20
13.233679
70
0
0
VERTEX
8
Layer 1
10
15.674825
20
13.190669
70
0
0
VERTEX
8
Layer 1
10
15.872381
20
13.157129
70
0
0
VERTEX
8
Layer 1
10
16.069937
20
13.123589
70
0
0
VERTEX
8
Layer 1
10
16.183312
20
13.081169
70
0
0
VERTEX
8
Layer 1
10
16.296688
20
13.038749
70
0
0
VERTEX
8
Layer 1
10
16.361468
20
12.964969
70
0
0
VERTEX
8
Layer 1
10
16.426248
20
12.891189
70
0
0
VERTEX
8
Layer 1
10
16.426248
20
12.796739
70
0
0
VERTEX
8
Layer 1
10
16.426248
20
12.702289
70
0
0
VERTEX
8
Layer 1
10
16.351988
20
12.620089
70
0
0
VERTEX
8
Layer 1
10
16.277728
20
12.537889
70
0
0
VERTEX
8
Layer 1
10
16.166780
20
12.489989
70
0
0
VERTEX
8
Layer 1
10
16.055832
20
12.442089
70
0
0
VERTEX
8
Layer 1
10
15.886498
20
12.442644
70
0
0
VERTEX
8
Layer 1
10
15.717165
20
12.443199
70
0
0
VERTEX
8
Layer 1
10
15.595651
20
12.489459
70
0
0
VERTEX
8
Layer 1
10
15.474136
20
12.535719
70
0
0
VERTEX
8
Layer 1
10
15.364935
20
12.661271
70
0
0
VERTEX
8
Layer 1
10
15.255733
20
12.786822
70
0
0
VERTEX
8
Layer 1
10
15.183863
20
12.786822
70
0
0
VERTEX
8
Layer 1
10
15.111993
20
12.786822
70
0
0
VERTEX
8
Layer 1
10
15.060033
20
12.734872
70
0
0
VERTEX
8
Layer 1
10
15.008083
20
12.682922
70
0
0
VERTEX
8
Layer 1
10
15.008083
20
12.622092
70
0
0
VERTEX
8
Layer 1
10
15.008083
20
12.561262
70
0
0
VERTEX
8
Layer 1
10
15.073303
20
12.462802
70
0
0
VERTEX
8
Layer 1
10
15.138523
20
12.364342
70
0
0
VERTEX
8
Layer 1
10
15.219653
20
12.300082
70
0
0
VERTEX
8
Layer 1
10
15.300783
20
12.235822
70
0
0
VERTEX
8
Layer 1
10
15.417457
20
12.182402
70
0
0
VERTEX
8
Layer 1
10
15.534132
20
12.128982
70
0
0
VERTEX
8
Layer 1
10
15.625652
20
12.110972
70
0
0
VERTEX
8
Layer 1
10
15.717172
20
12.092962
70
0
0
VERTEX
8
Layer 1
10
15.876767
20
12.090662
70
0
0
VERTEX
8
Layer 1
10
16.036361
20
12.088362
70
0
0
VERTEX
8
Layer 1
10
16.160926
20
12.120820
70
0
0
SEQEND
8
Layer 1
0
POLYLINE
8
Layer 1
62
7
70
0
10
0.000000
20
0.000000
66
1
0
VERTEX
8
Layer 1
10
18.524745
20
12.157600
70
0
0
VERTEX
8
Layer 1
10
18.644157
20
12.216240
70
0
0
VERTEX
8
Layer 1
10
18.733007
20
12.312630
70
0
0
VERTEX
8
Layer 1
10
18.821857
20
12.409020
70
0
0
VERTEX
8
Layer 1
10
18.867487
20
12.507990
70
0
0
VERTEX
8
Layer 1
10
18.913117
20
12.606960
70
0
0
VERTEX
8
Layer 1
10
18.913072
20
12.797460
70
0
0
VERTEX
8
Layer 1
10
18.913027
20
12.987960
70
0
0
VERTEX
8
Layer 1
10
18.862737
20
13.083210
70
0
0
VERTEX
8
Layer 1
10
18.812447
20
13.178460
70
0
0
VERTEX
8
Layer 1
10
18.749667
20
13.258240
70
0
0
VERTEX
8
Layer 1
10
18.686887
20
13.338020
70
0
0
VERTEX
8
Layer 1
10
18.760507
20
13.419510
70
0
0
VERTEX
8
Layer 1
10
18.834127
20
13.501000
70
0
0
VERTEX
8
Layer 1
10
18.879017
20
13.620980
70
0
0
VERTEX
8
Layer 1
10
18.923907
20
13.740960
70
0
0
VERTEX
8
Layer 1
10
18.923405
20
13.872457
70
0
0
VERTEX
8
Layer 1
10
18.922902
20
14.003955
70
0
0
VERTEX
8
Layer 1
10
18.874372
20
14.121932
70
0
0
VERTEX
8
Layer 1
10
18.825832
20
14.239910
70
0
0
VERTEX
8
Layer 1
10
18.766892
20
14.313780
70
0
0
VERTEX
8
Layer 1
10
18.707942
20
14.387650
70
0
0
VERTEX
8
Layer 1
10
18.609552
20
14.454320
70
0
0
VERTEX
8
Layer 1
10
18.511162
20
14.520990
70
0
0
VERTEX
8
Layer 1
10
18.385007
20
14.553510
70
0
0
VERTEX
8
Layer 1
10
18.258851
20
14.586030
70
0
0
VERTEX
8
Layer 1
10
17.764257
20
14.586030
70
0
0
VERTEX
8
Layer 1
10
17.269660
20
14.586030
70
0
0
VERTEX
8
Layer 1
10
17.207790
20
14.524160
70
0
0
VERTEX
8
Layer 1
10
17.145920
20
14.462290
70
0
0
VERTEX
8
Layer 1
10
17.145920
20
13.327283
70
0
0
VERTEX
8
Layer 1
10
17.145920
20
12.192275
70
0
0
VERTEX
8
Layer 1
10
17.199120
20
12.139075
70
0
0
VERTEX
8
Layer 1
10
17.252320
20
12.085875
70
0
0
VERTEX
8
Layer 1
10
17.828831
20
12.092375
70
0
0
VERTEX
8
Layer 1
10
18.405343
20
12.098875
70
0
0
VERTEX
8
Layer 1
10
18.524745
20
12.157600
70
0
0
SEQEND
8
Layer 1
0
POLYLINE
8
Layer 1
62
7
70
0
10
0.000000
20
0.000000
66
1
0
VERTEX
8
Layer 1
10
17.505749
20
12.785226
70
0
0
VERTEX
8
Layer 1
10
17.505749
20
13.146709
70
0
0
VERTEX
8
Layer 1
10
17.921293
20
13.146709
70
0
0
VERTEX
8
Layer 1
10
18.336836
20
13.146709
70
0
0
VERTEX
8
Layer 1
10
18.403636
20
13.105419
70
0
0
VERTEX
8
Layer 1
10
18.470436
20
13.064129
70
0
0
VERTEX
8
Layer 1
10
18.519016
20
12.977689
70
0
0
VERTEX
8
Layer 1
10
18.567596
20
12.891249
70
0
0
VERTEX
8
Layer 1
10
18.567596
20
12.797459
70
0
0
VERTEX
8
Layer 1
10
18.567596
20
12.703669
70
0
0
VERTEX
8
Layer 1
10
18.521006
20
12.620769
70
0
0
VERTEX
8
Layer 1
10
18.474416
20
12.537869
70
0
0
VERTEX
8
Layer 1
10
18.386956
20
12.487749
70
0
0
VERTEX
8
Layer 1
10
18.299496
20
12.437629
70
0
0
VERTEX
8
Layer 1
10
17.902621
20
12.430729
70
0
0
VERTEX
8
Layer 1
10
17.505746
20
12.423829
70
0
0
VERTEX
8
Layer 1
10
17.505749
20
12.785226
70
0
0
SEQEND
8
Layer 1
0
POLYLINE
8
Layer 1
62
7
70
1
10
0.000000
20
0.000000
66
1
0
VERTEX
8
Layer 1
10
17.505749
20
13.867609
70
0
0
VERTEX
8
Layer 1
10
17.505749
20
14.228676
70
0
0
VERTEX
8
Layer 1
10
17.927599
20
14.222176
70
0
0
VERTEX
8
Layer 1
10
18.349448
20
14.215676
70
0
0
VERTEX
8
Layer 1
10
18.407828
20
14.172036
70
0
0
VERTEX
8
Layer 1
10
18.466218
20
14.128396
70
0
0
VERTEX
8
Layer 1
10
18.505968
20
14.075146
70
0
0
VERTEX
8
Layer 1
10
18.545718
20
14.021896
70
0
0
VERTEX
8
Layer 1
10
18.563248
20
13.944156
70
0
0
VERTEX
8
Layer 1
10
18.580778
20
13.866416
70
0
0
VERTEX
8
Layer 1
10
18.563248
20
13.788676
70
0
0
VERTEX
8
Layer 1
10
18.545718
20
13.710936
70
0
0
VERTEX
8
Layer 1
10
18.506028
20
13.656376
70
0
0
VERTEX
8
Layer 1
10
18.466338
20
13.601816
70
0
0
VERTEX
8
Layer 1
10
18.373138
20
13.554196
70
0
0
VERTEX
8
Layer 1
10
18.279938
20
13.506566
70
0
0
VERTEX
8
Layer 1
10
17.892840
20
13.506566
70
0
0
VERTEX
8
Layer 1
10
17.505741
20
13.506566
70
0
0
VERTEX
8
Layer 1
10
17.505749
20
13.867609
70
0
0
SEQEND
8
Layer 1
0
POLYLINE
8
Layer 1
62
7
70
0
10
0.000000
20
0.000000
66
1
0
VERTEX
8
Layer 1
10
66.908751
20
14.120376
70
0
0
VERTEX
8
Layer 1
10
66.908751
20
18.120876
70
0
0
VERTEX
8
Layer 1
10
68.453918
20
18.120876
70
0
0
VERTEX
8
Layer 1
10
69.999084
20
18.120876
70
0
0
VERTEX
8
Layer 1
10
69.999084
20
14.120376
70
0
0
VERTEX
8
Layer 1
10
69.999084
20
10.119875
70
0
0
VERTEX
8
Layer 1
10
68.453918
20
10.119875
70
0
0
VERTEX
8
Layer 1
10
66.908751
20
10.119875
70
0
0
VERTEX
8
Layer 1
10
66.908751
20
14.120376
70
0
0
SEQEND
8
Layer 1
0
POLYLINE
8
Layer 1
62
7
70
0
10
0.000000
20
0.000000
66
1
0
VERTEX
8
Layer 1
10
68.780603
20
12.302419
70
0
0
VERTEX
8
Layer 1
10
69.353501
20
12.516462
70
0
0
VERTEX
8
Layer 1
10
69.401131
20
12.546322
70
0
0
VERTEX
8
Layer 1
10
69.448751
20
12.576182
70
0
0
VERTEX
8
Layer 1
10
69.448751
20
12.646492
70
0
0
VERTEX
8
Layer 1
10
69.448751
20
12.716812
70
0
0
VERTEX
8
Layer 1
10
69.411711
20
12.749342
70
0
0
VERTEX
8
Layer 1
10
69.374671
20
12.781882
70
0
0
VERTEX
8
Layer 1
10
68.796932
20
12.998690
70
0
0
VERTEX
8
Layer 1
10
68.219194
20
13.215498
70
0
0
VERTEX
8
Layer 1
10
68.163214
20
13.215498
70
0
0
VERTEX
8
Layer 1
10
68.107234
20
13.215498
70
0
0
VERTEX
8
Layer 1
10
68.068914
20
13.168178
70
0
0
VERTEX
8
Layer 1
10
68.030594
20
13.120858
70
0
0
VERTEX
8
Layer 1
10
68.030594
20
13.083218
70
0
0
VERTEX
8
Layer 1
10
68.030594
20
13.045578
70
0
0
VERTEX
8
Layer 1
10
68.067634
20
13.001858
70
0
0
VERTEX
8
Layer 1
10
68.104674
20
12.958138
70
0
0
VERTEX
8
Layer 1
10
68.485674
20
12.817067
70
0
0
VERTEX
8
Layer 1
10
68.866674
20
12.675997
70
0
0
VERTEX
8
Layer 1
10
68.883044
20
12.661097
70
0
0
VERTEX
8
Layer 1
10
68.899414
20
12.646197
70
0
0
VERTEX
8
Layer 1
10
68.512629
20
12.502392
70
0
0
VERTEX
8
Layer 1
10
68.125844
20
12.358587
70
0
0
VERTEX
8
Layer 1
10
68.076614
20
12.313537
70
0
0
VERTEX
8
Layer 1
10
68.027384
20
12.268487
70
0
0
VERTEX
8
Layer 1
10
68.039854
20
12.204897
70
0
0
VERTEX
8
Layer 1
10
68.052324
20
12.141307
70
0
0
VERTEX
8
Layer 1
10
68.087834
20
12.114847
70
0
0
VERTEX
8
Layer 1
10
68.123344
20
12.088387
70
0
0
VERTEX
8
Layer 1
10
68.165524
20
12.088387
70
0
0
VERTEX
8
Layer 1
10
68.207704
20
12.088387
70
0
0
VERTEX
8
Layer 1
10
68.780603
20
12.302419
70
0
0
SEQEND
8
Layer 1
0
POLYLINE
8
Layer 1
62
7
70
0
10
0.000000
20
0.000000
66
1
0
VERTEX
8
Layer 1
10
68.822523
20
13.484913
70
0
0
VERTEX
8
Layer 1
10
68.986236
20
13.526783
70
0
0
VERTEX
8
Layer 1
10
69.088761
20
13.582583
70
0
0
VERTEX
8
Layer 1
10
69.191286
20
13.638383
70
0
0
VERTEX
8
Layer 1
10
69.280566
20
13.725923
70
0
0
VERTEX
8
Layer 1
10
69.369846
20
13.813463
70
0
0
VERTEX
8
Layer 1
10
69.408826
20
13.898133
70
0
0
VERTEX
8
Layer 1
10
69.447806
20
13.982803
70
0
0
VERTEX
8
Layer 1
10
69.448271
20
14.097829
70
0
0
VERTEX
8
Layer 1
10
69.448736
20
14.212854
70
0
0
VERTEX
8
Layer 1
10
69.405346
20
14.302474
70
0
0
VERTEX
8
Layer 1
10
69.361956
20
14.392094
70
0
0
VERTEX
8
Layer 1
10
69.269866
20
14.476984
70
0
0
VERTEX
8
Layer 1
10
69.177776
20
14.561874
70
0
0
VERTEX
8
Layer 1
10
69.096046
20
14.603574
70
0
0
VERTEX
8
Layer 1
10
69.014306
20
14.645274
70
0
0
VERTEX
8
Layer 1
10
68.855812
20
14.694664
70
0
0
VERTEX
8
Layer 1
10
68.697318
20
14.744054
70
0
0
VERTEX
8
Layer 1
10
68.453902
20
14.743153
70
0
0
VERTEX
8
Layer 1
10
68.210485
20
14.742252
70
0
0
VERTEX
8
Layer 1
10
68.084389
20
14.704622
70
0
0
VERTEX
8
Layer 1
10
67.958293
20
14.666992
70
0
0
VERTEX
8
Layer 1
10
67.854037
20
14.614162
70
0
0
VERTEX
8
Layer 1
10
67.749780
20
14.561332
70
0
0
VERTEX
8
Layer 1
10
67.649034
20
14.467092
70
0
0
VERTEX
8
Layer 1
10
67.548288
20
14.372852
70
0
0
VERTEX
8
Layer 1
10
67.501238
20
14.263484
70
0
0
VERTEX
8
Layer 1
10
67.454188
20
14.154116
70
0
0
VERTEX
8
Layer 1
10
67.466468
20
14.050415
70
0
0
VERTEX
8
Layer 1
10
67.478748
20
13.946715
70
0
0
VERTEX
8
Layer 1
10
67.531598
20
13.856535
70
0
0
VERTEX
8
Layer 1
10
67.584448
20
13.766355
70
0
0
VERTEX
8
Layer 1
10
67.663988
20
13.696515
70
0
0
VERTEX
8
Layer 1
10
67.743528
20
13.626675
70
0
0
VERTEX
8
Layer 1
10
67.880947
20
13.564365
70
0
0
VERTEX
8
Layer 1
10
68.018365
20
13.502055
70
0
0
VERTEX
8
Layer 1
10
68.146172
20
13.474235
70
0
0
VERTEX
8
Layer 1
10
68.273979
20
13.446415
70
0
0
VERTEX
8
Layer 1
10
68.466385
20
13.444715
70
0
0
VERTEX
8
Layer 1
10
68.658791
20
13.443015
70
0
0
VERTEX
8
Layer 1
10
68.822523
20
13.484913
70
0
0
SEQEND
8
Layer 1
0
POLYLINE
8
Layer 1
62
7
70
0
10
0.000000
20
0.000000
66
1
0
VERTEX
8
Layer 1
10
68.199915
20
13.747970
70
0
0
VERTEX
8
Layer 1
10
68.083498
20
13.774180
70
0
0
VERTEX
8
Layer 1
10
68.007878
20
13.807040
70
0
0
VERTEX
8
Layer 1
10
67.932258
20
13.839910
70
0
0
VERTEX
8
Layer 1
10
67.857028
20
13.905960
70
0
0
VERTEX
8
Layer 1
10
67.781798
20
13.972010
70
0
0
VERTEX
8
Layer 1
10
67.756588
20
14.032860
70
0
0
VERTEX
8
Layer 1
10
67.731378
20
14.093710
70
0
0
VERTEX
8
Layer 1
10
67.762928
20
14.169230
70
0
0
VERTEX
8
Layer 1
10
67.794478
20
14.244750
70
0
0
VERTEX
8
Layer 1
10
67.884798
20
14.310170
70
0
0
VERTEX
8
Layer 1
10
67.975118
20
14.375590
70
0
0
VERTEX
8
Layer 1
10
68.124555
20
14.421580
70
0
0
VERTEX
8
Layer 1
10
68.273993
20
14.467570
70
0
0
VERTEX
8
Layer 1
10
68.464493
20
14.467900
70
0
0
VERTEX
8
Layer 1
10
68.654993
20
14.468229
70
0
0
VERTEX
8
Layer 1
10
68.812689
20
14.417289
70
0
0
VERTEX
8
Layer 1
10
68.970385
20
14.366349
70
0
0
VERTEX
8
Layer 1
10
69.071981
20
14.268429
70
0
0
VERTEX
8
Layer 1
10
69.173576
20
14.170499
70
0
0
VERTEX
8
Layer 1
10
69.173576
20
14.099819
70
0
0
VERTEX
8
Layer 1
10
69.173576
20
14.029129
70
0
0
VERTEX
8
Layer 1
10
69.123206
20
13.963089
70
0
0
VERTEX
8
Layer 1
10
69.072836
20
13.897049
70
0
0
VERTEX
8
Layer 1
10
68.965100
20
13.838409
70
0
0
VERTEX
8
Layer 1
10
68.857365
20
13.779769
70
0
0
VERTEX
8
Layer 1
10
68.713847
20
13.749359
70
0
0
VERTEX
8
Layer 1
10
68.570328
20
13.718949
70
0
0
VERTEX
8
Layer 1
10
68.443328
20
13.720349
70
0
0
VERTEX
8
Layer 1
10
68.316328
20
13.721749
70
0
0
VERTEX
8
Layer 1
10
68.199915
20
13.747970
70
0
0
SEQEND
8
Layer 1
0
POLYLINE
8
Layer 1
62
7
70
0
10
0.000000
20
0.000000
66
1
0
VERTEX
8
Layer 1
10
69.401705
20
15.063493
70
0
0
VERTEX
8
Layer 1
10
69.448745
20
15.096443
70
0
0
VERTEX
8
Layer 1
10
69.448745
20
15.162373
70
0
0
VERTEX
8
Layer 1
10
69.448745
20
15.228293
70
0
0
VERTEX
8
Layer 1
10
69.413715
20
15.267003
70
0
0
VERTEX
8
Layer 1
10
69.378685
20
15.305713
70
0
0
VERTEX
8
Layer 1
10
69.318465
20
15.305713
70
0
0
VERTEX
8
Layer 1
10
69.258245
20
15.305713
70
0
0
VERTEX
8
Layer 1
10
69.215915
20
15.263383
70
0
0
VERTEX
8
Layer 1
10
69.173585
20
15.221053
70
0
0
VERTEX
8
Layer 1
10
69.173585
20
15.168133
70
0
0
VERTEX
8
Layer 1
10
69.173585
20
15.115213
70
0
0
VERTEX
8
Layer 1
10
69.215915
20
15.072883
70
0
0
VERTEX
8
Layer 1
10
69.258245
20
15.030553
70
0
0
VERTEX
8
Layer 1
10
69.306455
20
15.030553
70
0
0
VERTEX
8
Layer 1
10
69.354665
20
15.030553
70
0
0
VERTEX
8
Layer 1
10
69.401705
20
15.063493
70
0
0
SEQEND
8
Layer 1
0
POLYLINE
8
Layer 1
62
7
70
0
10
0.000000
20
0.000000
66
1
0
VERTEX
8
Layer 1
10
67.978627
20
15.632830
70
0
0
VERTEX
8
Layer 1
10
68.030577
20
15.684780
70
0
0
VERTEX
8
Layer 1
10
68.030577
20
15.725220
70
0
0
VERTEX
8
Layer 1
10
68.030577
20
15.765660
70
0
0
VERTEX
8
Layer 1
10
67.986707
20
15.821430
70
0
0
VERTEX
8
Layer 1
10
67.942837
20
15.877200
70
0
0
VERTEX
8
Layer 1
10
68.657082
20
15.877200
70
0
0
VERTEX
8
Layer 1
10
69.371326
20
15.877200
70
0
0
VERTEX
8
Layer 1
10
69.410036
20
15.912230
70
0
0
VERTEX
8
Layer 1
10
69.448746
20
15.947260
70
0
0
VERTEX
8
Layer 1
10
69.448746
20
16.007480
70
0
0
VERTEX
8
Layer 1
10
69.448746
20
16.067700
70
0
0
VERTEX
8
Layer 1
10
69.406416
20
16.110030
70
0
0
VERTEX
8
Layer 1
10
69.364086
20
16.152360
70
0
0
VERTEX
8
Layer 1
10
68.463541
20
16.152360
70
0
0
VERTEX
8
Layer 1
10
67.562995
20
16.152360
70
0
0
VERTEX
8
Layer 1
10
67.511045
20
16.100410
70
0
0
VERTEX
8
Layer 1
10
67.459095
20
16.048460
70
0
0
VERTEX
8
Layer 1
10
67.459095
20
16.001160
70
0
0
VERTEX
8
Layer 1
10
67.459095
20
15.953860
70
0
0
VERTEX
8
Layer 1
10
67.645591
20
15.767364
70
0
0
VERTEX
8
Layer 1
10
67.832086
20
15.580869
70
0
0
VERTEX
8
Layer 1
10
67.879386
20
15.580869
70
0
0
VERTEX
8
Layer 1
10
67.926686
20
15.580869
70
0
0
VERTEX
8
Layer 1
10
67.978627
20
15.632830
70
0
0
SEQEND
8
Layer 1
0
POLYLINE
8
Layer 1
62
7
70
1
10
0.000000
20
0.000000
66
1
0
VERTEX
8
Layer 1
10
0.000916
20
28.630084
70
0
0
VERTEX
8
Layer 1
10
0.000916
20
36.853334
70
0
0
VERTEX
8
Layer 1
10
4.001416
20
36.853334
70
0
0
VERTEX
8
Layer 1
10
8.001916
20
36.853334
70
0
0
VERTEX
8
Layer 1
10
8.001916
20
28.630084
70
0
0
VERTEX
8
Layer 1
10
8.001916
20
20.406833
70
0
0
VERTEX
8
Layer 1
10
4.001416
20
20.406833
70
0
0
VERTEX
8
Layer 1
10
0.000916
20
20.406833
70
0
0
VERTEX
8
Layer 1
10
0.000916
20
28.630084
70
0
0
SEQEND
8
Layer 1
0
POLYLINE
8
Layer 1
62
7
70
1
10
0.000000
20
0.000000
66
1
0
VERTEX
8
Layer 1
10
7.599749
20
27.286000
70
0
0
VERTEX
8
Layer 1
10
7.599749
20
33.763001
70
0
0
VERTEX
8
Layer 1
10
4.001416
20
33.763001
70
0
0
VERTEX
8
Layer 1
10
0.403082
20
33.763001
70
0
0
VERTEX
8
Layer 1
10
0.403082
20
27.286000
70
0
0
VERTEX
8
Layer 1
10
0.403082
20
20.809000
70
0
0
VERTEX
8
Layer 1
10
4.001416
20
20.809000
70
0
0
VERTEX
8
Layer 1
10
7.599749
20
20.809000
70
0
0
VERTEX
8
Layer 1
10
7.599749
20
27.286000
70
0
0
SEQEND
8
Layer 1
0
POLYLINE
8
Layer 1
62
7
70
0
10
0.000000
20
0.000000
66
1
0
VERTEX
8
Layer 1
10
2.286916
20
34.380039
70
0
0
VERTEX
8
Layer 1
10
2.403332
20
34.434379
70
0
0
VERTEX
8
Layer 1
10
2.485584
20
34.515249
70
0
0
VERTEX
8
Layer 1
10
2.567836
20
34.596119
70
0
0
VERTEX
8
Layer 1
10
2.610041
20
34.691529
70
0
0
VERTEX
8
Layer 1
10
2.652246
20
34.786939
70
0
0
VERTEX
8
Layer 1
10
2.651259
20
34.896772
70
0
0
VERTEX
8
Layer 1
10
2.650272
20
35.006605
70
0
0
VERTEX
8
Layer 1
10
2.606907
20
35.091605
70
0
0
VERTEX
8
Layer 1
10
2.563542
20
35.176605
70
0
0
VERTEX
8
Layer 1
10
2.474533
20
35.252795
70
0
0
VERTEX
8
Layer 1
10
2.385524
20
35.328985
70
0
0
VERTEX
8
Layer 1
10
2.272240
20
35.371375
70
0
0
VERTEX
8
Layer 1
10
2.158955
20
35.413765
70
0
0
VERTEX
8
Layer 1
10
2.005977
20
35.436355
70
0
0
VERTEX
8
Layer 1
10
1.852999
20
35.458945
70
0
0
VERTEX
8
Layer 1
10
1.753105
20
35.490875
70
0
0
VERTEX
8
Layer 1
10
1.653211
20
35.522805
70
0
0
VERTEX
8
Layer 1
10
1.589063
20
35.582725
70
0
0
VERTEX
8
Layer 1
10
1.524915
20
35.642645
70
0
0
VERTEX
8
Layer 1
10
1.524915
20
35.732195
70
0
0
VERTEX
8
Layer 1
10
1.524915
20
35.821745
70
0
0
VERTEX
8
Layer 1
10
1.600271
20
35.892815
70
0
0
VERTEX
8
Layer 1
10
1.675627
20
35.963885
70
0
0
VERTEX
8
Layer 1
10
1.793664
20
35.998195
70
0
0
VERTEX
8
Layer 1
10
1.911702
20
36.032505
70
0
0
VERTEX
8
Layer 1
10
2.018195
20
36.018375
70
0
0
VERTEX
8
Layer 1
10
2.124687
20
36.004245
70
0
0
VERTEX
8
Layer 1
10
2.200509
20
35.973215
70
0
0
VERTEX
8
Layer 1
10
2.276332
20
35.942185
70
0
0
VERTEX
8
Layer 1
10
2.374804
20
35.836836
70
0
0
VERTEX
8
Layer 1
10
2.473276
20
35.731487
70
0
0
VERTEX
8
Layer 1
10
2.515334
20
35.731487
70
0
0
VERTEX
8
Layer 1
10
2.557392
20
35.731487
70
0
0
VERTEX
8
Layer 1
10
2.605598
20
35.770527
70
0
0
VERTEX
8
Layer 1
10
2.653804
20
35.809567
70
0
0
VERTEX
8
Layer 1
10
2.653804
20
35.876577
70
0
0
VERTEX
8
Layer 1
10
2.653804
20
35.943587
70
0
0
VERTEX
8
Layer 1
10
2.590543
20
36.022747
70
0
0
VERTEX
8
Layer 1
10
2.527282
20
36.101907
70
0
0
VERTEX
8
Layer 1
10
2.426726
20
36.170127
70
0
0
VERTEX
8
Layer 1
10
2.326171
20
36.238347
70
0
0
VERTEX
8
Layer 1
10
2.248335
20
36.261017
70
0
0
VERTEX
8
Layer 1
10
2.170499
20
36.283687
70
0
0
VERTEX
8
Layer 1
10
2.016791
20
36.296407
70
0
0
VERTEX
8
Layer 1
10
1.863083
20
36.309127
70
0
0
VERTEX
8
Layer 1
10
1.726427
20
36.272137
70
0
0
VERTEX
8
Layer 1
10
1.589771
20
36.235147
70
0
0
VERTEX
8
Layer 1
10
1.490009
20
36.164217
70
0
0
VERTEX
8
Layer 1
10
1.390247
20
36.093287
70
0
0
VERTEX
8
Layer 1
10
1.330512
20
36.004347
70
0
0
VERTEX
8
Layer 1
10
1.270777
20
35.915407
70
0
0
VERTEX
8
Layer 1
10
1.247679
20
35.829627
70
0
0
VERTEX
8
Layer 1
10
1.224581
20
35.743847
70
0
0
VERTEX
8
Layer 1
10
1.238259
20
35.658287
70
0
0
VERTEX
8
Layer 1
10
1.251937
20
35.572727
70
0
0
VERTEX
8
Layer 1
10
1.302422
20
35.486577
70
0
0
VERTEX
8
Layer 1
10
1.352907
20
35.400427
70
0
0
VERTEX
8
Layer 1
10
1.433620
20
35.344697
70
0
0
VERTEX
8
Layer 1
10
1.514333
20
35.288967
70
0
0
VERTEX
8
Layer 1
10
1.609583
20
35.247117
70
0
0
VERTEX
8
Layer 1
10
1.704833
20
35.205267
70
0
0
VERTEX
8
Layer 1
10
1.904453
20
35.170737
70
0
0
VERTEX
8
Layer 1
10
2.104072
20
35.136207
70
0
0
VERTEX
8
Layer 1
10
2.179619
20
35.104647
70
0
0
VERTEX
8
Layer 1
10
2.255166
20
35.073087
70
0
0
VERTEX
8
Layer 1
10
2.313374
20
35.017337
70
0
0
VERTEX
8
Layer 1
10
2.371582
20
34.961587
70
0
0
VERTEX
8
Layer 1
10
2.371582
20
34.883737
70
0
0
VERTEX
8
Layer 1
10
2.371582
20
34.805887
70
0
0
VERTEX
8
Layer 1
10
2.327248
20
34.749527
70
0
0
VERTEX
8
Layer 1
10
2.282914
20
34.693167
70
0
0
VERTEX
8
Layer 1
10
2.196489
20
34.649077
70
0
0
VERTEX
8
Layer 1
10
2.110064
20
34.604987
70
0
0
VERTEX
8
Layer 1
10
1.990593
20
34.594157
70
0
0
VERTEX
8
Layer 1
10
1.871123
20
34.583327
70
0
0
VERTEX
8
Layer 1
10
1.750527
20
34.618387
70
0
0
VERTEX
8
Layer 1
10
1.629932
20
34.653447
70
0
0
VERTEX
8
Layer 1
10
1.530715
20
34.758570
70
0
0
VERTEX
8
Layer 1
10
1.431498
20
34.863693
70
0
0
VERTEX
8
Layer 1
10
1.381566
20
34.863693
70
0
0
VERTEX
8
Layer 1
10
1.331634
20
34.863693
70
0
0
VERTEX
8
Layer 1
10
1.293127
20
34.843083
70
0
0
VERTEX
8
Layer 1
10
1.254620
20
34.822473
70
0
0
VERTEX
8
Layer 1
10
1.240416
20
34.765883
70
0
0
VERTEX
8
Layer 1
10
1.226212
20
34.709293
70
0
0
VERTEX
8
Layer 1
10
1.292711
20
34.611843
70
0
0
VERTEX
8
Layer 1
10
1.359210
20
34.514393
70
0
0
VERTEX
8
Layer 1
10
1.444305
20
34.453223
70
0
0
VERTEX
8
Layer 1
10
1.529400
20
34.392053
70
0
0
VERTEX
8
Layer 1
10
1.648866
20
34.352663
70
0
0
VERTEX
8
Layer 1
10
1.768333
20
34.313283
70
0
0
VERTEX
8
Layer 1
10
1.969416
20
34.319483
70
0
0
VERTEX
8
Layer 1
10
2.170499
20
34.325683
70
0
0
VERTEX
8
Layer 1
10
2.286916
20
34.380039
70
0
0
SEQEND
8
Layer 1
0
POLYLINE
8
Layer 1
62
7
70
0
10
0.000000
20
0.000000
66
1
0
VERTEX
8
Layer 1
10
3.649779
20
34.353029
70
0
0
VERTEX
8
Layer 1
10
3.685703
20
34.392729
70
0
0
VERTEX
8
Layer 1
10
3.846955
20
34.998749
70
0
0
VERTEX
8
Layer 1
10
4.008207
20
35.604769
70
0
0
VERTEX
8
Layer 1
10
4.014717
20
35.598269
70
0
0
VERTEX
8
Layer 1
10
4.021227
20
35.591769
70
0
0
VERTEX
8
Layer 1
10
4.182285
20
34.989610
70
0
0
VERTEX
8
Layer 1
10
4.343344
20
34.387451
70
0
0
VERTEX
8
Layer 1
10
4.376739
20
34.350411
70
0
0
VERTEX
8
Layer 1
10
4.410134
20
34.313371
70
0
0
VERTEX
8
Layer 1
10
4.468841
20
34.313371
70
0
0
VERTEX
8
Layer 1
10
4.527548
20
34.313371
70
0
0
VERTEX
8
Layer 1
10
4.560596
20
34.346421
70
0
0
VERTEX
8
Layer 1
10
4.593644
20
34.379471
70
0
0
VERTEX
8
Layer 1
10
4.624649
20
34.489298
70
0
0
VERTEX
8
Layer 1
10
4.655655
20
34.599125
70
0
0
VERTEX
8
Layer 1
10
4.857697
20
35.355803
70
0
0
VERTEX
8
Layer 1
10
5.059738
20
36.112481
70
0
0
VERTEX
8
Layer 1
10
5.059738
20
36.165431
70
0
0
VERTEX
8
Layer 1
10
5.059738
20
36.218381
70
0
0
VERTEX
8
Layer 1
10
5.017405
20
36.260711
70
0
0
VERTEX
8
Layer 1
10
4.975072
20
36.303041
70
0
0
VERTEX
8
Layer 1
10
4.923692
20
36.303041
70
0
0
VERTEX
8
Layer 1
10
4.872312
20
36.303041
70
0
0
VERTEX
8
Layer 1
10
4.832820
20
36.252831
70
0
0
VERTEX
8
Layer 1
10
4.793329
20
36.202621
70
0
0
VERTEX
8
Layer 1
10
4.635812
20
35.607982
70
0
0
VERTEX
8
Layer 1
10
4.478295
20
35.013343
70
0
0
VERTEX
8
Layer 1
10
4.465576
20
35.028483
70
0
0
VERTEX
8
Layer 1
10
4.452857
20
35.043623
70
0
0
VERTEX
8
Layer 1
10
4.296636
20
35.635578
70
0
0
VERTEX
8
Layer 1
10
4.140414
20
36.227532
70
0
0
VERTEX
8
Layer 1
10
4.102660
20
36.265282
70
0
0
VERTEX
8
Layer 1
10
4.064906
20
36.303032
70
0
0
VERTEX
8
Layer 1
10
4.011999
20
36.303032
70
0
0
VERTEX
8
Layer 1
10
3.959082
20
36.303032
70
0
0
VERTEX
8
Layer 1
10
3.921468
20
36.265412
70
0
0
VERTEX
8
Layer 1
10
3.883854
20
36.227802
70
0
0
VERTEX
8
Layer 1
10
3.729969
20
35.646291
70
0
0
VERTEX
8
Layer 1
10
3.576083
20
35.064781
70
0
0
VERTEX
8
Layer 1
10
3.564180
20
35.033031
70
0
0
VERTEX
8
Layer 1
10
3.552277
20
35.001281
70
0
0
VERTEX
8
Layer 1
10
3.386910
20
35.622160
70
0
0
VERTEX
8
Layer 1
10
3.221542
20
36.243039
70
0
0
VERTEX
8
Layer 1
10
3.182854
20
36.272359
70
0
0
VERTEX
8
Layer 1
10
3.144166
20
36.301679
70
0
0
VERTEX
8
Layer 1
10
3.101251
20
36.302353
70
0
0
VERTEX
8
Layer 1
10
3.058336
20
36.303026
70
0
0
VERTEX
8
Layer 1
10
3.011293
20
36.270076
70
0
0
VERTEX
8
Layer 1
10
2.964250
20
36.237126
70
0
0
VERTEX
8
Layer 1
10
2.964250
20
36.176896
70
0
0
VERTEX
8
Layer 1
10
2.964250
20
36.116666
70
0
0
VERTEX
8
Layer 1
10
3.197604
20
35.241469
70
0
0
VERTEX
8
Layer 1
10
3.430958
20
34.366272
70
0
0
VERTEX
8
Layer 1
10
3.466233
20
34.339812
70
0
0
VERTEX
8
Layer 1
10
3.501508
20
34.313352
70
0
0
VERTEX
8
Layer 1
10
3.557682
20
34.313352
70
0
0
VERTEX
8
Layer 1
10
3.613856
20
34.313352
70
0
0
VERTEX
8
Layer 1
10
3.649779
20
34.353029
70
0
0
SEQEND
8
Layer 1
0
POLYLINE
8
Layer 1
62
7
70
0
10
0.000000
20
0.000000
66
1
0
VERTEX
8
Layer 1
10
6.411669
20
34.386869
70
0
0
VERTEX
8
Layer 1
10
6.525340
20
34.449829
70
0
0
VERTEX
8
Layer 1
10
6.573294
20
34.513869
70
0
0
VERTEX
8
Layer 1
10
6.621248
20
34.577909
70
0
0
VERTEX
8
Layer 1
10
6.667373
20
34.669719
70
0
0
VERTEX
8
Layer 1
10
6.713498
20
34.761529
70
0
0
VERTEX
8
Layer 1
10
6.743874
20
34.920292
70
0
0
VERTEX
8
Layer 1
10
6.774250
20
35.079054
70
0
0
VERTEX
8
Layer 1
10
6.774090
20
35.294150
70
0
0
VERTEX
8
Layer 1
10
6.773930
20
35.509247
70
0
0
VERTEX
8
Layer 1
10
6.752336
20
35.642313
70
0
0
VERTEX
8
Layer 1
10
6.730742
20
35.775380
70
0
0
VERTEX
8
Layer 1
10
6.688290
20
35.888844
70
0
0
VERTEX
8
Layer 1
10
6.645838
20
36.002307
70
0
0
VERTEX
8
Layer 1
10
6.562309
20
36.097197
70
0
0
VERTEX
8
Layer 1
10
6.478780
20
36.192087
70
0
0
VERTEX
8
Layer 1
10
6.377807
20
36.241607
70
0
0
VERTEX
8
Layer 1
10
6.276833
20
36.291137
70
0
0
VERTEX
8
Layer 1
10
5.860678
20
36.298937
70
0
0
VERTEX
8
Layer 1
10
5.444523
20
36.306737
70
0
0
VERTEX
8
Layer 1
10
5.400303
20
36.262517
70
0
0
VERTEX
8
Layer 1
10
5.356083
20
36.218297
70
0
0
VERTEX
8
Layer 1
10
5.356083
20
35.312840
70
0
0
VERTEX
8
Layer 1
10
5.356083
20
34.407383
70
0
0
VERTEX
8
Layer 1
10
5.390305
20
34.358523
70
0
0
VERTEX
8
Layer 1
10
5.424528
20
34.309663
70
0
0
VERTEX
8
Layer 1
10
5.861264
20
34.316763
70
0
0
VERTEX
8
Layer 1
10
6.298000
20
34.323863
70
0
0
VERTEX
8
Layer 1
10
6.411669
20
34.386869
70
0
0
SEQEND
8
Layer 1
0
POLYLINE
8
Layer 1
62
7
70
1
10
0.000000
20
0.000000
66
1
0
VERTEX
8
Layer 1
10
5.631249
20
35.310244
70
0
0
VERTEX
8
Layer 1
10
5.631249
20
36.031988
70
0
0
VERTEX
8
Layer 1
10
5.911707
20
36.024588
70
0
0
VERTEX
8
Layer 1
10
6.192166
20
36.017188
70
0
0
VERTEX
8
Layer 1
10
6.266177
20
35.973708
70
0
0
VERTEX
8
Layer 1
10
6.340189
20
35.930228
70
0
0
VERTEX
8
Layer 1
10
6.387665
20
35.859778
70
0
0
VERTEX
8
Layer 1
10
6.435141
20
35.789328
70
0
0
VERTEX
8
Layer 1
10
6.456824
20
35.712758
70
0
0
VERTEX
8
Layer 1
10
6.478507
20
35.636188
70
0
0
VERTEX
8
Layer 1
10
6.491489
20
35.413938
70
0
0
VERTEX
8
Layer 1
10
6.504471
20
35.191688
70
0
0
VERTEX
8
Layer 1
10
6.480112
20
35.032938
70
0
0
VERTEX
8
Layer 1
10
6.455753
20
34.874188
70
0
0
VERTEX
8
Layer 1
10
6.408055
20
34.778938
70
0
0
VERTEX
8
Layer 1
10
6.360357
20
34.683688
70
0
0
VERTEX
8
Layer 1
10
6.266486
20
34.636058
70
0
0
VERTEX
8
Layer 1
10
6.172615
20
34.588428
70
0
0
VERTEX
8
Layer 1
10
5.901931
20
34.588428
70
0
0
VERTEX
8
Layer 1
10
5.631249
20
34.588428
70
0
0
VERTEX
8
Layer 1
10
5.631249
20
35.310244
70
0
0
SEQEND
8
Layer 1
0
POLYLINE
8
Layer 1
62
7
70
0
10
0.000000
20
0.000000
66
1
0
VERTEX
8
Layer 1
10
57.976417
20
28.566584
70
0
0
VERTEX
8
Layer 1
10
57.976417
20
34.842501
70
0
0
VERTEX
8
Layer 1
10
59.976667
20
34.842501
70
0
0
VERTEX
8
Layer 1
10
61.976918
20
34.842501
70
0
0
VERTEX
8
Layer 1
10
61.976918
20
36.176001
70
0
0
VERTEX
8
Layer 1
10
61.976918
20
37.509501
70
0
0
VERTEX
8
Layer 1
10
65.977418
20
37.509501
70
0
0
VERTEX
8
Layer 1
10
69.977918
20
37.509501
70
0
0
VERTEX
8
Layer 1
10
69.977918
20
29.900084
70
0
0
VERTEX
8
Layer 1
10
69.977918
20
22.290666
70
0
0
VERTEX
8
Layer 1
10
63.977168
20
22.290666
70
0
0
VERTEX
8
Layer 1
10
57.976417
20
22.290666
70
0
0
VERTEX
8
Layer 1
10
57.976417
20
28.566584
70
0
0
SEQEND
8
Layer 1
0
POLYLINE
8
Layer 1
62
7
70
0
10
0.000000
20
0.000000
66
1
0
VERTEX
8
Layer 1
10
69.575751
20
28.556000
70
0
0
VERTEX
8
Layer 1
10
69.575751
20
34.419167
70
0
0
VERTEX
8
Layer 1
10
63.977168
20
34.419167
70
0
0
VERTEX
8
Layer 1
10
58.378584
20
34.419167
70
0
0
VERTEX
8
Layer 1
10
58.378584
20
28.556000
70
0
0
VERTEX
8
Layer 1
10
58.378584
20
22.692833
70
0
0
VERTEX
8
Layer 1
10
63.977168
20
22.692833
70
0
0
VERTEX
8
Layer 1
10
69.575751
20
22.692833
70
0
0
VERTEX
8
Layer 1
10
69.575751
20
28.556000
70
0
0
SEQEND
8
Layer 1
0
POLYLINE
8
Layer 1
62
7
70
0
10
0.000000
20
0.000000
66
1
0
VERTEX
8
Layer 1
10
64.523325
20
35.024269
70
0
0
VERTEX
8
Layer 1
10
64.624254
20
35.058659
70
0
0
VERTEX
8
Layer 1
10
64.736634
20
35.161368
70
0
0
VERTEX
8
Layer 1
10
64.849015
20
35.264078
70
0
0
VERTEX
8
Layer 1
10
64.910505
20
35.397248
70
0
0
VERTEX
8
Layer 1
10
64.971995
20
35.530417
70
0
0
VERTEX
8
Layer 1
10
64.978695
20
36.193498
70
0
0
VERTEX
8
Layer 1
10
64.985395
20
36.856578
70
0
0
VERTEX
8
Layer 1
10
64.951785
20
36.907868
70
0
0
VERTEX
8
Layer 1
10
64.918175
20
36.959158
70
0
0
VERTEX
8
Layer 1
10
64.849875
20
36.958833
70
0
0
VERTEX
8
Layer 1
10
64.781575
20
36.958509
70
0
0
VERTEX
8
Layer 1
10
64.749825
20
36.938469
70
0
0
VERTEX
8
Layer 1
10
64.718075
20
36.918429
70
0
0
VERTEX
8
Layer 1
10
64.707495
20
36.245581
70
0
0
VERTEX
8
Layer 1
10
64.696915
20
35.572734
70
0
0
VERTEX
8
Layer 1
10
64.645555
20
35.483064
70
0
0
VERTEX
8
Layer 1
10
64.594195
20
35.393394
70
0
0
VERTEX
8
Layer 1
10
64.518515
20
35.340944
70
0
0
VERTEX
8
Layer 1
10
64.442835
20
35.288494
70
0
0
VERTEX
8
Layer 1
10
64.358205
20
35.270604
70
0
0
VERTEX
8
Layer 1
10
64.273575
20
35.252704
70
0
0
VERTEX
8
Layer 1
10
64.178695
20
35.270114
70
0
0
VERTEX
8
Layer 1
10
64.083815
20
35.287524
70
0
0
VERTEX
8
Layer 1
10
64.009355
20
35.346684
70
0
0
VERTEX
8
Layer 1
10
63.934895
20
35.405834
70
0
0
VERTEX
8
Layer 1
10
63.887265
20
35.499054
70
0
0
VERTEX
8
Layer 1
10
63.839645
20
35.592274
70
0
0
VERTEX
8
Layer 1
10
63.839645
20
36.228663
70
0
0
VERTEX
8
Layer 1
10
63.839645
20
36.865051
70
0
0
VERTEX
8
Layer 1
10
63.806695
20
36.912091
70
0
0
VERTEX
8
Layer 1
10
63.773745
20
36.959131
70
0
0
VERTEX
8
Layer 1
10
63.702375
20
36.959131
70
0
0
VERTEX
8
Layer 1
10
63.631005
20
36.959131
70
0
0
VERTEX
8
Layer 1
10
63.597745
20
36.925871
70
0
0
VERTEX
8
Layer 1
10
63.564485
20
36.892611
70
0
0
VERTEX
8
Layer 1
10
63.564485
20
36.217583
70
0
0
VERTEX
8
Layer 1
10
63.564485
20
35.542556
70
0
0
VERTEX
8
Layer 1
10
63.607845
20
35.426652
70
0
0
VERTEX
8
Layer 1
10
63.651215
20
35.310748
70
0
0
VERTEX
8
Layer 1
10
63.750725
20
35.206002
70
0
0
VERTEX
8
Layer 1
10
63.850235
20
35.101257
70
0
0
VERTEX
8
Layer 1
10
63.942175
20
35.055087
70
0
0
VERTEX
8
Layer 1
10
64.034115
20
35.008917
70
0
0
VERTEX
8
Layer 1
10
64.122085
20
34.990377
70
0
0
VERTEX
8
Layer 1
10
64.210055
20
34.971837
70
0
0
VERTEX
8
Layer 1
10
64.316252
20
34.980837
70
0
0
VERTEX
8
Layer 1
10
64.422450
20
34.989837
70
0
0
VERTEX
8
Layer 1
10
64.523325
20
35.024269
70
0
0
SEQEND
8
Layer 1
0
POLYLINE
8
Layer 1
62
7
70
0
10
0.000000
20
0.000000
66
1
0
VERTEX
8
Layer 1
10
66.290046
20
35.036959
70
0
0
VERTEX
8
Layer 1
10
66.410022
20
35.081849
70
0
0
VERTEX
8
Layer 1
10
66.520404
20
35.192230
70
0
0
VERTEX
8
Layer 1
10
66.630786
20
35.302612
70
0
0
VERTEX
8
Layer 1
10
66.665106
20
35.420673
70
0
0
VERTEX
8
Layer 1
10
66.699426
20
35.538735
70
0
0
VERTEX
8
Layer 1
10
66.685306
20
35.619245
70
0
0
VERTEX
8
Layer 1
10
66.671186
20
35.699755
70
0
0
VERTEX
8
Layer 1
10
66.620166
20
35.788995
70
0
0
VERTEX
8
Layer 1
10
66.569146
20
35.878235
70
0
0
VERTEX
8
Layer 1
10
66.500806
20
35.930365
70
0
0
VERTEX
8
Layer 1
10
66.432466
20
35.982495
70
0
0
VERTEX
8
Layer 1
10
66.329004
20
36.026845
70
0
0
VERTEX
8
Layer 1
10
66.225542
20
36.071195
70
0
0
VERTEX
8
Layer 1
10
66.036945
20
36.103745
70
0
0
VERTEX
8
Layer 1
10
65.848348
20
36.136295
70
0
0
VERTEX
8
Layer 1
10
65.759728
20
36.167565
70
0
0
VERTEX
8
Layer 1
10
65.671108
20
36.198835
70
0
0
VERTEX
8
Layer 1
10
65.612598
20
36.254885
70
0
0
VERTEX
8
Layer 1
10
65.554088
20
36.310945
70
0
0
VERTEX
8
Layer 1
10
65.554088
20
36.390025
70
0
0
VERTEX
8
Layer 1
10
65.554088
20
36.469105
70
0
0
VERTEX
8
Layer 1
10
65.611418
20
36.537245
70
0
0
VERTEX
8
Layer 1
10
65.668748
20
36.605385
70
0
0
VERTEX
8
Layer 1
10
65.754288
20
36.644245
70
0
0
VERTEX
8
Layer 1
10
65.839828
20
36.683105
70
0
0
VERTEX
8
Layer 1
10
65.974956
20
36.683570
70
0
0
VERTEX
8
Layer 1
10
66.110084
20
36.684035
70
0
0
VERTEX
8
Layer 1
10
66.197204
20
36.658215
70
0
0
VERTEX
8
Layer 1
10
66.284324
20
36.632395
70
0
0
VERTEX
8
Layer 1
10
66.392948
20
36.518984
70
0
0
VERTEX
8
Layer 1
10
66.501572
20
36.405574
70
0
0
VERTEX
8
Layer 1
10
66.560192
20
36.412474
70
0
0
VERTEX
8
Layer 1
10
66.618812
20
36.419374
70
0
0
VERTEX
8
Layer 1
10
66.661072
20
36.476234
70
0
0
VERTEX
8
Layer 1
10
66.703332
20
36.533094
70
0
0
VERTEX
8
Layer 1
10
66.676402
20
36.598104
70
0
0
VERTEX
8
Layer 1
10
66.649472
20
36.663114
70
0
0
VERTEX
8
Layer 1
10
66.565442
20
36.749704
70
0
0
VERTEX
8
Layer 1
10
66.481412
20
36.836294
70
0
0
VERTEX
8
Layer 1
10
66.363664
20
36.890204
70
0
0
VERTEX
8
Layer 1
10
66.245915
20
36.944114
70
0
0
VERTEX
8
Layer 1
10
66.108795
20
36.958304
70
0
0
VERTEX
8
Layer 1
10
65.971676
20
36.972494
70
0
0
VERTEX
8
Layer 1
10
65.848107
20
36.955594
70
0
0
VERTEX
8
Layer 1
10
65.724538
20
36.938694
70
0
0
VERTEX
8
Layer 1
10
65.631138
20
36.894794
70
0
0
VERTEX
8
Layer 1
10
65.537738
20
36.850894
70
0
0
VERTEX
8
Layer 1
10
65.452518
20
36.777954
70
0
0
VERTEX
8
Layer 1
10
65.367298
20
36.705014
70
0
0
VERTEX
8
Layer 1
10
65.319698
20
36.606694
70
0
0
VERTEX
8
Layer 1
10
65.272098
20
36.508374
70
0
0
VERTEX
8
Layer 1
10
65.271320
20
36.389796
70
0
0
VERTEX
8
Layer 1
10
65.270543
20
36.271218
70
0
0
VERTEX
8
Layer 1
10
65.316133
20
36.183918
70
0
0
VERTEX
8
Layer 1
10
65.361723
20
36.096618
70
0
0
VERTEX
8
Layer 1
10
65.431443
20
36.037758
70
0
0
VERTEX
8
Layer 1
10
65.501163
20
35.978898
70
0
0
VERTEX
8
Layer 1
10
65.606996
20
35.929698
70
0
0
VERTEX
8
Layer 1
10
65.712829
20
35.880488
70
0
0
VERTEX
8
Layer 1
10
65.829246
20
35.858678
70
0
0
VERTEX
8
Layer 1
10
65.945663
20
35.836868
70
0
0
VERTEX
8
Layer 1
10
66.062079
20
35.813408
70
0
0
VERTEX
8
Layer 1
10
66.178496
20
35.789948
70
0
0
VERTEX
8
Layer 1
10
66.256476
20
35.750398
70
0
0
VERTEX
8
Layer 1
10
66.334456
20
35.710858
70
0
0
VERTEX
8
Layer 1
10
66.367606
20
35.663528
70
0
0
VERTEX
8
Layer 1
10
66.400756
20
35.616198
70
0
0
VERTEX
8
Layer 1
10
66.400756
20
35.539328
70
0
0
VERTEX
8
Layer 1
10
66.400756
20
35.462458
70
0
0
VERTEX
8
Layer 1
10
66.347926
20
35.405458
70
0
0
VERTEX
8
Layer 1
10
66.295096
20
35.348458
70
0
0
VERTEX
8
Layer 1
10
66.205046
20
35.307588
70
0
0
VERTEX
8
Layer 1
10
66.114996
20
35.266718
70
0
0
VERTEX
8
Layer 1
10
65.977413
20
35.266371
70
0
0
VERTEX
8
Layer 1
10
65.839829
20
35.266024
70
0
0
VERTEX
8
Layer 1
10
65.755439
20
35.289454
70
0
0
VERTEX
8
Layer 1
10
65.671049
20
35.312884
70
0
0
VERTEX
8
Layer 1
10
65.561478
20
35.426920
70
0
0
VERTEX
8
Layer 1
10
65.451908
20
35.540957
70
0
0
VERTEX
8
Layer 1
10
65.410088
20
35.540957
70
0
0
VERTEX
8
Layer 1
10
65.368268
20
35.540957
70
0
0
VERTEX
8
Layer 1
10
65.320948
20
35.502637
70
0
0
VERTEX
8
Layer 1
10
65.273628
20
35.464317
70
0
0
VERTEX
8
Layer 1
10
65.273628
20
35.407137
70
0
0
VERTEX
8
Layer 1
10
65.273628
20
35.349957
70
0
0
VERTEX
8
Layer 1
10
65.328508
20
35.267027
70
0
0
VERTEX
8
Layer 1
10
65.383388
20
35.184097
70
0
0
VERTEX
8
Layer 1
10
65.474028
20
35.122927
70
0
0
VERTEX
8
Layer 1
10
65.564668
20
35.061757
70
0
0
VERTEX
8
Layer 1
10
65.630458
20
35.035447
70
0
0
VERTEX
8
Layer 1
10
65.696248
20
35.009137
70
0
0
VERTEX
8
Layer 1
10
65.799789
20
34.990607
70
0
0
VERTEX
8
Layer 1
10
65.903329
20
34.972077
70
0
0
VERTEX
8
Layer 1
10
66.036697
20
34.982077
70
0
0
VERTEX
8
Layer 1
10
66.170065
20
34.992077
70
0
0
VERTEX
8
Layer 1
10
66.290046
20
35.036959
70
0
0
SEQEND
8
Layer 1
0
POLYLINE
8
Layer 1
62
7
70
0
10
0.000000
20
0.000000
66
1
0
VERTEX
8
Layer 1
10
68.086036
20
35.037532
70
0
0
VERTEX
8
Layer 1
10
68.194403
20
35.094422
70
0
0
VERTEX
8
Layer 1
10
68.253423
20
35.164252
70
0
0
VERTEX
8
Layer 1
10
68.312443
20
35.234082
70
0
0
VERTEX
8
Layer 1
10
68.353543
20
35.326582
70
0
0
VERTEX
8
Layer 1
10
68.394643
20
35.419092
70
0
0
VERTEX
8
Layer 1
10
68.394643
20
35.539160
70
0
0
VERTEX
8
Layer 1
10
68.394643
20
35.659228
70
0
0
VERTEX
8
Layer 1
10
68.360123
20
35.741848
70
0
0
VERTEX
8
Layer 1
10
68.325603
20
35.824468
70
0
0
VERTEX
8
Layer 1
10
68.271473
20
35.895428
70
0
0
VERTEX
8
Layer 1
10
68.217343
20
35.966398
70
0
0
VERTEX
8
Layer 1
10
68.293903
20
36.077554
70
0
0
VERTEX
8
Layer 1
10
68.370463
20
36.188711
70
0
0
VERTEX
8
Layer 1
10
68.388053
20
36.300013
70
0
0
VERTEX
8
Layer 1
10
68.405653
20
36.411314
70
0
0
VERTEX
8
Layer 1
10
68.387453
20
36.508764
70
0
0
VERTEX
8
Layer 1
10
68.369253
20
36.606214
70
0
0
VERTEX
8
Layer 1
10
68.314923
20
36.698914
70
0
0
VERTEX
8
Layer 1
10
68.260593
20
36.791624
70
0
0
VERTEX
8
Layer 1
10
68.175673
20
36.853144
70
0
0
VERTEX
8
Layer 1
10
68.090753
20
36.914664
70
0
0
VERTEX
8
Layer 1
10
68.013053
20
36.942214
70
0
0
VERTEX
8
Layer 1
10
67.935353
20
36.969764
70
0
0
VERTEX
8
Layer 1
10
67.494306
20
36.969764
70
0
0
VERTEX
8
Layer 1
10
67.053258
20
36.969764
70
0
0
VERTEX
8
Layer 1
10
67.012768
20
36.919794
70
0
0
VERTEX
8
Layer 1
10
66.972278
20
36.869824
70
0
0
VERTEX
8
Layer 1
10
66.972278
20
35.971623
70
0
0
VERTEX
8
Layer 1
10
66.972278
20
35.073423
70
0
0
VERTEX
8
Layer 1
10
67.026038
20
35.019663
70
0
0
VERTEX
8
Layer 1
10
67.079798
20
34.965903
70
0
0
VERTEX
8
Layer 1
10
67.528744
20
34.973303
70
0
0
VERTEX
8
Layer 1
10
67.977690
20
34.980703
70
0
0
VERTEX
8
Layer 1
10
68.086036
20
35.037532
70
0
0
SEQEND
8
Layer 1
0
POLYLINE
8
Layer 1
62
7
70
0
10
0.000000
20
0.000000
66
1
0
VERTEX
8
Layer 1
10
67.268584
20
35.538742
70
0
0
VERTEX
8
Layer 1
10
67.268584
20
35.837337
70
0
0
VERTEX
8
Layer 1
10
67.581123
20
35.837337
70
0
0
VERTEX
8
Layer 1
10
67.893662
20
35.837337
70
0
0
VERTEX
8
Layer 1
10
67.965782
20
35.798657
70
0
0
VERTEX
8
Layer 1
10
68.037902
20
35.759977
70
0
0
VERTEX
8
Layer 1
10
68.076582
20
35.687857
70
0
0
VERTEX
8
Layer 1
10
68.115262
20
35.615737
70
0
0
VERTEX
8
Layer 1
10
68.115183
20
35.541327
70
0
0
VERTEX
8
Layer 1
10
68.115104
20
35.466917
70
0
0
VERTEX
8
Layer 1
10
68.073864
20
35.399277
70
0
0
VERTEX
8
Layer 1
10
68.032624
20
35.331637
70
0
0
VERTEX
8
Layer 1
10
67.974344
20
35.293447
70
0
0
VERTEX
8
Layer 1
10
67.916064
20
35.255257
70
0
0
VERTEX
8
Layer 1
10
67.592334
20
35.247657
70
0
0
VERTEX
8
Layer 1
10
67.268604
20
35.240057
70
0
0
VERTEX
8
Layer 1
10
67.268584
20
35.538742
70
0
0
SEQEND
8
Layer 1
0
POLYLINE
8
Layer 1
62
7
70
0
10
0.000000
20
0.000000
66
1
0
VERTEX
8
Layer 1
10
67.268584
20
36.398254
70
0
0
VERTEX
8
Layer 1
10
67.268584
20
36.684004
70
0
0
VERTEX
8
Layer 1
10
67.587136
20
36.684004
70
0
0
VERTEX
8
Layer 1
10
67.905687
20
36.684004
70
0
0
VERTEX
8
Layer 1
10
67.969067
20
36.651224
70
0
0
VERTEX
8
Layer 1
10
68.032447
20
36.618444
70
0
0
VERTEX
8
Layer 1
10
68.073767
20
36.550684
70
0
0
VERTEX
8
Layer 1
10
68.115087
20
36.482924
70
0
0
VERTEX
8
Layer 1
10
68.115087
20
36.398254
70
0
0
VERTEX
8
Layer 1
10
68.115087
20
36.313584
70
0
0
VERTEX
8
Layer 1
10
68.075337
20
36.248394
70
0
0
VERTEX
8
Layer 1
10
68.035577
20
36.183204
70
0
0
VERTEX
8
Layer 1
10
67.961087
20
36.147854
70
0
0
VERTEX
8
Layer 1
10
67.886597
20
36.112504
70
0
0
VERTEX
8
Layer 1
10
67.577588
20
36.112504
70
0
0
VERTEX
8
Layer 1
10
67.268578
20
36.112504
70
0
0
VERTEX
8
Layer 1
10
67.268584
20
36.398254
70
0
0
SEQEND
8
Layer 1
0
POLYLINE
8
Layer 1
62
7
70
1
10
0.000000
20
0.000000
66
1
0
VERTEX
8
Layer 1
10
49.446250
20
44.251085
70
0
0
VERTEX
8
Layer 1
10
49.446250
20
49.997835
70
0
0
VERTEX
8
Layer 1
10
53.446593
20
49.997835
70
0
0
VERTEX
8
Layer 1
10
57.446935
20
49.997835
70
0
0
VERTEX
8
Layer 1
10
57.452335
20
48.659043
70
0
0
VERTEX
8
Layer 1
10
57.457735
20
47.320252
70
0
0
VERTEX
8
Layer 1
10
59.452693
20
47.314852
70
0
0
VERTEX
8
Layer 1
10
61.447652
20
47.309452
70
0
0
VERTEX
8
Layer 1
10
61.447652
20
42.906893
70
0
0
VERTEX
8
Layer 1
10
61.447652
20
38.504334
70
0
0
VERTEX
8
Layer 1
10
55.447001
20
38.504334
70
0
0
VERTEX
8
Layer 1
10
49.446250
20
38.504334
70
0
0
VERTEX
8
Layer 1
10
49.446250
20
44.251085
70
0
0
SEQEND
8
Layer 1
0
POLYLINE
8
Layer 1
62
7
70
0
10
0.000000
20
0.000000
66
1
0
VERTEX
8
Layer 1
10
61.045584
20
42.907001
70
0
0
VERTEX
8
Layer 1
10
61.045584
20
46.907502
70
0
0
VERTEX
8
Layer 1
10
55.447001
20
46.907502
70
0
0
VERTEX
8
Layer 1
10
49.848417
20
46.907502
70
0
0
VERTEX
8
Layer 1
10
49.848417
20
42.907001
70
0
0
VERTEX
8
Layer 1
10
49.848417
20
38.906501
70
0
0
VERTEX
8
Layer 1
10
55.447001
20
38.906501
70
0
0
VERTEX
8
Layer 1
10
61.045584
20
38.906501
70
0
0
VERTEX
8
Layer 1
10
61.045584
20
42.907001
70
0
0
SEQEND
8
Layer 1
0
POLYLINE
8
Layer 1
62
7
70
0
10
0.000000
20
0.000000
66
1
0
VERTEX
8
Layer 1
10
51.256963
20
47.509789
70
0
0
VERTEX
8
Layer 1
10
51.308913
20
47.561745
70
0
0
VERTEX
8
Layer 1
10
51.308913
20
47.944447
70
0
0
VERTEX
8
Layer 1
10
51.308913
20
48.327149
70
0
0
VERTEX
8
Layer 1
10
51.525624
20
48.321119
70
0
0
VERTEX
8
Layer 1
10
51.742335
20
48.315089
70
0
0
VERTEX
8
Layer 1
10
51.969419
20
47.913154
70
0
0
VERTEX
8
Layer 1
10
52.196503
20
47.511220
70
0
0
VERTEX
8
Layer 1
10
52.233003
20
47.484530
70
0
0
VERTEX
8
Layer 1
10
52.269503
20
47.457839
70
0
0
VERTEX
8
Layer 1
10
52.308753
20
47.457839
70
0
0
VERTEX
8
Layer 1
10
52.348003
20
47.457839
70
0
0
VERTEX
8
Layer 1
10
52.401983
20
47.511822
70
0
0
VERTEX
8
Layer 1
10
52.455963
20
47.565804
70
0
0
VERTEX
8
Layer 1
10
52.443343
20
47.616085
70
0
0
VERTEX
8
Layer 1
10
52.430723
20
47.666367
70
0
0
VERTEX
8
Layer 1
10
52.301454
20
47.895478
70
0
0
VERTEX
8
Layer 1
10
52.172184
20
48.124589
70
0
0
VERTEX
8
Layer 1
10
52.109444
20
48.235659
70
0
0
VERTEX
8
Layer 1
10
52.046704
20
48.346729
70
0
0
VERTEX
8
Layer 1
10
52.104194
20
48.368585
70
0
0
VERTEX
8
Layer 1
10
52.161684
20
48.390441
70
0
0
VERTEX
8
Layer 1
10
52.242184
20
48.454197
70
0
0
VERTEX
8
Layer 1
10
52.322684
20
48.517953
70
0
0
VERTEX
8
Layer 1
10
52.376074
20
48.628187
70
0
0
VERTEX
8
Layer 1
10
52.429464
20
48.738422
70
0
0
VERTEX
8
Layer 1
10
52.442974
20
48.825710
70
0
0
VERTEX
8
Layer 1
10
52.456484
20
48.912998
70
0
0
VERTEX
8
Layer 1
10
52.422274
20
49.030678
70
0
0
VERTEX
8
Layer 1
10
52.388064
20
49.148359
70
0
0
VERTEX
8
Layer 1
10
52.319064
20
49.238819
70
0
0
VERTEX
8
Layer 1
10
52.250064
20
49.329279
70
0
0
VERTEX
8
Layer 1
10
52.136909
20
49.388392
70
0
0
VERTEX
8
Layer 1
10
52.023754
20
49.447505
70
0
0
VERTEX
8
Layer 1
10
51.562016
20
49.447505
70
0
0
VERTEX
8
Layer 1
10
51.100278
20
49.447505
70
0
0
VERTEX
8
Layer 1
10
51.067848
20
49.415075
70
0
0
VERTEX
8
Layer 1
10
51.035418
20
49.382644
70
0
0
VERTEX
8
Layer 1
10
51.022978
20
49.314533
70
0
0
VERTEX
8
Layer 1
10
51.010538
20
49.246422
70
0
0
VERTEX
8
Layer 1
10
51.016838
20
48.392577
70
0
0
VERTEX
8
Layer 1
10
51.023138
20
47.538733
70
0
0
VERTEX
8
Layer 1
10
51.073108
20
47.498286
70
0
0
VERTEX
8
Layer 1
10
51.123078
20
47.457839
70
0
0
VERTEX
8
Layer 1
10
51.164028
20
47.457839
70
0
0
VERTEX
8
Layer 1
10
51.204978
20
47.457839
70
0
0
VERTEX
8
Layer 1
10
51.256963
20
47.509789
70
0
0
SEQEND
8
Layer 1
0
POLYLINE
8
Layer 1
62
7
70
0
10
0.000000
20
0.000000
66
1
0
VERTEX
8
Layer 1
10
51.308913
20
48.886585
70
0
0
VERTEX
8
Layer 1
10
51.308913
20
49.172335
70
0
0
VERTEX
8
Layer 1
10
51.627464
20
49.172335
70
0
0
VERTEX
8
Layer 1
10
51.946015
20
49.172335
70
0
0
VERTEX
8
Layer 1
10
52.009405
20
49.139558
70
0
0
VERTEX
8
Layer 1
10
52.072785
20
49.106780
70
0
0
VERTEX
8
Layer 1
10
52.114105
20
49.039016
70
0
0
VERTEX
8
Layer 1
10
52.155425
20
48.971252
70
0
0
VERTEX
8
Layer 1
10
52.155504
20
48.873565
70
0
0
VERTEX
8
Layer 1
10
52.155583
20
48.775878
70
0
0
VERTEX
8
Layer 1
10
52.111383
20
48.719684
70
0
0
VERTEX
8
Layer 1
10
52.067183
20
48.663490
70
0
0
VERTEX
8
Layer 1
10
52.006603
20
48.632163
70
0
0
VERTEX
8
Layer 1
10
51.946023
20
48.600836
70
0
0
VERTEX
8
Layer 1
10
51.627472
20
48.600836
70
0
0
VERTEX
8
Layer 1
10
51.308921
20
48.600836
70
0
0
VERTEX
8
Layer 1
10
51.308913
20
48.886585
70
0
0
SEQEND
8
Layer 1
0
POLYLINE
8
Layer 1
62
7
70
0
10
0.000000
20
0.000000
66
1
0
VERTEX
8
Layer 1
10
53.746973
20
47.513942
70
0
0
VERTEX
8
Layer 1
10
53.838333
20
47.549659
70
0
0
VERTEX
8
Layer 1
10
53.927453
20
47.612569
70
0
0
VERTEX
8
Layer 1
10
54.016573
20
47.675479
70
0
0
VERTEX
8
Layer 1
10
54.066723
20
47.751866
70
0
0
VERTEX
8
Layer 1
10
54.116873
20
47.828253
70
0
0
VERTEX
8
Layer 1
10
54.141643
20
47.900203
70
0
0
VERTEX
8
Layer 1
10
54.166413
20
47.972153
70
0
0
VERTEX
8
Layer 1
10
54.166413
20
48.035330
70
0
0
VERTEX
8
Layer 1
10
54.166413
20
48.098507
70
0
0
VERTEX
8
Layer 1
10
54.141843
20
48.180498
70
0
0
VERTEX
8
Layer 1
10
54.117273
20
48.262489
70
0
0
VERTEX
8
Layer 1
10
54.045703
20
48.346106
70
0
0
VERTEX
8
Layer 1
10
53.974133
20
48.429723
70
0
0
VERTEX
8
Layer 1
10
53.842730
20
48.493887
70
0
0
VERTEX
8
Layer 1
10
53.711327
20
48.558051
70
0
0
VERTEX
8
Layer 1
10
53.499660
20
48.592932
70
0
0
VERTEX
8
Layer 1
10
53.287994
20
48.627813
70
0
0
VERTEX
8
Layer 1
10
53.197564
20
48.669793
70
0
0
VERTEX
8
Layer 1
10
53.107134
20
48.711773
70
0
0
VERTEX
8
Layer 1
10
53.065274
20
48.764991
70
0
0
VERTEX
8
Layer 1
10
53.023414
20
48.818209
70
0
0
VERTEX
8
Layer 1
10
53.023493
20
48.873563
70
0
0
VERTEX
8
Layer 1
10
53.023572
20
48.928917
70
0
0
VERTEX
8
Layer 1
10
53.066222
20
48.998864
70
0
0
VERTEX
8
Layer 1
10
53.108872
20
49.068811
70
0
0
VERTEX
8
Layer 1
10
53.219605
20
49.120365
70
0
0
VERTEX
8
Layer 1
10
53.330339
20
49.171920
70
0
0
VERTEX
8
Layer 1
10
53.454883
20
49.172127
70
0
0
VERTEX
8
Layer 1
10
53.579427
20
49.172334
70
0
0
VERTEX
8
Layer 1
10
53.666547
20
49.146689
70
0
0
VERTEX
8
Layer 1
10
53.753667
20
49.121043
70
0
0
VERTEX
8
Layer 1
10
53.863447
20
49.007664
70
0
0
VERTEX
8
Layer 1
10
53.973226
20
48.894284
70
0
0
VERTEX
8
Layer 1
10
54.042706
20
48.901014
70
0
0
VERTEX
8
Layer 1
10
54.112186
20
48.907744
70
0
0
VERTEX
8
Layer 1
10
54.142556
20
48.962127
70
0
0
VERTEX
8
Layer 1
10
54.172926
20
49.016511
70
0
0
VERTEX
8
Layer 1
10
54.159866
20
49.068528
70
0
0
VERTEX
8
Layer 1
10
54.146806
20
49.120546
70
0
0
VERTEX
8
Layer 1
10
54.071056
20
49.209048
70
0
0
VERTEX
8
Layer 1
10
53.995306
20
49.297549
70
0
0
VERTEX
8
Layer 1
10
53.853765
20
49.367230
70
0
0
VERTEX
8
Layer 1
10
53.712223
20
49.436911
70
0
0
VERTEX
8
Layer 1
10
53.468361
20
49.436911
70
0
0
VERTEX
8
Layer 1
10
53.224500
20
49.436911
70
0
0
VERTEX
8
Layer 1
10
53.108083
20
49.381606
70
0
0
VERTEX
8
Layer 1
10
52.991666
20
49.326302
70
0
0
VERTEX
8
Layer 1
10
52.909506
20
49.244023
70
0
0
VERTEX
8
Layer 1
10
52.827346
20
49.161744
70
0
0
VERTEX
8
Layer 1
10
52.788266
20
49.077077
70
0
0
VERTEX
8
Layer 1
10
52.749186
20
48.992410
70
0
0
VERTEX
8
Layer 1
10
52.748721
20
48.877385
70
0
0
VERTEX
8
Layer 1
10
52.748257
20
48.762359
70
0
0
VERTEX
8
Layer 1
10
52.792257
20
48.671469
70
0
0
VERTEX
8
Layer 1
10
52.836257
20
48.580579
70
0
0
VERTEX
8
Layer 1
10
52.917577
20
48.516174
70
0
0
VERTEX
8
Layer 1
10
52.998897
20
48.451769
70
0
0
VERTEX
8
Layer 1
10
53.096147
20
48.408752
70
0
0
VERTEX
8
Layer 1
10
53.193397
20
48.365735
70
0
0
VERTEX
8
Layer 1
10
53.419379
20
48.322897
70
0
0
VERTEX
8
Layer 1
10
53.645360
20
48.280059
70
0
0
VERTEX
8
Layer 1
10
53.723980
20
48.239950
70
0
0
VERTEX
8
Layer 1
10
53.802600
20
48.199841
70
0
0
VERTEX
8
Layer 1
10
53.846930
20
48.143479
70
0
0
VERTEX
8
Layer 1
10
53.891260
20
48.087117
70
0
0
VERTEX
8
Layer 1
10
53.891260
20
48.040185
70
0
0
VERTEX
8
Layer 1
10
53.891260
20
47.993253
70
0
0
VERTEX
8
Layer 1
10
53.843600
20
47.921331
70
0
0
VERTEX
8
Layer 1
10
53.795940
20
47.849409
70
0
0
VERTEX
8
Layer 1
10
53.692769
20
47.798256
70
0
0
VERTEX
8
Layer 1
10
53.589598
20
47.747103
70
0
0
VERTEX
8
Layer 1
10
53.438800
20
47.747578
70
0
0
VERTEX
8
Layer 1
10
53.288002
20
47.748053
70
0
0
VERTEX
8
Layer 1
10
53.209292
20
47.781499
70
0
0
VERTEX
8
Layer 1
10
53.130582
20
47.814945
70
0
0
VERTEX
8
Layer 1
10
53.026723
20
47.922135
70
0
0
VERTEX
8
Layer 1
10
52.922863
20
48.029326
70
0
0
VERTEX
8
Layer 1
10
52.877893
20
48.029326
70
0
0
VERTEX
8
Layer 1
10
52.832923
20
48.029326
70
0
0
VERTEX
8
Layer 1
10
52.790593
20
47.986993
70
0
0
VERTEX
8
Layer 1
10
52.748263
20
47.944660
70
0
0
VERTEX
8
Layer 1
10
52.748851
20
47.886452
70
0
0
VERTEX
8
Layer 1
10
52.749440
20
47.828244
70
0
0
VERTEX
8
Layer 1
10
52.809600
20
47.748787
70
0
0
VERTEX
8
Layer 1
10
52.869760
20
47.669330
70
0
0
VERTEX
8
Layer 1
10
52.920130
20
47.630071
70
0
0
VERTEX
8
Layer 1
10
52.970510
20
47.590812
70
0
0
VERTEX
8
Layer 1
10
53.044590
20
47.551907
70
0
0
VERTEX
8
Layer 1
10
53.118670
20
47.513002
70
0
0
VERTEX
8
Layer 1
10
53.235087
20
47.485844
70
0
0
VERTEX
8
Layer 1
10
53.351504
20
47.458686
70
0
0
VERTEX
8
Layer 1
10
53.503563
20
47.468456
70
0
0
VERTEX
8
Layer 1
10
53.655623
20
47.478226
70
0
0
VERTEX
8
Layer 1
10
53.746973
20
47.513942
70
0
0
SEQEND
8
Layer 1
0
POLYLINE
8
Layer 1
62
7
70
0
10
0.000000
20
0.000000
66
1
0
VERTEX
8
Layer 1
10
55.257459
20
47.509792
70
0
0
VERTEX
8
Layer 1
10
55.309409
20
47.561747
70
0
0
VERTEX
8
Layer 1
10
55.309409
20
48.367040
70
0
0
VERTEX
8
Layer 1
10
55.309409
20
49.172335
70
0
0
VERTEX
8
Layer 1
10
55.543205
20
49.172335
70
0
0
VERTEX
8
Layer 1
10
55.777000
20
49.172335
70
0
0
VERTEX
8
Layer 1
10
55.828950
20
49.224290
70
0
0
VERTEX
8
Layer 1
10
55.880900
20
49.276244
70
0
0
VERTEX
8
Layer 1
10
55.880900
20
49.314830
70
0
0
VERTEX
8
Layer 1
10
55.880900
20
49.353416
70
0
0
VERTEX
8
Layer 1
10
55.847950
20
49.400459
70
0
0
VERTEX
8
Layer 1
10
55.815000
20
49.447502
70
0
0
VERTEX
8
Layer 1
10
55.177575
20
49.447502
70
0
0
VERTEX
8
Layer 1
10
54.540150
20
49.447502
70
0
0
VERTEX
8
Layer 1
10
54.501440
20
49.412471
70
0
0
VERTEX
8
Layer 1
10
54.462730
20
49.377441
70
0
0
VERTEX
8
Layer 1
10
54.462730
20
49.317221
70
0
0
VERTEX
8
Layer 1
10
54.462730
20
49.257002
70
0
0
VERTEX
8
Layer 1
10
54.505060
20
49.214669
70
0
0
VERTEX
8
Layer 1
10
54.547390
20
49.172335
70
0
0
VERTEX
8
Layer 1
10
54.790807
20
49.172335
70
0
0
VERTEX
8
Layer 1
10
55.034224
20
49.172335
70
0
0
VERTEX
8
Layer 1
10
55.034224
20
48.357419
70
0
0
VERTEX
8
Layer 1
10
55.034224
20
47.542502
70
0
0
VERTEX
8
Layer 1
10
55.076554
20
47.500169
70
0
0
VERTEX
8
Layer 1
10
55.118884
20
47.457836
70
0
0
VERTEX
8
Layer 1
10
55.162184
20
47.457836
70
0
0
VERTEX
8
Layer 1
10
55.205484
20
47.457836
70
0
0
VERTEX
8
Layer 1
10
55.257459
20
47.509792
70
0
0
SEQEND
8
Layer 1
 0 
ENDSEC
 0 
EOF